/* XPM */
static char *result[] = {
/* columns rows colors chars-per-pixel */
"40 40 112 2 ",
"   c #3D0404",
".  c #260E35",
"X  c #450404",
"o  c #4D0404",
"O  c #540404",
"+  c #5B0404",
"@  c #500D05",
"#  c #5B040D",
"$  c #4D1706",
"%  c #5C0713",
"&  c #500817",
"*  c #55081D",
"=  c #5E0B1C",
"-  c #401318",
";  c #640404",
":  c #680606",
">  c #65030A",
",  c #6D0309",
"<  c #730304",
"1  c #7A0202",
"2  c #72040D",
"3  c #660715",
"4  c #650A1E",
"5  c #6F0A1E",
"6  c #432607",
"7  c #5F340A",
"8  c #450B29",
"9  c #4C0D2A",
"0  c #570B24",
"q  c #5E0D22",
"w  c #4A0F35",
"e  c #43133A",
"r  c #4D153D",
"t  c #5D143C",
"y  c #630E26",
"u  c #650F30",
"i  c #641237",
"p  c #681032",
"a  c #64143E",
"s  c #7E582D",
"d  c #7B5230",
"f  c #2E1140",
"g  c #3E1755",
"h  c #3E1858",
"j  c #461446",
"k  c #5C1644",
"l  c #541843",
"z  c #5B184A",
"x  c #471A57",
"c  c #491D57",
"v  c #43195E",
"b  c #521D54",
"n  c #581E55",
"m  c #521D59",
"M  c #5A1F5B",
"N  c #641745",
"B  c #61194E",
"V  c #51294D",
"C  c #4F295D",
"Z  c #502753",
"A  c #572D50",
"S  c #52215C",
"D  c #54305E",
"F  c #64215F",
"G  c #683454",
"H  c #6D365D",
"J  c #471B60",
"K  c #4B1D63",
"L  c #531F69",
"P  c #661F60",
"I  c #4F2065",
"U  c #522266",
"Y  c #5A2364",
"T  c #542369",
"R  c #5B266D",
"E  c #5E2570",
"W  c #5F2871",
"Q  c #662163",
"!  c #6B2165",
"~  c #682D63",
"^  c #63246C",
"/  c #71246F",
"(  c #6A3265",
")  c #632673",
"_  c #692673",
"`  c #642874",
"'  c #682977",
"]  c #692779",
"[  c #6D297B",
"{  c #722673",
"}  c #712A7E",
"|  c #7E4E42",
" . c #5F4A63",
".. c #674B60",
"X. c #830202",
"o. c #8D0000",
"O. c #814F0E",
"+. c #815A0F",
"@. c #885D2C",
"#. c #856C5F",
"$. c #C49318",
"%. c #D09E19",
"&. c #E0A91B",
"*. c #EDB31D",
"=. c #F5B91E",
"-. c #DAA724",
";. c #CBA134",
":. c #FFC11F",
">. c #FFC428",
",. c #B69744",
"<. c #B69C56",
"1. c #742A81",
/* pixels */
"1.1.1.1.1.1.} ' W R R R I v h h I #.,.Z U R R R R R R ] } [ ` R ] } 1.1.1.1.1.1.",
"1.1.1.1.1.1.[ ' W W W R I S v D ..>.-.*.U W R R R R W ' } ] ` ` ] 1.1.1.1.1.1.1.",
"1.1.1.1.} ] ' ' ' ' ' ` T U I J <.&. .:.T _ W W ` ` ' ' ' ' ' ' } 1.1.1.1.1.1.1.",
"1.1.1.1.[ ` W ' [ [ 1.1.` T A V ;.*.s :.@.~ ' W ` ] [ ' W ` [ } 1.1.1.1.1.1.1.1.",
"1.1.1.1.[ ] ' ] 1.1.[ ' ' ( d :.>.:.:.:.:.:.d ' ' [ 1.' ` ' [ 1.1.1.1.1.1.1.1.1.",
"1.1.1.1.1.[ [ } 1.[ ' ` H H &.%.$.:.:.:.:.:.=.G [ 1.1.} [ [ 1.1.1.1.1.1.1.1.1.1.",
"1.1.1.1.1.1.1.1.1.[ ` Y ^   $ +.7 $ $ $ $ $ $ O.^ 1.1.1.1.1.1.1.1.1.1.1.1.1.1.1.",
"1.1.1.1.1.1.1.1.1.1.^ ( q 3 : 6 $ ; : : : : : : e 1.1.1.1.1.1.1.1.1.1.1.1.1.1.1.",
"1.1.1.1.1.1.1.1.1.1.! N , : : : : : : : : : : : X.p 1.1.1.1.1.1.1.1.1.1.1.1.1.1.",
"1.1.1.1.1.1.1.1.1.! _ < : : : : : : : : : : : : < 1 p 1.1.1.1.1.1.1.1.1.1.1.1.1.",
"1.1.1.1.1.1.1.1.^ [ X.1 : : : : : : : ; : : : : : < X.t 1.1.1.1.1.1.1.1.1.1.1.1.",
"1.1.1.1.1.1.1._ { 5 1 : : : : : : : : : : : : : : : 1 X.! 1.1.1.1.1.1.1.1.1.1.1.",
"1.1.1.1.1.1.1.! N o.1 : : : : : : : : : : : : : : : , o., 1.1.1.1.1.1.1.1.1.1.1.",
"1.1.1.1.1.1._ } < X.: : : : : : : : : : : : : : : : : 1 o.z 1.1.1.1.1.1.1.1.1.1.",
"1.1.1.1.1.1.! z o.1 , : : : : : : : ; : : : : : : : : : X.o.! 1.1.1.1.1.1.1.1.1.",
"1.1.1.1.1.] } < o.: : : : : : : : : : : : : : : : : : : o.o.: 1.1.1.1.1.1.1.1.1.",
"1.1.1.1.1.Q _ o.X.2 : : : : : : : : : : : : : : : : : : < o.o.Q 1.1.1.1.1.1.1.1.",
"1.1.1.1.1.! N o.< ; : : : ; : : : ; : : : : : : : : : : < o.o.a 1.1.1.1.1.1.1.1.",
"1.1.1.1.1._ 4 X.< : : : : : : : : : : : : : : : : : : : : X.o.2 } 1.1.1.1.1.1.1.",
"1.1.} [ ^ [ < 1 : : : : : : : : : : : : , : : : : : : : : < o.X.) [ [ [ [ } 1.1.",
"1.1.] ` c m o.X.: : : : : : : : : : 1 o.o.o.1 : : : : : : < X.o.m W ` ` ` [ 1.1.",
"1.1.] W V V o.1 : : : : ; : : : : 1 o.< O X X o : : : : : : X.o.& R R R ^ [ } 1.",
"1.1.[ ] F i X.< : : : : : : : : 2 <     X + ; : : : : : : : < X.1 ` ' ' ] [ 1.1.",
"1.1.} } } 3 o.< : : : : : : : : @ X O ; : ; + : : : : : : : : 1 o.Q } } } 1.1.1.",
"1.1.1.1.1.; X., : : : : : : : @ X ; O X X o ; : : : : : : , , 1 o.a 1.1.1.1.1.1.",
"1.1.1.1.{ 4 o.: : : : : : : : : : : ; # : : : : : : : : O + 1 X.o.1 } 1.1.1.1.1.",
"1.1.1.1.! N o.< : : : : : : : : : : : : : : : : : : : + 1 o.o.o.o.o.B 1.1.1.1.1.",
"1.1.1.1.Y R o.1 : : : : : : : : : : : : ; : : : : : : @ o.o.o.o.o.o.i 1.1.1.1.1.",
"1.1.1.1.[ } , X.: : : : : : : : : : : : : : : : : : : ; , + ; X.o.o.3 1.1.1.1.1.",
"1.1.1.1.} / y < : : : : ; : : : : : : : : : : : : : : O X X X r * % } 1.1.1.1.1.",
"1.1.1.1.1.P P X.2 : : : : : : : : : : : : : : : : : : : , : F } 1.1.1.1.1.1.1.1.",
"1.1.1.1.1._ } 1 : : : : : : : : : ; : : : : : : : : : : X.< [ 1.1.1.1.1.1.1.1.1.",
"1.1.1.1.1.1.! k X.: : : : : : : : : : : : : : : : : : X.o.c ] 1.1.1.1.1.1.1.1.1.",
"1.1.1.1.1.1.' Q q < : : : : : : : : : : : : : : : : 1 o.w L ] 1.1.1.1.1.1.1.1.1.",
"[ ] [ [ ] ' ] S Y < < ; : : : : : : : : : : : : : < o.0 v K E [ } } 1.1.1.1.1.1.",
"` ` ` ` ` ` ` W S R < < : : : : : : : : : : : : < 1 0 v J K R ` ] 1.1.1.1.1.1.1.",
"R R R R R R R R R Z S = < : : : : : ; : : : : 1 X.9 v v v J U R _ [ 1.1.1.1.1.1.",
"R R R R T U I T R R Y S r , < < , : : : , X.1 # x J v v v J K I L R L R E L ' ' ",
"R R R R T C h U T R R T Z j w * + + 1 1 ; 8 g v v v v h h v v J J J J J J L E E ",
"R R R R T I J I R R W T K v v v v . . v v v v v v v v v v v v v v v h J J K L W "
};
