/* XPM */
static char *result[] = {
/* columns rows colors chars-per-pixel */
"40 41 152 2 ",
"   c #3A1135",
".  c #440505",
"X  c #4A0505",
"o  c #550505",
"O  c #5C0404",
"+  c #5D070A",
"@  c #5F080E",
"#  c #520715",
"$  c #5B0A15",
"%  c #640505",
"&  c #690606",
"*  c #600906",
"=  c #64060A",
"-  c #6C050B",
";  c #680808",
":  c #720404",
">  c #7C0203",
",  c #760905",
"<  c #74050E",
"1  c #7D040B",
"2  c #66130E",
"3  c #6B140E",
"4  c #6F190C",
"5  c #650511",
"6  c #6D0511",
"7  c #630915",
"8  c #690812",
"9  c #660A1D",
"0  c #6A0B1C",
"q  c #760612",
"w  c #780716",
"e  c #5F2611",
"r  c #672208",
"t  c #763B0C",
"y  c #6C3A1B",
"u  c #460B20",
"i  c #470E2F",
"p  c #550C23",
"a  c #5A0D22",
"s  c #560C2B",
"d  c #5B0D2B",
"f  c #551029",
"g  c #5B102A",
"h  c #5D0F30",
"j  c #521236",
"k  c #541A36",
"l  c #54163B",
"z  c #5D143A",
"x  c #630B22",
"c  c #690D24",
"v  c #62102D",
"b  c #671133",
"n  c #6A1130",
"m  c #61153C",
"M  c #6B153F",
"N  c #7A400D",
"B  c #6C432D",
"V  c #471140",
"C  c #4A1541",
"Z  c #43154D",
"A  c #5C1742",
"S  c #521749",
"D  c #561A49",
"F  c #5F1948",
"G  c #411653",
"H  c #4F1955",
"J  c #43195D",
"K  c #491F5B",
"L  c #541D50",
"P  c #5D1C51",
"I  c #541F5D",
"U  c #5C1F58",
"Y  c #6C1541",
"T  c #64194C",
"R  c #6B1849",
"E  c #641C54",
"W  c #6A1B53",
"Q  c #6A1E5D",
"!  c #4C254B",
"~  c #5D204D",
"^  c #4C235D",
"/  c #552356",
"(  c #522058",
")  c #5D3055",
"_  c #683D45",
"`  c #623B4E",
"'  c #60215F",
"]  c #6E3B57",
"[  c #7A3F59",
"{  c #471B60",
"}  c #4B1D62",
"|  c #4E2065",
" . c #512167",
".. c #5D2362",
"X. c #552369",
"o. c #5B266D",
"O. c #5B286A",
"+. c #5E2570",
"@. c #5F2871",
"#. c #622166",
"$. c #682266",
"%. c #632E65",
"&. c #64246B",
"*. c #6C236C",
"=. c #6E2E6A",
"-. c #622673",
";. c #6D2674",
":. c #632874",
">. c #682977",
",. c #6F2778",
"<. c #6C297B",
"1. c #702776",
"2. c #712778",
"3. c #722A7E",
"4. c #6D4644",
"5. c #75454E",
"6. c #6A475A",
"7. c #840102",
"8. c #8C0000",
"9. c #824C19",
"0. c #875715",
"q. c #94561A",
"w. c #8A4B23",
"e. c #8A5A31",
"r. c #8A573A",
"t. c #8B5C3D",
"y. c #8E622D",
"u. c #936523",
"i. c #9B6C2B",
"p. c #986930",
"a. c #AC7A24",
"s. c #B17F23",
"d. c #A47C4E",
"f. c #825E60",
"g. c #AF8023",
"h. c #B68628",
"j. c #BF8A2A",
"k. c #B48736",
"l. c #BC913B",
"z. c #C8971C",
"x. c #D49F1A",
"c. c #D6A31F",
"v. c #EEB31D",
"b. c #F8BC1E",
"n. c #C48F27",
"m. c #C89724",
"M. c #CD9C35",
"N. c #DFAC2B",
"B. c #DBAB3C",
"V. c #EDB421",
"C. c #742A81",
"Z. c None",
/* pixels */
"Z.Z.Z.Z.Z.Z.Z.Z.Z.Z.Z.Z.Z.Z.Z.Z.Z.Z.Z.Z.Z.Z.Z.Z.Z.Z.Z.Z.Z.Z.Z.Z.Z.Z.Z.Z.Z.Z.Z.Z.",
"C.C.C.C.C.C.C.>.o.o.o.o.| J J J J J J ^ ` 4.) O.o.o.@.>.3.<.:.o.>.3.C.C.C.C.C.C.",
"C.C.C.C.C.C.<.>.-.o.+.o.X.{ J J J J J f.B.v.n.5.O.o.-.>.<.<.:.:.<.3.C.C.C.C.C.C.",
"C.C.C.C.<.<.>.>.>.>.>.:.o. .} { J J ^ d.M.u.a.t.%.:.>.>.>.>.:.>.3.C.C.C.C.C.C.C.",
"C.C.C.C.<.:.-.>.<.C.3.3.:.o.X.} J ^ 6.l.n.e.a.p.] <.<.>.:.:.>.C.C.C.C.C.C.C.C.C.",
"C.C.C.C.<.>.:.<.C.3.<.<.>.-.o.} J _ h.V.b.v.v.z.i.5.3.<.:.>.<.C.C.C.C.C.C.C.C.C.",
"C.C.C.C.C.<.<.C.C.3.>.-.>.<.-.} ! y.x.x.x.x.N.N.m.r.=.<.<.3.C.C.C.C.C.C.C.C.C.C.",
"C.C.C.C.C.C.C.C.C.<.:.-.>.3.:./ B 0.N t t t N k.g.y ~ <.C.C.C.C.C.C.C.C.C.C.C.C.",
"C.C.C.C.C.C.C.C.C.C.<.>.<.3.&.k r r + + % + 2 w.q.4 c W ,.3.C.C.C.C.C.C.C.C.C.C.",
"C.C.C.C.C.C.C.C.C.C.C.C.3.;.A $ + O & & & ; & 2 4 , 7.w Y ;.3.C.C.C.C.C.C.C.C.C.",
"C.C.C.C.C.C.C.C.C.C.C.<.$.z 7 ; * ; & & & & ; & & : > 7.7.R 2.C.C.C.C.C.C.C.C.C.",
"C.C.C.C.C.C.C.C.C.C.C.<.T 7 & ; ; ; & & & & % & & & : 7.8.w Q 3.C.C.C.C.C.C.C.C.",
"C.C.C.C.C.C.C.C.C.C.C.$.c - & & & & & * & & ; & & & & , 7.8.b 2.C.C.C.C.C.C.C.C.",
"C.C.C.C.C.C.C.C.C.C.2.T 8 & & & & & & & & & & & & & & : > 8.6 *.3.C.C.C.C.C.C.C.",
"C.C.C.C.C.C.C.C.C.C.*.n : & & & ; & & & ; & & ; & & & & : 7.8.m 3.C.C.C.C.C.C.C.",
"C.C.C.C.C.C.C.C.C.3.Q 0 & & & & & & & & & & & ; & & & & : 7.8.x 3.C.C.C.C.C.C.C.",
"C.C.C.C.C.C.C.C.3.;.M - & & & & & & & * & & & & & & & & : > 8.& <.C.C.C.C.C.C.C.",
"C.C.C.C.C.C.C.3.2.$.9 : & ; & & & & & & & & & & & & & & 7.8.8.8.C C.C.C.C.C.C.C.",
"C.C.C.C.C.C.3.3.>.R - : & & ; & ; & & & & & % % + % % % % & 8.8.5 C.C.C.C.C.C.C.",
"C.C.C.C.C.C.3.>...v > & & & & & & & & & % O O O O % & & % % > 8.& C.C.C.C.C.C.C.",
"C.C.3.<.<.<.<.o.D - : & ; & ; & & & & & O O % % & % % + O & 7.8.& ;.<.<.<.<.C.C.",
"C.C.>.:.-.-.-.I p : % & & & & & ; & & & * O O O O % & & % % 7.8.% &.-.-.:.<.3.C.",
"C.C.>.-.o.+.o.S % % & & & & & * & & & + o O O & & & % o X % > 8.& o.-.o.-.<.3.C.",
"C.C.3.>.>.>.&.v : % : & & & & & & & & + O * & O o X . . o & : 8.& :.>.:.<.<.C.C.",
"C.C.C.3.C.<.E < : & : : & & & & & & & & % O X . . . . o % & > 8.& ,.3.3.3.C.C.C.",
"C.C.C.C.C.3.x 8.7.& : : & & & & * & & ; * % + o o o O % & & > 8.& 3.C.C.C.C.C.C.",
"C.C.C.C.C.E > 8.8.& & > : & & ; & & & & & & & % % % & & ; & > 8.% C.C.C.C.C.C.C.",
"C.C.C.C.C.6 8.8.8.> % & : ; & & & & & & & ; & & & & & & & ; 7.8.5 C.C.C.C.C.C.C.",
"C.C.C.C.C.a 8.8.8.8.& O ; & & & & & ; & ; & & ; & & & & & : 8.8.a C.C.C.C.C.C.C.",
"C.C.C.C.C.;.x & & & % % & & & ; & & & & & & & % & & & * & > 8.8.j C.C.C.C.C.C.C.",
"C.C.C.C.C.C.3.C.3.&.z = % & & & & ; ; & & & & & & ; & & & 7.8.> #.C.C.C.C.C.C.C.",
"C.C.C.C.C.C.C.C.C.2./ p ; & & & & & & & & ; & & & & & & : 7.8.c C.C.C.C.C.C.C.C.",
"C.C.C.C.C.C.C.C.C.>.O.z @ & & & & : : : & & & & & ; & : 7.8.1 E 3.C.C.C.C.C.C.C.",
"C.C.C.C.C.C.C.<.>.>.:.#.d = * % & > 7.7.7.> & & & & & > 7.7.b ;.C.C.C.C.C.C.C.C.",
"C.C.C.C.C.C.C.>.@.:.>.>.~ a = % O * & & > 7.> : & & > 8.7.d #.C.C.C.C.C.C.C.C.C.",
"<.<.<.3.<.<.<.:.@.@.>.<.o.D a + O o O O % : 7.> : , 8.7.a H -.<.3.C.C.C.C.C.C.C.",
"-.-.:.:.:.:.@.@.o.o.@.-.@.X.L f 5 % + o o O % > 7.> 6 s G } o.-.<.C.C.C.C.C.C.C.",
"o.o.o.o.O.O.O.o.o.o.o.o.o.o.X.( l p $ + o o o @ 9 s i G J } X.o.-.<.C.,.<.C.C.C.",
"o.o.o.o.X. .| X.o.o.o.o.X. .| | G   u # o O X # i Z J J J { } } X.o.+.+.X.-.<.-.",
"o.o.o.o.X.| { | o.o.o.O. .} J J J J J J J J J J J J J J J J J { { { { { { | +.+.",
"o.o.o.O.| | { | O.o.o.O.| J J J J J J J J J J J J J J J J J J J J J { { { } X.X."
};
