/* XPM */
static char *result[] = {
/* columns rows colors chars-per-pixel */
"40 40 130 2 ",
"   c #320303",
".  c #450505",
"X  c #4C0505",
"o  c #550505",
"O  c #5C0505",
"+  c #590F05",
"@  c #55050B",
"#  c #5B030C",
"$  c #4A0819",
"%  c #640404",
"&  c #680606",
"*  c #600806",
"=  c #62050A",
"-  c #6A060B",
";  c #720304",
":  c #7B0303",
">  c #74050B",
",  c #630613",
"<  c #620916",
"1  c #6A0810",
"2  c #650718",
"3  c #6A0618",
"4  c #600B1D",
"5  c #6A081A",
"6  c #740612",
"7  c #720819",
"8  c #681512",
"9  c #5F290D",
"0  c #632609",
"q  c #6D3A0B",
"w  c #430B28",
"e  c #530D22",
"r  c #5C0D24",
"t  c #510D2F",
"y  c #5D0E2B",
"u  c #481726",
"i  c #57102B",
"p  c #420E33",
"a  c #4C143D",
"s  c #551133",
"d  c #610B22",
"f  c #661337",
"g  c #65133B",
"h  c #552D3E",
"j  c #72462B",
"k  c #68423C",
"l  c #3F1755",
"z  c #451547",
"x  c #4E1643",
"c  c #431449",
"v  c #4D164C",
"b  c #571744",
"n  c #5D1745",
"m  c #571845",
"M  c #531B4C",
"N  c #401651",
"B  c #4B1B53",
"V  c #43195D",
"C  c #481C5F",
"Z  c #5D1B54",
"A  c #531D5A",
"S  c #5E1F5E",
"D  c #631C53",
"F  c #6B1B51",
"G  c #4F225F",
"H  c #5E2F53",
"J  c #672348",
"K  c #693E4E",
"L  c #773C5A",
"P  c #471B60",
"I  c #4B1D62",
"U  c #631F60",
"Y  c #4F2065",
"T  c #522266",
"R  c #5E2164",
"E  c #512A60",
"W  c #542369",
"Q  c #5B266D",
"!  c #59376A",
"~  c #5E2570",
"^  c #5F2871",
"/  c #642060",
"(  c #67236B",
")  c #6A246C",
"_  c #71306C",
"`  c #622672",
"'  c #6C2673",
"]  c #632874",
"[  c #682977",
"{  c #6C297B",
"}  c #712C77",
"|  c #702778",
" . c #722A7E",
".. c #79494F",
"X. c #7F5F58",
"o. c #704D6A",
"O. c #830102",
"+. c #8C0000",
"@. c #89450E",
"#. c #844922",
"$. c #845D32",
"%. c #9A732A",
"&. c #966731",
"*. c #A07021",
"=. c #AC7F38",
"-. c #864E4E",
";. c #815D58",
":. c #937043",
">. c #8A6462",
",. c #AA8123",
"<. c #B48936",
"1. c #B79131",
"2. c #C18F17",
"3. c #C8951F",
"4. c #D49A19",
"5. c #DEA31B",
"6. c #EDB31D",
"7. c #C89127",
"8. c #CB9A28",
"9. c #EEB623",
"0. c #E6B12D",
"q. c #FFC11F",
"w. c #A38040",
"e. c #AF8B57",
"r. c #C39C53",
"t. c #C3A053",
"y. c #E2B542",
"u. c #D2B369",
"i. c #EFC75E",
"p. c #742A81",
/* pixels */
"p.p.p.p.p.p. .[ ^ Q Q Q I P V V l l V E ;.:...W Q Q ^ [ p.{ ^ ^ [ p.p.p.p.p.p.p.",
"p.p.p.p.p.p.{ [ ^ ~ Q Q Y P V V P P V X.y.i.t...Q Q ^ [ { { ] ^ [  .p.p.p.p.p.p.",
"p.p.p.p.{ { [ [ [ [ [ ` ~ T I P C I ! e.8.:.u.>.W ] [ [ [ [ [ [  .p.p.p.p.p.p.p.",
"p.p.p.p.{ ] ^ [ { p.p.p.] Q T I C E o.e.7.<.0.&.H _ { [ ^ ] { p.p.p.p.p.p.p.p.p.",
"p.p.p.p.p.[ ] { p.p.{ [ [ ] R Y B k ,.9.q.q.q.6.3.-.} { ] [ { p.p.p.p.p.p.p.p.p.",
"p.p.p.p.p.{ { { p.{ [ ] [ { ` I h %.1.2.5.5.5.5.4.%.L { { p.p.p.p.p.p.p.p.p.p.p.",
"p.p.p.p.p.p.p.p.p.{ ] ^ [ p.] B u $.<.q 0 0 0 0 0 q j _ p.p.p.p.p.p.p.p.p.p.p.p.",
"p.p.p.p.p.p.p.p.p.p.{ [ {  .S e 8 #.@.O & & & & & + 9 J [ p.p.p.p.p.p.p.p.p.p.p.",
"p.p.p.p.p.p.p.p.p.p.p.p. .) i & & * O & & & & & & & & > F | p.p.p.p.p.p.p.p.p.p.",
"p.p.p.p.p.p.p.p.p.p.p.p.) f = & & & & & & & & & & & ; O.6 F | p.p.p.p.p.p.p.p.p.",
"p.p.p.p.p.p.p.p.p.p.p.{ n ; & & & & & * & & & & & & & : +.6 F  .p.p.p.p.p.p.p.p.",
"p.p.p.p.p.p.p.p.p.p.p.U 2 & & & & & & & & & & & & & & ; O.+.7 ) p.p.p.p.p.p.p.p.",
"p.p.p.p.p.p.p.p.p.p.' y & & & & & & & & & * & & & & & & ; +.O.g | p.p.p.p.p.p.p.",
"p.p.p.p.p.p.p.p.p.p.D > & & & & & & & & & & & & & & & & - +.+.> (  .p.p.p.p.p.p.",
"p.p.p.p.p.p.p.p.p.' 5 : & & & & * & & & & & & & & & & & & O.+.+.D p.p.p.p.p.p.p.",
"p.p.p.p.p.p.p.p.p.n : O = & & & & & & & & & & & & & & & & ; +.+.d p.p.p.p.p.p.p.",
"p.p.p.p.p.p.p.p.D # % o o o & & & & & & & & & & & & & & & - O.+.%  .p.p.p.p.p.p.",
"p.p.p.p.p.p.p.{ , O.% % * O & % & & & & & & & & * & & & & & : +.O.A p.p.p.p.p.p.",
"p.p.p.p.p.p.p.[ o % O o O O % O O # & & & & & & & & & & & & - +.+.a p.p.p.p.p.p.",
"p.p.p.{ { { { ^ O : ; ; : ; ; ; = * & & & & & & & & & & & & - +.+.y { { {  .p.p.",
"p.p.{ ] ` ] ^ W % +.: ; ; - & % & & & & & & & & & & & & & & & O.+.d ] ^ ] { p.p.",
"p.{ [ ^ ^ Q Q T $ % ; o X . . o & & & & & & & & & & & & & & ; O.+.% ( ^ ] |  .p.",
"p.p.{ [ { [ ] ] e o   . . . + & & & & & & & & * & & & & * & & : +.% [ [ ' { p.p.",
"p.p.p.p.{ p.p.{ t ; . X O = % & & & & & & & & & & & & & & & ; : +.%  .p. .p.p.p.",
"p.p.p.p.p.p.p.p.z : * & & & & & & & & * & & & & & & & & & & ; : +.&  .p.p.p.p.p.",
"p.p.p.p.p.p.p.p.R ; & & & & & & & & & & - & & & & & & & & & ; O.+.%  .p.p.p.p.p.",
"p.p.p.p.p.p.p.p. .@ & & - & & & & & & & & & & * & & & & & & - +.+.d p.p.p.p.p.p.",
"p.p.p.p.p.p.p.p.p.r & & * & & & & & & & & & & & * & & & & ; - +.+.y p.p.p.p.p.p.",
"p.p.p.p.p.p.p.p. .d ; & & & & & & & & & & & & & & & & & & ; O.+.+.x p.p.p.p.p.p.",
"p.p.p.p.p.p.p.p. .d : & & & & & & & & & & & & & & & & & & : O.+.; ( p.p.p.p.p.p.",
"p.p.p.p.p.p.p.p. .y O.& & & & & & * & & & & & & * & & & - O.+.+.d p.p.p.p.p.p.p.",
"p.p.p.p.p.p.p.p. .m : & & & & & & & & & & & & & & & & & ; +.+.O.S p.p.p.p.p.p.p.",
"p.p.p.p.p.p.p.{ [ W ; : & - & & & & & & & & % & & & & ; O.+.+.y  .p.p.p.p.p.p.p.",
"p.p.p.p.p.p.p.[ ] ] s 1 ; * & & & & & & & & & & & & - O.+.+.7 ( p.p.p.p.p.p.p.p.",
"{ { { { p.[ { ^ Q ^ ` m e < & & & & & & & & & & ; - : +.+.5 Z { {  .p.p.p.p.p.p.",
"^ ] ] ] ^ ] ^ Q Q ^ ] Q E M 4 ; & & & % & & & ; ; : +.O.5 v W ] { p.p.p.p.p.p.p.",
"~ Q Q Q Q Q Q Q Q Q Q Q Q W M 4 - ; ; ; ; : ; : : O.: 2 z P W Q ] { { { p.{ p.p.",
"Q Q Q Q Q Y W W Q Q Q Q W T G G s 2 ; ; ; ; & ; ; < t c V C I I W ~ ~ ~ ~ ~ [ [ ",
"Q Q Q Q W Y l Y Q Q Q Q Y C C V c w # % % % % O # p l V V V V V P P P P P W ~ ~ ",
"Q Q Q Q W Y V Y Q Q Q W Y V V V V V V V V V V l C V V V V V V V V V V V V Y W ~ "
};
