/* XPM */
static char *result[] = {
/* columns rows colors chars-per-pixel */
"40 40 141 2 ",
"   c #3E0E32",
".  c #470404",
"X  c #4D0505",
"o  c #540505",
"O  c #5C0505",
"+  c #520904",
"@  c #580806",
"#  c #451105",
"$  c #640505",
"%  c #680606",
"&  c #6B060C",
"*  c #67080D",
"=  c #730404",
"-  c #7C0304",
";  c #73050B",
":  c #7B040B",
">  c #670716",
",  c #6C0613",
"<  c #640914",
"1  c #6C0914",
"2  c #64091B",
"3  c #6D0A1C",
"4  c #710710",
"5  c #7B0612",
"6  c #700813",
"7  c #74091B",
"8  c #7C091B",
"9  c #73390B",
"0  c #612119",
"q  c #440B29",
"w  c #490C29",
"e  c #560E2B",
"r  c #5B0F2C",
"t  c #58102D",
"y  c #400F33",
"u  c #451031",
"i  c #4B1231",
"p  c #501132",
"a  c #571238",
"s  c #5F153E",
"d  c #640C24",
"f  c #6C0D23",
"g  c #6E0E2B",
"h  c #730C23",
"j  c #730E2A",
"k  c #60102F",
"l  c #641234",
"z  c #6F1236",
"x  c #64133A",
"c  c #6A143B",
"v  c #711134",
"b  c #751239",
"n  c #6F430C",
"m  c #794E37",
"M  c #71433E",
"N  c #79403F",
"B  c #3C1346",
"V  c #36144C",
"C  c #39154A",
"Z  c #45174B",
"A  c #421A4A",
"S  c #561745",
"D  c #5D1542",
"F  c #571845",
"G  c #5B1F45",
"H  c #5C194D",
"J  c #451953",
"K  c #4D1C54",
"L  c #43195D",
"P  c #4C1E5E",
"I  c #5D1C51",
"U  c #641640",
"Y  c #6C1541",
"T  c #661B4F",
"R  c #6D194B",
"E  c #661C54",
"W  c #6A1C55",
"Q  c #6F1D5A",
"!  c #5F3449",
"~  c #552954",
"^  c #52315E",
"/  c #6E2D4F",
"(  c #471B60",
")  c #4B1E63",
"_  c #531E67",
"`  c #681F60",
"'  c #4E2164",
"]  c #512167",
"[  c #5A2364",
"{  c #552369",
"}  c #5B266D",
"|  c #533167",
" . c #5E2570",
".. c #5F2871",
"X. c #642266",
"o. c #6D2165",
"O. c #63236C",
"+. c #6B246C",
"@. c #702D6D",
"#. c #6B316A",
"$. c #753569",
"%. c #622673",
"&. c #6C2673",
"*. c #632874",
"=. c #682977",
"-. c #6B2779",
";. c #6D297B",
":. c #712A7E",
">. c #6E4242",
",. c #830203",
"<. c #8C0000",
"1. c #850309",
"2. c #800611",
"3. c #905A19",
"4. c #946014",
"5. c #AB7713",
"6. c #AD7E14",
"7. c #B47914",
"8. c #83553D",
"9. c #A7783A",
"0. c #8B5349",
"q. c #844D51",
"w. c #9D6448",
"e. c #9D775A",
"r. c #A27849",
"t. c #83696F",
"y. c #BC8215",
"u. c #B38126",
"i. c #B5812B",
"p. c #D5A01A",
"a. c #E7AE1C",
"s. c #E8AF1C",
"d. c #ECB11C",
"f. c #F0B51D",
"g. c #C99421",
"h. c #D19D31",
"j. c #D7A127",
"k. c #CEA03C",
"l. c #ECB121",
"z. c #AC9370",
"x. c #742A81",
/* pixels */
"x.x.x.x.x.x.:.=.} } } { ' ( L L L ( L ' { } } } } } } =.x.;.*.} =.x.x.x.x.x.x.x.",
"x.x.x.x.x.x.;.=.......} ] ( L L V ] $.z.! } } } } } } =.:.=.*.*.*.x.x.x.x.x.x.x.",
"x.x.x.x.;.;.=.=.=.=.=.=.} ] ) ( L | z.k.>.=.*.} *.*.=.=.=.=.=.=.x.x.x.x.x.x.x.x.",
"x.x.x.x.;.*...=.;.x.x.;.*.} ] ) L | i.j.M ;.=.} *.=.:.=...=.=.x.x.x.x.x.x.x.x.x.",
"x.x.x.x.x.=.*.;.x.x.;.;.=.=.{ ~ >.i.k.a.u.w.q.#.=.;.x.;.*.=.;.x.x.x.x.x.x.x.x.x.",
"x.x.x.x.x.;.;.;.x.;.=...=.;.[ m g.s.a.a.d.p.u.0.$.:.x.;.;.;.x.x.x.x.x.x.x.x.x.x.",
"x.x.x.x.x.x.x.x.x.;.*...=.+.G 3.u.y.y.5.y.y.7.4.N $.x.x.x.x.x.x.x.x.x.x.x.x.x.x.",
"x.x.x.x.x.x.x.x.x.x.;.=.+.x O o # 9 n # . . X + 0 / x.x.x.x.x.x.x.x.x.x.x.x.x.x.",
"x.x.x.x.x.x.x.x.x.x.x.;.W ; = % % O @ $ % % % % = g O.x.x.x.x.x.x.x.x.x.x.x.x.x.",
"x.x.x.x.x.x.x.x.x.x.:.W 3 - % % % $ $ $ % % % % % 4 v &.x.x.x.x.x.x.x.x.x.x.x.x.",
"x.x.x.x.x.x.x.x.x.x.Q h - % % % % % $ % % % % % % % 6 c :.:.x.x.x.x.x.x.x.x.x.x.",
"x.x.x.x.x.x.x.x.x.&.b 1.= % % % % % $ % % % % % % % = 7 E :.x.x.x.x.x.x.x.x.x.x.",
"x.x.x.x.x.x.x.x.:.R 7 ,.= % % % % % % % % % % % % % % - 7 o.:.:.x.x.x.x.x.x.x.x.",
"x.x.x.x.x.x.x.x.&.j - - % % % % $ % % % % % % % % % % = ,.z o.:.x.x.x.x.x.x.x.x.",
"x.x.x.x.x.x.x.x.E 8 ,.- % % % % % % % % % % % % % % % % - <.v +.x.x.x.x.x.x.x.x.",
"x.x.x.x.x.x.x.x.l : - % % % % % % * $ % % % % % % % % % - <.,.R =.x.x.x.x.x.x.x.",
"x.x.x.x.x.x.x.O.7 ,.= % % % % % % % % % % % % % % % % % % <.<.g Q x.x.x.x.x.x.x.",
"x.x.x.x.x.x.x.F : - = % % % % % % % % % % % % % % % % % % ,.<.: R x.x.x.x.x.x.x.",
"x.x.x.x.x.x.:.t 1.,.= % % % % % % % $ * % % % % = = % % % = ,.,.v +.x.x.x.x.x.x.",
"x.x.;.;.;.;.=.d ,.- % % % % % % % % % % % % = - - % % $ % % ,.<.7 E ;.;.;.x.x.x.",
"x.x.=.=.*.*.*.< ,.,.% * % % % % % % % % % % - - % $ O $ % % - <.- l %.*.%.;.x.x.",
"x.x.=...} O.} * ,.= % % * $ % % % % % % % - = o . o O % % % % - ,.f [ } ..;.:.x.",
"x.x.;.;.=.=.=.= ,.= % % % $ % $ % % % % % $ . @ $ O $ % % % % = ,.5 F =.=.;.x.x.",
"x.x.x.x.:.:.:.= ,.= % % % % % % % % % $ @ + X X o O % % % % % - <.,.h ;.:.x.x.x.",
"x.x.x.x.x.x.x.1 ,.= % % % % % % % % * $ $ $ O $ $ $ % % % O % ,.<.<.2.H x.x.x.x.",
"x.x.x.x.x.x.x.3 ,.= % % % % % % % % % % % % $ % $ % % % % $ = <.<.<.1.f x.x.x.x.",
"x.x.x.x.x.x.x.d : = % % % % % % % % % % % % % % % % % % % $ ,.,.1.5 7 x x.x.x.x.",
"x.x.x.x.x.x.x.D 5 - % % % % % % % % % % % $ % % % % % % % o & h z Y E  .x.x.x.x.",
"x.x.x.x.x.x.x.} 7 = % % % % % % % % % % % $ $ $ % % % % % o w +.x.x.x.x.x.x.x.x.",
"x.x.x.x.x.x.x.:.x 5 = % % % % * % $ % % % % % % % % % % % - W :.x.x.x.x.x.x.x.x.",
"x.x.x.x.x.x.x.x.X.h = % % % % % % % % % % % % % % % % = - 2 o.:.x.x.x.x.x.x.x.x.",
"x.x.x.x.x.x.x.x.;.U < % % % % % % $ % % % % % % % % % % = I &.x.x.x.x.x.x.x.x.x.",
"x.x.x.x.x.x.x.;.=.X.x & % % % % % % % % % % % % % % = ; e _ -.x.x.x.x.x.x.x.x.x.",
"x.x.x.x.x.x.x.=...*.E d = % % % % % % % % % % % % = ; t Z _ -.x.x.x.x.x.x.x.x.x.",
";.;.;.;.=.;.;.*.} %.O./ f & = % % % % % % % % % % 1 l J L ) %.;.:.x.x.x.x.x.x.x.",
"%.*.*.*.%.%.%...} ....} I d 1 * % % % % % = % 6 3 a J L L ) } *.-.x.x.x.x.x.x.x.",
"} } } } } | } } } } } }  .{ C t < & ; = : ; < i K ) L L L L { } *.;.x.x.x.x.x.x.",
"..[ } } } ] ] { } } } } { ] ' ] ' Z u w   V P ' ' L L L L L ) ] _ _  .%. ._ =.=.",
"} } } } ] ) ( ' } } } { ' ' L L V B   q   V L ( L L L L L L L L ) ( ( ) ( _  . .",
"} } } } { ) ( ' } } } } ' L L L L L L L L L ( V L L L L L L L L ( ( L V L ) {  ."
};
