/* XPM */
static char *result[] = {
/* columns rows colors chars-per-pixel */
"40 40 147 2 ",
"   c #450505",
".  c #4C0404",
"X  c #4C060C",
"o  c #550505",
"O  c #5C0505",
"+  c #58040C",
"@  c #4C0917",
"#  c #4B0A1C",
"$  c #5D0A17",
"%  c #640505",
"&  c #690606",
"*  c #640B06",
"=  c #680806",
"-  c #65060A",
";  c #68070B",
":  c #63080E",
">  c #6A090A",
",  c #730404",
"<  c #7B0303",
"1  c #73050C",
"2  c #7C040A",
"3  c #671707",
"4  c #671C08",
"5  c #630711",
"6  c #6F0716",
"7  c #650812",
"8  c #6B0914",
"9  c #620819",
"0  c #760611",
"q  c #7A0715",
"w  c #730A1E",
"e  c #601610",
"r  c #6B2909",
"t  c #73350A",
"y  c #703A0F",
"u  c #4A0F2C",
"i  c #500C23",
"p  c #5B0D24",
"a  c #550E2E",
"s  c #5B0E2D",
"d  c #5A112F",
"f  c #4D0F34",
"g  c #4B1031",
"h  c #4C123F",
"j  c #551236",
"k  c #5C1334",
"l  c #53143D",
"z  c #5C143E",
"x  c #640E26",
"c  c #6C0D26",
"v  c #600D28",
"b  c #720D27",
"n  c #710E29",
"m  c #6A1135",
"M  c #68143B",
"N  c #631A38",
"B  c #672221",
"V  c #663829",
"C  c #77420E",
"Z  c #744A3C",
"A  c #3D1653",
"S  c #3F1959",
"D  c #4C1644",
"F  c #43164B",
"G  c #4C194B",
"H  c #511340",
"J  c #551945",
"K  c #5E1845",
"L  c #581A4F",
"P  c #431752",
"I  c #431956",
"U  c #4B1951",
"Y  c #43195D",
"T  c #4B1C5B",
"R  c #531A53",
"E  c #5A1D57",
"W  c #5E1E5B",
"Q  c #651847",
"!  c #661D56",
"~  c #641E5A",
"^  c #6B1D5B",
"/  c #5C3740",
"(  c #48265B",
")  c #4D2C5A",
"_  c #55215D",
"`  c #5B205D",
"'  c #5C2C5F",
"]  c #5F3059",
"[  c #6C394F",
"{  c #471B60",
"}  c #4B1D62",
"|  c #641F61",
" . c #4F2065",
".. c #512167",
"X. c #582665",
"o. c #592962",
"O. c #542369",
"+. c #5B266D",
"@. c #5E2570",
"#. c #5F2871",
"$. c #632264",
"%. c #682063",
"&. c #6A2F63",
"*. c #64246C",
"=. c #693066",
"-. c #622672",
";. c #6A2673",
":. c #632874",
">. c #682977",
",. c #6C297B",
"<. c #712A7F",
"1. c #724642",
"2. c #7D4945",
"3. c #840203",
"4. c #8B0101",
"5. c #88550F",
"6. c #976811",
"7. c #9C6E28",
"8. c #9E702B",
"9. c #976837",
"0. c #996D32",
"q. c #9D693C",
"w. c #9E7B32",
"e. c #A67721",
"r. c #AF7A36",
"t. c #85664C",
"y. c #946343",
"u. c #9C714B",
"i. c #85625C",
"p. c #936F51",
"a. c #9C7752",
"s. c #C7941A",
"d. c #D49E19",
"f. c #F2B71F",
"g. c #C89429",
"h. c #CB9929",
"j. c #DDA423",
"k. c #D4A22E",
"l. c #D0A23E",
"z. c #E8AD24",
"x. c #EEB322",
"c. c #F5B921",
"v. c #E8B535",
"b. c #C69D4A",
"n. c #E6BB57",
"m. c #F9C745",
"M. c #742A81",
/* pixels */
"M.M.M.M.M.M.<.>.+.+.+.+. .Y Y Y Y ) t.w.Z o.#.+.+.+.+.>.M.,.:.+.>.<.M.M.M.M.M.M.",
"M.M.M.M.M.M.,.>.-.+.+.+...{ Y Y ( a.v.m.n.u.o.+.+.+.#.>.,.,.:.:.,.<.M.M.M.M.M.M.",
"M.M.M.M.,.,.>.>.>.>.>.>.+...} Y i.l.7./ p.b.y.o.+.:.>.>.>.>.>.>.<.M.M.M.M.M.M.M.",
"M.M.M.M.,.:.#.>.<.<.<.,.>.+...S u.k.8.Z 9.h.r.] :.,.<.>.#.:.,.<.M.M.M.M.M.M.M.M.",
"M.M.M.M.M.>.:.,.M.<.<.,.>.:.X.1.g.c.x.z.x.f.j.q.=.,.M.,.:.,.,.M.M.M.M.M.M.M.M.M.",
"M.M.M.M.M.,.,.,.<.,.>.:.>.>.[ 7.s.d.d.d.d.d.s.e.2.>.M.<.,.,.M.M.M.M.M.M.M.M.M.M.",
"M.M.M.M.M.M.M.M.<.<.:.-.>.=.V y t t t t t 5.6.C B ! ,.M.M.M.M.M.M.M.M.M.M.M.M.M.",
"M.M.M.M.M.M.M.M.<.<.,.>.*.N e * O * * * * 4 r 3 > b ^ <.M.M.M.M.M.M.M.M.M.M.M.M.",
"M.M.M.M.M.M.M.M.M.M.M.;.M 8 * & & & & & & * * * = 2 b ^ <.M.M.M.M.M.M.M.M.M.M.M.",
"M.M.M.M.M.M.M.M.M.M.M.Q 6 1 & & & & & & & & & & = , 2 n %.M.M.M.M.M.M.M.M.M.M.M.",
"M.M.M.M.M.M.M.M.M.M.| w , & & & & & & & & & - & = , < 2 m ,.M.M.M.M.M.M.M.M.M.M.",
"M.M.M.M.M.M.M.M.M.,.m 2 , & & & & - & & & & & & = & & 3.q ^ M.M.M.M.M.M.M.M.M.M.",
"M.M.M.M.M.M.M.M.M.! 0 < & & & - & & & & & & & & & & = , 3.n %.M.M.M.M.M.M.M.M.M.",
"M.M.M.M.M.M.M.M.,.c 3., & & & & * & & & = & & & & & & , 3.3.n ^ M.M.M.M.M.M.M.M.",
"M.M.M.M.M.M.M.M.~ 2 < & & & & & & & & & & & & & & & & & < 4.3.w | M.M.M.M.M.M.M.",
"M.M.M.M.M.M.M.M.v 4.< & & & - & & - & & & - & & & = & = , 4.4.4.l M.M.M.M.M.M.M.",
"M.M.M.M.M.M.M.;.1 3., & & & & & & - % & & & & & * & & & & 3.4.3.g M.M.M.M.M.M.M.",
"M.M.M.M.M.M.M.W 4.3.& & & & & & & & & * & & & & & & & & & < 4.3.# M.M.M.M.M.M.M.",
"M.M.M.M.M.M.M.H 4.< & & & & & & & & & & = & - & & & & & & < 4.4.X M.M.M.M.M.M.M.",
"M.M.M.,.,.,.>.@ 4., & , , & & & & & & & = % % & & & & & & , 3.3.u ,.,.,.,.,.M.M.",
"M.M.,.:.-.-.#.+ 4.& < < , , & % & & & & & & & & & & O & & , 3.3.G #.-.-.@.M.M.M.",
"M.,.>.#.#.#.+.% 4.< 3.O o   o O - & * & & & & & & & o - & & 4.4.F +.+.#.@.-.M.M.",
"M.M.,.,.;.;.;.% 4.& .   . O O & % & & & & & - % & & O O = & 3.4.U ;.>.@.>.M.M.M.",
"M.M.M.M.<.<.<.% & . O o o o o - & & & & & & % O & , O - & , 4.4.U M.M.M.M.M.M.M.",
"M.M.M.M.M.M.M.O < & & O o O - & & & & & & % % % < 3.% % & , 4.4.E M.M.M.M.M.M.M.",
"M.M.M.M.M.M.M.i 2 = & & = = & & & & & & & % % & 3.3.% % & , 3.< O.M.M.M.M.M.M.M.",
"M.M.M.M.M.M.M.j 4.& & & & & & = % & & % O % < 3.4.3.& % & 2 4.9 M.M.M.M.M.M.M.M.",
"M.M.M.M.M.M.<.W 3.& & & & & & & & & & & & < 4.4.4.4.< % & 3.4.j M.M.M.M.M.M.M.M.",
"M.M.M.M.M.M.M.;.1 , & & & = - & & & & & O & 4.4.4.4.3.% , 4.4.l M.M.M.M.M.M.M.M.",
"M.M.M.M.M.M.M.M.z 1 = & = % % & & & & & - O & 4.4.4.3.& 3.4.4.l M.M.M.M.M.M.M.M.",
"M.M.M.M.M.M.M.M.*.7 & & & & & & & & & & & o . . O O % % < , : E M.M.M.M.M.M.M.M.",
"M.M.M.M.M.M.M.M.,.K : & & & & - & & & & & % o . . . O , , O @ ;.M.M.M.M.M.M.M.M.",
"M.M.M.M.M.M.M.,.>.-.d > = = & & & & & & & - - - O O , 3.2 p L M.M.M.M.M.M.M.M.M.",
"M.M.M.M.M.M.M.>.#.:.$.x * = & & & & & & & & & & = , 3.1 a R | M.M.M.M.M.M.M.M.M.",
",.,.,.,.,.,.>.:.+.:.>.~ k 7 & & & & & & & & & & , < 6 l P } @.M.M.M.M.M.M.M.M.M.",
":.#.:.;.#.:.:.+.+.+.+.:.` k $ - & & & & & , & , 8 s H I { } O.-.>.M.M.M.M.M.M.M.",
"+.+.+.+.+.+.+.+.+.+.+.+.+._ J j p $ + & & - 7 p l U S { S { ..@.@.M.M.M.M.M.M.M.",
"+.+.+.+.O. ...O.+.+.+.O.X. .T T U D j a a g D U T Y S { { { } } O.O.O.@.@.O.M.-.",
"+.+.+.+.O. .Y  .+.+.+.+...{ Y { { S P F F A S Y { Y Y S S { Y { { { { { Y O.@.@.",
"+.+.+.+.O. .Y  .+.+.+.+. .Y Y Y { S Y Y Y Y Y S Y Y Y Y { S S Y Y Y Y Y Y } @.@."
};
