/* XPM */
static char *result[] = {
/* columns rows colors chars-per-pixel */
"40 40 103 2 ",
"   c #340404",
".  c #380404",
"X  c #3B0A04",
"o  c #3D0A23",
"O  c #390E28",
"+  c #35103D",
"@  c #3B143D",
"#  c #440404",
"$  c #4C0404",
"%  c #4F0D05",
"&  c #530404",
"*  c #5C0404",
"=  c #5E060F",
"-  c #511406",
";  c #4C0812",
":  c #4B0818",
">  c #530616",
",  c #590613",
"<  c #550A1B",
"1  c #58091C",
"2  c #630404",
"3  c #680606",
"4  c #640A02",
"5  c #650409",
"6  c #6D0309",
"7  c #740404",
"8  c #7B0303",
"9  c #71050C",
"0  c #641504",
"q  c #670714",
"w  c #661C1C",
"e  c #470E25",
"r  c #4B0D27",
"t  c #4D0F2F",
"y  c #540C23",
"u  c #550F2A",
"i  c #5C0D2A",
"p  c #440E30",
"a  c #4E143B",
"s  c #511133",
"d  c #581135",
"f  c #55143E",
"g  c #600E2A",
"h  c #512232",
"j  c #654719",
"k  c #774A35",
"l  c #784F36",
"z  c #321345",
"x  c #491540",
"c  c #421D4C",
"v  c #4A1B4C",
"b  c #561747",
"n  c #5E1744",
"m  c #5A1848",
"M  c #491E56",
"N  c #43195E",
"B  c #4D1E58",
"V  c #5A1B52",
"C  c #5B1D5A",
"Z  c #542947",
"A  c #57215F",
"S  c #57295C",
"D  c #5B315A",
"F  c #471B60",
"G  c #4B1E63",
"H  c #531F69",
"J  c #4E2065",
"K  c #512166",
"L  c #5C2265",
"P  c #552369",
"I  c #5B266D",
"U  c #5E2670",
"Y  c #5F2871",
"T  c #612165",
"R  c #64236B",
"E  c #632673",
"W  c #692675",
"Q  c #632874",
"!  c #682977",
"~  c #6B2779",
"^  c #6C297B",
"/  c #712A7F",
"(  c #830202",
")  c #8D0000",
"_  c #835C24",
"`  c #835736",
"'  c #875739",
"]  c #90622E",
"[  c #9F7E28",
"{  c #A87B23",
"}  c #8F7549",
"|  c #977C6A",
" . c #C59418",
".. c #CD9A19",
"X. c #E7AF1C",
"o. c #ECB21D",
"O. c #F6BB25",
"+. c #FFC11F",
"@. c #A38443",
"#. c #B3964A",
"$. c #B99755",
"%. c #742A81",
"&. c #998281",
/* pixels */
"%.%.%.%.%.%./ ! Y I I P J F N N N N N F K D @.S I I I ~ / ^ Q Y ! / / %.%.%.%.%.",
"%.%.%.%.%.%.^ ! Y Y I I K F N N N N N G P | +.` I Y Y ! ^ ~ Q Y ^ / %.%.%.%.%.%.",
"%.%.%.%./ ~ ! ! ! ! ! Q U K G F F F J P Y &.+.` Y ! ! ! ! ! ! ~ / %.%.%.%.%.%.%.",
"%.%.%.%.^ Q Y ! ^ %.%.^ Q I K F N J P M ' $.+.{ ` Z ! ! Y Q ~ / %.%.%.%.%.%.%.%.",
"%.%.%.%.^ ~ ! ~ %.%.^ ^ ! Q I G F G l o.+.+.+.+.+.+.] ~ Q ! ^ %.%.%.%.%.%.%.%.%.",
"%.%.%.%.%.^ ^ ^ %.^ ! Q ! ~ E G c _  .o.o.o.O.#.o.o...l ~ ^ %.%.%.%.%.%.%.%.%.%.",
"%.%.%.%.%.%.%.%.%.^ Q Y ~ %.! H j - % % % % } +.X * 3 0 h %.%.%.%.%.%.%.%.%.%.%.",
"%.%.%.%.%.%.%.%.%.%.^ ! ~ %.~ t * 3 3 3 3 3 w [ * 3 8 ) 8 T %.%.%.%.%.%.%.%.%.%.",
"%.%.%.%.%.%.%.%.%.%.%.%.%.%.C 2 3 3 4 5 3 3 4 5 3 4 3 ( ) q ^ %.%.%.%.%.%.%.%.%.",
"%.%.%.%.%.%.%.%.%.%.%.%.^ ! = 3 3 3 3 5 3 3 3 3 3 3 3 9 ) ) m %.%.%.%.%.%.%.%.%.",
"%.%.%.%.%.%.%.%.%.%.%.%.^ u 3 3 3 3 3 3 3 3 3 3 3 3 3 3 7 ) 7 W %.%.%.%.%.%.%.%.",
"%.%.%.%.%.%.%.%.%.%.%.%.m 8 3 3 3 3 3 3 3 3 3 3 3 3 3 3 6 ( ) u %.%.%.%.%.%.%.%.",
"%.%.%.%.%.%.%.%.%.%.%.R 9 6 3 3 3 3 3 3 3 3 5 3 3 3 3 3 3 7 ( 7 R %.%.%.%.%.%.%.",
"%.%.%.%.%.%.%.%.%.%.^ 9 8 3 3 3 3 5 3 3 3 3 3 3 3 5 4 3 3 7 ( ) i / %.%.%.%.%.%.",
"%.%.%.%.%.%.%.%.%.^ g ) 7 3 3 3 3 3 3 3 3 3 3 3 3 3 3 3 3 3 7 ) 8 W %.%.%.%.%.%.",
"%.%.%.%.%.%.%.%.%.n ( ( 3 3 3 3 3 0 5 3 3 3 3 3 3 3 3 3 3 3 7 ) ) g %.%.%.%.%.%.",
"%.%.%.%.%.%.%.%.L ( ) 8 3 3 3 3 3 3 3 3 3 3 3 3 3 3 3 3 3 3 3 ( ) 6 ! %.%.%.%.%.",
"%.%.%.%.%.%./ ^ f ) ) 8 3 3 3 3 3 3 3 5 & * & 3 3 3 3 3 3 3 3 ( ) ) V %.%.%.%.%.",
"%.%.%.%.%.%./ I 3 ) ) 6 3 3 * & & * * 2 8 7 3 3 3 3 3 3 3 3 3 7 ) ) < / %./ %.%.",
"%./ / / ^ ^ ~ v 8 8 8 3 3 4 * 7 3 3 7 7 2 * & & & $ . 3 3 3 3 7 ( ) 1 ~ / / / %.",
"%.%.^ Q ! Q Y : ( * ( 3 3 3 2 # # $ * 2 2 3 ( 8 7 7 3 3 3 3 3 3 ) ) 3 Q W ~ / %.",
"%./ W E I I M 8 7 $ ( 3 3 3 2 8 8 7 8 8 7 3 3 * * 3 3 3 3 3 3 3 ) ) 3 I R / / %.",
"%.%.^ ~ ! Q < 8 3 * 7 3 3 3 3 3 2 3 2 # # # . # 3 3 3 3 3 3 3 3 ) ) 3 W ~ ^ %.%.",
"%.%.%./ / f ( 3 3 2 7 3 3 3 3 $       # # # $ * 3 3 3 5 3 3 3 3 ( ) 3 / / %.%.%.",
"%.%.%.%.%.< ) 7 3 # 6 3 3 3 3 3 5 % % # # # & 3 4 3 3 3 3 3 3 9 ( ) 3 / / %.%.%.",
"%.%.%.%.%.b ( ) 8 # 8 3 3 3 3 3 3 3 3 4 5 3 6 3 3 3 3 3 3 3 3 3 ) ) 3 / %.%.%.%.",
"%.%.%.%.%.%.n & # 3 7 3 3 3 3 3 3 3 3 5 5 3 0 3 3 3 3 3 3 3 3 7 ) ) y %.%.%.%.%.",
"%.%.%.%.%.%.%./ %.x 7 3 3 3 3 3 3 5 3 3 3 3 3 3 3 3 3 3 3 3 3 7 ) ) y %.%.%.%.%.",
"%.%.%.%.%.%.%.%.%.! 5 3 3 3 3 3 3 3 3 3 3 3 3 3 3 4 3 3 3 3 3 ( ) ) V %.%.%.%.%.",
"%.%.%.%.%.%.%.%.%.%.t 3 3 3 3 3 3 3 3 3 3 3 5 3 3 5 3 3 3 3 3 ) ) 6 ! %.%.%.%.%.",
"%.%.%.%.%.%.%.%.%.^ L 3 3 3 3 3 3 3 3 3 3 3 3 3 3 3 3 3 3 3 ( ) ) i %.%.%.%.%.%.",
"%.%.%.%.%.%.%.%.%.^ Y e 3 3 3 7 3 3 3 3 3 3 3 3 3 3 3 3 3 7 ( ) 8 C %.%.%.%.%.%.",
"%.%.%.%.%.%./ ^ ! ! ! S * 3 7 ( ) 6 3 3 3 3 3 3 3 3 5 3 3 6 ) ) 1 %.%.%.%.%.%.%.",
"%.%.%.%.%.%./ ^ Y ! ^ ^ a * 3 3 7 ( 3 3 3 3 3 3 3 3 3 3 7 ) ) ) V %.%.%.%.%.%.%.",
"^ ~ / ^ ^ ^ ! Y Y Y ! ! Q O % * 3 7 3 3 3 3 4 3 3 3 3 3 8 ) ) d / %.%.%.%.%.%.%.",
"Q Q Q Q Q Q Y Y I Y Y Q I I u $ $ % 3 3 3 3 3 3 3 3 7 8 ) ) , Q ~ %.%.%.%.%.%.%.",
"I I I I I I I P I I I I I I P v ; * * 3 3 3 4 7 8 7 ) ) 8 p K I ! ~ ~ %.~ %.%.%.",
"I I I I P K K P I I I I P K J J J @ r & ( ( ) ( ) ) * > z N G H K I U U H U Q ! ",
"I I I I P J F K I I I I K F N N N N N N z z o o O + N N N N N N F F F F G H I U ",
"I I I I P F N K P I I I J N N N N N N N N N N N N N N N N N N N N N N N F H H U "
};
