/* XPM */
static char *result[] = {
/* columns rows colors chars-per-pixel */
"40 40 164 2 ",
"   c #5C0614",
".  c #560817",
"X  c #57091E",
"o  c #5C0A1B",
"O  c #670606",
"+  c #690606",
"@  c #670A07",
"#  c #6C0C06",
"$  c #65050C",
"%  c #6D060B",
"&  c #680A0C",
"*  c #730405",
"=  c #7C0304",
"-  c #73050C",
";  c #7D040B",
":  c #671107",
">  c #6F1E08",
",  c #600611",
"<  c #6D0613",
"1  c #640811",
"2  c #6B0915",
"3  c #6C0B1E",
"4  c #740612",
"5  c #7B0613",
"6  c #770815",
"7  c #750819",
"8  c #780919",
"9  c #6A1711",
"0  c #6C230B",
"q  c #68280A",
"w  c #702E09",
"e  c #753A0C",
"r  c #773C19",
"t  c #560C23",
"y  c #590C2A",
"u  c #5E102E",
"i  c #4F0E31",
"p  c #4F123B",
"a  c #4E1236",
"s  c #591131",
"d  c #511233",
"f  c #640C24",
"g  c #6C0C22",
"h  c #640E2A",
"j  c #6D0F2D",
"k  c #710F2E",
"l  c #710C25",
"z  c #671C2D",
"x  c #6F1132",
"c  c #63153C",
"v  c #6A143C",
"b  c #701031",
"n  c #70153F",
"m  c #7F480D",
"M  c #78472F",
"N  c #7F5A34",
"B  c #4C1343",
"V  c #46144D",
"C  c #4A154C",
"Z  c #4D184B",
"A  c #451446",
"S  c #581841",
"D  c #5D194E",
"F  c #421753",
"G  c #431857",
"H  c #431A5D",
"J  c #4C1D5C",
"K  c #5D1C50",
"L  c #5F1E58",
"P  c #651644",
"I  c #6A1745",
"U  c #6A1748",
"Y  c #661A4A",
"T  c #6C1A4E",
"R  c #631B53",
"E  c #6A1D5A",
"W  c #6A1C54",
"Q  c #4B245E",
"!  c #552A5C",
"~  c #5F3759",
"^  c #5F3A5E",
"/  c #61384D",
"(  c #6B215E",
")  c #6C3157",
"_  c #62335E",
"`  c #713A57",
"'  c #471B60",
"]  c #4A1D62",
"[  c #6D1F60",
"{  c #4F2065",
"}  c #512167",
"|  c #552B60",
" . c #5E2B67",
".. c #542369",
"X. c #5B266D",
"o. c #5B286B",
"O. c #582363",
"+. c #5E2570",
"@. c #5F2871",
"#. c #6C2164",
"$. c #61256B",
"%. c #6D236C",
"&. c #623064",
"*. c #73326F",
"=. c #70396F",
"-. c #632773",
";. c #6E2776",
":. c #632874",
">. c #692977",
",. c #6F2779",
"<. c #6C297B",
"1. c #702777",
"2. c #712778",
"3. c #712A7E",
"4. c #753075",
"5. c #6C444C",
"6. c #68445B",
"7. c #774250",
"8. c #775154",
"9. c #7D5051",
"0. c #79555E",
"q. c #734061",
"w. c #810204",
"e. c #820309",
"r. c #8A550F",
"t. c #96671D",
"y. c #976C1E",
"u. c #A67715",
"i. c #AA7A16",
"p. c #B07F16",
"a. c #804E36",
"s. c #A5703D",
"d. c #B1793A",
"f. c #8B5959",
"g. c #935D53",
"h. c #85485A",
"j. c #976142",
"k. c #90684F",
"l. c #987455",
"z. c #A67F56",
"x. c #804E62",
"c. c #B78716",
"v. c #BE8D17",
"b. c #B08033",
"n. c #B58638",
"m. c #CC9626",
"M. c #D29B26",
"N. c #C08E30",
"B. c #CB9A3A",
"V. c #DDA624",
"C. c #D7A331",
"Z. c #D1A23F",
"A. c #E5AD24",
"S. c #E8AF25",
"D. c #A9804D",
"F. c #BB9448",
"G. c #A88056",
"H. c #B78F55",
"J. c #BB945A",
"K. c #C19640",
"L. c #C69942",
"P. c #D4A440",
"I. c #CAA766",
"U. c #742A81",
/* pixels */
"U.U.U.U.U.U.3.>.@.X.X.X.{ H H H H H H | ~ / _  .o.o.@.>.U.<.@.@.>.3.U.U.U.U.U.U.",
"U.U.U.U.U.U.<.>.@.@.X.X.{ ' H H H Q 6.l.F.K.D.9.&.o.@.>.<.<.:.@.<.3.U.U.U.U.U.U.",
"U.U.U.U.U.<.>.>.>.>.>.>.X.} ] ' Q ^ G.P.b.H.I.G.q.-.>.>.>.>.>.>.3.U.U.U.U.U.U.U.",
"U.U.U.U.<.:.@.>.<.U.U.<.:.X...' Q 0.B.n.7.f.J.J.x.4.<.>.@.@.<.U.U.U.U.U.U.U.U.U.",
"U.U.U.U.<.>.:.<.U.3.<.<.>.-...] ! k.C.m.j.s.B.Z.g.*.3.<.:.:.U.U.U.U.U.U.U.U.U.U.",
"U.U.U.U.U.<.<.U.U.3.>.:.>.<.-.! 5.n.S.S.M.M.V.V.d.h.4.<.U.<.U.U.U.U.U.U.U.U.U.U.",
"U.U.U.U.U.U.U.U.U.<.-.-.<.<.4.8.N y.u.u.u.c.v.c.t.M ) <.U.U.U.U.U.U.U.U.U.U.U.U.",
"U.U.U.U.U.U.U.U.U.<.<.>.<.;.` N r q q q q e r.m q 0 z #.<.U.U.U.U.U.U.U.U.U.U.U.",
"U.U.U.U.U.U.U.U.U.U.U.U.3.( z 9 # O + + + : 0 0 # * % v %.3.U.U.U.U.U.U.U.U.U.U.",
"U.U.U.U.U.U.U.U.U.U.U.,.%.c $ O O + O O + @ # O % # * 3 U %.U.U.U.U.U.U.U.U.U.U.",
"U.U.U.U.U.U.U.U.U.U.U.%.v 2 + O O O + + + + + + + + + * l T 2.U.U.U.U.U.U.U.U.U.",
"U.U.U.U.U.U.U.U.U.U.<.T 3 + + + O + O + + O O + + + + + - k [ 3.U.U.U.U.U.U.U.U.",
"U.U.U.U.U.U.U.U.U.U.#.b 4 % O + + + + O + O + + + + + + * 6 v 1.3.U.U.U.U.U.U.U.",
"U.U.U.U.U.U.U.U.U.2.n - * % + O + O + + + O + O + + + + * = 7 W 2.U.U.U.U.U.U.U.",
"U.U.U.U.U.U.U.<.P g ; w.* + + + + O O + O + + + + + + + # = ; l #.3.U.U.U.U.U.U.",
"U.U.U.U.U.U.U.[ g - w.= * + + + + + O + + + O O + + + + + * = 6 T 3.U.U.U.U.U.U.",
"U.U.U.U.U.U.U.R < = = * + + + O O O + + + + O + + O + O + # = e.b %.U.U.U.U.U.U.",
"U.U.U.U.U.U.U.d O w.= % + O + + + + + O O + + O + + + O + + * w.8 W U.U.U.U.U.U.",
"U.U.U.U.U.U.U.. + = = % + + O + O + + O O + + + O O + + + + * = ; I U.U.U.U.U.U.",
"U.U.<.<.<.<.<.t + = * + + + + + + O + + + + O O + + + O + + # = w.u <.<.<.3.U.U.",
"U.U.<.:.@.:.@.p $ = * + O + + O + O + O + + + + O + + + + + + * w.. -.-.-.<.U.U.",
"U.U.>.@.+.+.X.B - = * + + + O + + + O + + O O + + + O O + + + % = , X.-.-.<.3.U.",
"U.U.<.>.:.>.>.D 4 * + + + O + O O O + + + + O O + O O + + + + % = $ >.>.>.<.3.U.",
"U.U.U.U.U.U.U.E 7 = * + + O + + + + + O O + + + + + + + O O + * w.+ 3.3.3.U.U.U.",
"U.U.U.U.U.U.U.#.g * # + + + O + + + O + O + + O O @ O + + O + + = * 3.U.U.U.U.U.",
"U.U.U.U.U.U.U.%.g * + + + + + O O O + + + + O + + + + + O + + * = $ U.U.U.U.U.U.",
"U.U.U.U.U.U.U.%.u % * + + + + + + + + O + O O + + + O O + + + * = o U.U.U.U.U.U.",
"U.U.U.U.U.U.U.>.u % + + + O O + + O + O + + + + O + + + + + + * ; u U.U.U.U.U.U.",
"U.U.U.U.U.U.U.;.P % % + O + + O @ + O + + + O O + + + + + + = w.; U U.U.U.U.U.U.",
"U.U.U.U.U.U.U.3.W < + + + + O + + + + O O + + + O O + + + + = w.7 [ U.U.U.U.U.U.",
"U.U.U.U.U.U.U.U.#.h % + + + O + + + + O + O + O + + + @ + * = w.j %.U.U.U.U.U.U.",
"U.U.U.U.U.U.U.3.%.c % % + + + + O O + + + O + + + O + + % = w.5 P U.U.U.U.U.U.U.",
"U.U.U.U.U.U.U.U.-.! h + + + + O O + + O + + + O + + + + % = ; b [ U.U.U.U.U.U.U.",
"U.U.U.U.U.U.U.>.$.$.Y g % + + + + + O + + O O + + O + % = ; j [ 2.U.U.U.U.U.U.U.",
"<.<.<.<.<.<.<.@.X.-.$.Y h $ O + + O + + + + O + + % * * 4 h R <.,.U.U.U.U.U.U.U.",
"@.:.:.:.@.:.@.@.@.X.-. .D h $ + + + + + O + + + + * w.- y C ..-.<.U.U.U.U.U.U.U.",
"X.X.@.X.X.X.o.X.X.X.X.X.O.p f 1 $ O + + + + * # = = ; f p H } +.:.,.U.U.U.<.U.U.",
"X.X.o.X...{ } ..o.X.X.X.o.Q Z d t , % * + * * * - < y A G H ] ] ..+.+.....+.:.-.",
"X.X.X.X...{ H { o.X.X.o.} ' H F A i X $ $ $ . X y p V G H H H ' ' ' ' ' ' ..+.+.",
"X.X.X.o...{ H { ..X.X.X.{ H H H G F F V V V V F F G H H H H H H H H H H H ] +.+."
};
