/* XPM */
static char *result[] = {
/* columns rows colors chars-per-pixel */
"40 40 249 2 ",
"   c #5B276D",
".  c #58266B",
"X  c #4E2065",
"o  c #441A5F",
"O  c #42195D",
"+  c #451A5F",
"@  c #4F2065",
"#  c #59266B",
"$  c #56246A",
"%  c #4D1F64",
"&  c #441A5E",
"*  c #441C5B",
"=  c #481F57",
"-  c #4A2255",
";  c #481C61",
":  c #431A5E",
">  c #4E2651",
",  c #5E3741",
"<  c #6A4435",
"1  c #573047",
"2  c #744F2B",
"3  c #896615",
"4  c #41195C",
"5  c #3E1B59",
"6  c #3C1D55",
"7  c #5B3A41",
"8  c #856128",
"9  c #A57E15",
"0  c #8F6024",
"q  c #713838",
"w  c #5B1947",
"e  c #401A5B",
"r  c #3A1E53",
"t  c #33214B",
"y  c #5C443D",
"u  c #95722D",
"i  c #C09421",
"p  c #AC6F23",
"a  c #913E27",
"s  c #7D1A29",
"d  c #401A5A",
"f  c #36204E",
"g  c #2C2543",
"h  c #5E4D3B",
"j  c #A48134",
"k  c #D8A82E",
"l  c #C37D27",
"z  c #A6431D",
"x  c #911816",
"c  c #361F4F",
"v  c #635241",
"b  c #AE8C42",
"n  c #E7B844",
"m  c #C78539",
"M  c #9E422B",
"N  c #7F0F21",
"B  c #675747",
"V  c #B89751",
"C  c #F5C859",
"Z  c #CC8E4B",
"A  c #964139",
"S  c #6D072B",
"D  c #685849",
"F  c #BB9A55",
"G  c #F9CC5E",
"H  c #D2924D",
"J  c #9D4537",
"K  c #760D26",
"L  c #761424",
"P  c #761C22",
"I  c #761D22",
"U  c #781E22",
"Y  c #7F2221",
"T  c #862620",
"R  c #882820",
"E  c #D7954A",
"W  c #AA4B2F",
"Q  c #88181A",
"!  c #892917",
"~  c #893A13",
"^  c #893E12",
"/  c #8D4012",
"(  c #9E4A10",
")  c #AF530E",
"_  c #B3560E",
"`  c #D99444",
"'  c #B34E28",
"]  c #961F12",
"[  c #96350D",
"{  c #974B08",
"}  c #975007",
"|  c #9C5407",
" . c #B26204",
".. c #C87101",
"X. c #CD7501",
"o. c #E6B843",
"O. c #CE8935",
"+. c #AE4922",
"@. c #961D12",
"#. c #962910",
"$. c #96380D",
"%. c #9A3D0C",
"&. c #A65008",
"*. c #B56703",
"=. c #A64F08",
"-. c #C47D26",
";. c #AA451B",
":. c #961B13",
">. c #962012",
",. c #972610",
"<. c #9D5905",
"1. c #5D4C39",
"2. c #A17E30",
"3. c #D4A429",
"4. c #BD7925",
"5. c #9F3F1F",
"6. c #88141B",
"7. c #893913",
"8. c #B87628",
"9. c #923927",
"0. c #760B26",
"q. c #761B22",
"w. c #5B4A38",
"e. c #9C7A2E",
"r. c #CD9F26",
"t. c #B07128",
"y. c #8A352A",
"u. c #534435",
"i. c #8A6B26",
"p. c #B2891B",
"a. c #A3651D",
"s. c #8E341F",
"d. c #7F1020",
"f. c #4B3D32",
"g. c #775C1E",
"h. c #987310",
"j. c #965812",
"k. c #933314",
"l. c #493C31",
"z. c #72581C",
"x. c #916E0D",
"c. c #8E5311",
"v. c #8B2F17",
"b. c #8D1A1D",
"n. c #9E3222",
"m. c #AF4928",
"M. c #B44F2A",
"N. c #895014",
"B. c #7E291E",
"V. c #801929",
"C. c #A95137",
"Z. c #D18944",
"A. c #DB9748",
"S. c #895418",
"D. c #7E3227",
"F. c #771933",
"G. c #832A37",
"H. c #B67046",
"J. c #E9B655",
"K. c #9A6C1E",
"L. c #A76A35",
"P. c #B16946",
"I. c #CC9045",
"U. c #E1B044",
"Y. c #AC8424",
"T. c #D0A242",
"R. c #EBB859",
"E. c #DAAA33",
"W. c #A7821E",
"Q. c #C49C35",
"!. c #DAB046",
"~. c #D9AF43",
"^. c #D7AA37",
"/. c #D5A52C",
"(. c #9A7614",
"). c #B08A25",
"_. c #B48D26",
"`. c #C29727",
"'. c #D0A129",
"]. c #463932",
"[. c #6B5320",
"{. c #876712",
"}. c #8E6D14",
"|. c #AD851E",
" X c #CC9E27",
".X c #393138",
"XX c #4E3F2E",
"oX c #5D4A27",
"OX c #695327",
"+X c #997728",
"@X c #C89B29",
"#X c #2D283E",
"$X c #312B3C",
"%X c #342D3B",
"&X c #443939",
"*X c #846932",
"=X c #C4982B",
"-X c #30233E",
";X c #371F3C",
":X c #3D1C3B",
">X c #47263A",
",X c #6F4D35",
"<X c #977431",
"1X c #481637",
"2X c #550F33",
"3X c #561534",
"4X c #592D36",
"5X c #5C4639",
"6X c #68052E",
"7X c #6A062D",
"8X c #6C072C",
"9X c #6B062C",
"0X c #69062D",
"qX c #670A2D",
"wX c #511633",
"eX c #3A223A",
"rX c #35253B",
"tX c #740A27",
"yX c #7D0E22",
"uX c #780C25",
"iX c #6F082A",
"pX c #7C1121",
"aX c #701825",
"sX c #631E29",
"dX c #602029",
"fX c #730A27",
"gX c #8D1618",
"hX c #85121D",
"jX c #740B27",
"kX c #8E1A17",
"lX c #8C1B17",
"zX c #8B1B17",
"xX c #591032",
"cX c #65162A",
"vX c #721C22",
"bX c #6C1926",
"nX c #5F132E",
"mX c #761E21",
"MX c #3E1D3A",
"NX c #431F37",
"BX c #492233",
"VX c #462135",
"CX c #411E38",
"ZX c #4A2233",
"AX c #421B5C",
"SX c #382051",
"DX c #2F2446",
"FX c #4C2063",
"GX c #42205A",
/* pixels */
"  . X o O O O O O O O O O O O O O O O O O O O O O O O O O O O O O O O O + @ #   ",
". $ % & * = - - - = * O O O O O O O O O O O O O O O O O O * = - - - = * & % $ . ",
"X % ; : > , < < < , > O O O O O O O O O O O O O O O O O O > , < < < , > : ; % X ",
"o & : O 1 2 3 3 3 2 1 O O O O O O O O O O O O O O O O O O 1 2 3 3 3 2 1 O : & o ",
"O 4 5 6 7 8 9 9 9 0 q w w w w w w w w w w w w w w w w w w q 0 9 9 9 8 7 6 5 4 O ",
"O e r t y u i i i p a s s s s s s s s s s s s s s s s s s a p i i i u y t r e O ",
"O d f g h j k k k l z x x x x x x x x x x x x x x x x x x z l k k k j h g c d O ",
"O d f g v b n n n m M N N N N N N N N N N N N N N N N N N M m n n n b v g c d O ",
"O d f g B V C C C Z A S S S S S S S S S S S S S S S S S S A Z C C C V B g c d O ",
"O d f g D F G G G H J K L P I I U Y T R R T Y U I I P L K J H G G G F D g c d O ",
"O d f g D F G G G E W Q ! ~ ^ ^ / ( ) _ _ ) ( / ^ ^ ~ ! Q W E G G G F D g c d O ",
"O d f g B V C C C ` ' ] [ { } } |  ...X.X... .| } } { [ ] ' ` C C C V B g c d O ",
"O d f g v b o.o.o.O.+.@.#.[ $.$.%.&. .*.*. .=.%.$.$.[ #.@.+.O.o.o.o.b v g c d O ",
"O d f g h j k k k -.;.:.@.] >.>.,.%.| <.<.| %.,.>.>.] @.:.;.-.k k k j h g c d O ",
"O d f g 1.2.3.3.3.4.5.6.6.6.6.6.Q ! 7.^ ^ 7.! Q 6.6.6.6.6.5.4.3.3.3.2.1.g c d O ",
"O d f g 1.2.3.3.3.8.9.0.0.0.0.0.K L q.I I q.L K 0.0.0.0.0.9.8.3.3.3.2.1.g c d O ",
"O d f g w.e.r.r.r.t.y.S S S S S S S S S S S S S S S S S S y.t.r.r.r.e.w.g c d O ",
"O d f g u.i.p.p.p.a.s.d.d.d.d.d.d.d.d.d.d.d.d.d.d.d.d.d.d.s.a.p.p.p.i.u.g c d O ",
"O d f g f.g.h.h.h.j.k.x x x x x x x x x x x x x x x x x x k.j.h.h.h.g.f.g c d O ",
"O d f g l.z.x.x.x.c.v.6.6.6.6.6.b.n.m.M.M.m.n.b.6.6.6.6.6.v.c.x.x.x.z.l.g c d O ",
"O d f g l.z.x.x.x.N.B.0.0.0.0.0.V.C.Z.A.A.Z.C.V.0.0.0.0.0.B.N.x.x.x.z.l.g c d O ",
"O d f g l.z.x.x.x.S.D.F.F.F.F.F.G.H.J.C C J.H.G.F.F.F.F.F.D.S.x.x.x.z.l.g c d O ",
"O d f g l.z.x.x.x.K.L.P.P.P.P.P.H.I.U.o.o.U.I.H.P.P.P.P.P.L.K.x.x.x.z.l.g c d O ",
"O d f g l.z.x.x.x.Y.T.R.R.R.R.R.J.U.E.k k E.U.J.R.R.R.R.R.T.Y.x.x.x.z.l.g c d O ",
"O d f g l.z.x.x.x.W.Q.!.!.!.!.!.~.^./.3.3./.^.~.!.!.!.!.!.Q.W.x.x.x.z.l.g c d O ",
"O d f g l.z.x.x.x.(.W.).).).).)._.`.'.3.3.'.`._.).).).).).W.(.x.x.x.z.l.g c d O ",
"O d f g ].[.{.{.{.{.{.{.{.{.{.{.}.|. X3.3. X|.}.{.{.{.{.{.{.{.{.{.{.[.].g c d O ",
"O d f g .XXXoXoXoXoXoXoXoXoXoXoXOX+X@X3.3.@X+XOXoXoXoXoXoXoXoXoXoXoXXX.Xg c d O ",
"O d f g #X$X%X%X%X%X%X%X%X%X%X%X&X*X=X3.3.=X*X&X%X%X%X%X%X%X%X%X%X%X$X#Xg c d O ",
"O d f g -X;X:X:X:X:X:X:X:X:X:X:X>X,X<X2.2.<X,X>X:X:X:X:X:X:X:X:X:X:X;X-Xg c d O ",
"O d f g ;X1X2X2X2X2X2X2X2X2X2X2X3X4X5X1.1.5X4X3X2X2X2X2X2X2X2X2X2X2X1X;Xg c d O ",
"O d f g :X2X6X7X8X9X0X6X6X6X0X9XqXwXeXrXrXeXwXqX9X0X6X6X6X0X9X8X7X6X2X:Xg c d O ",
"O d f g :X2X7XtXyXuXiX6X6X6XiXuXpXaXsXdXdXsXaXpXuXiX6X6X6XiXuXyXfX7X2X:Xg c d O ",
"O d f g :X2X8XyXgXhXjX6X6X6XjXhXx kXlXzXzXlXkXx hXjX6X6X6XjXhXgXyX8X2X:Xg c d O ",
"O d f g ;X1XxXcXvXbXnX2X2X2XnXbXmXmXmXmXmXmXmXmXbXnX2X2X2XnXbXvXcXxX1X;Xg c d O ",
"O d f g -X;XMXNXBXVXCX:X:X:XCXVXZXZXZXZXZXZXZXZXVXCX:X:X:XCXVXBXNXMX;X-Xg c d O ",
"+ AXSXDXg g g g g g g g g g g g g g g g g g g g g g g g g g g g g g g g DXSXAX+ ",
"@ FXGXSXc c c c c c c c c c c c c c c c c c c c c c c c c c c c c c c c SXGXFX@ ",
"# $ FXAXd d d d d d d d d d d d d d d d d d d d d d d d d d d d d d d d AXFX$ # ",
"  . X o O O O O O O O O O O O O O O O O O O O O O O O O O O O O O O O O + @ #   "
};
