/* XPM */
static char *result[] = {
/* columns rows colors chars-per-pixel */
"40 40 97 2 ",
"   c #4D2712",
".  c #4E2812",
"X  c #512B15",
"o  c #512E18",
"O  c #57311A",
"+  c #5A351C",
"@  c #5C381F",
"#  c #613B1F",
"$  c #5E3B22",
"%  c #5D3529",
"&  c #5E3F29",
"*  c #5F3430",
"=  c #613E24",
"-  c #603F28",
";  c #643938",
":  c #683E3A",
">  c #5F422C",
",  c #5F4430",
"<  c #634126",
"1  c #64442A",
"2  c #69462A",
"3  c #67482E",
"4  c #6A4B2E",
"5  c #624430",
"6  c #694332",
"7  c #644A34",
"8  c #6C4E31",
"9  c #6C403A",
"0  c #654E3A",
"q  c #684E39",
"w  c #704F31",
"e  c #704F38",
"r  c #6E5134",
"t  c #66513E",
"y  c #6B533D",
"u  c #715436",
"i  c #735738",
"p  c #755A3B",
"a  c #795E3E",
"s  c #7B603F",
"d  c #481F57",
"f  c #52255E",
"g  c #653443",
"h  c #66344A",
"j  c #6C374F",
"k  c #6A3C4D",
"l  c #633356",
"z  c #6B315D",
"x  c #5D2A64",
"c  c #5E276F",
"v  c #5C286B",
"b  c #672C6D",
"n  c #682E6B",
"m  c #652974",
"M  c #6A2B74",
"N  c #6F297D",
"B  c #712C76",
"V  c #722B7D",
"C  c #6F4543",
"Z  c #704942",
"A  c #675340",
"S  c #6A5542",
"D  c #6C5A46",
"F  c #6D5B48",
"G  c #715C45",
"H  c #7A5F40",
"J  c #715E48",
"K  c #7D6241",
"L  c #74624D",
"P  c #79624D",
"I  c #776650",
"U  c #786650",
"Y  c #7B6A55",
"T  c #7E6E58",
"R  c #806645",
"E  c #826847",
"W  c #81674A",
"Q  c #856B4B",
"!  c #896E4F",
"~  c #8B714F",
"^  c #806E59",
"/  c #8D7454",
"(  c #84735E",
")  c #907757",
"_  c #907857",
"`  c #907758",
"'  c #937A5A",
"]  c #847663",
"[  c #897460",
"{  c #857865",
"}  c #8A7964",
"|  c #8A7C6B",
" . c #967F60",
".. c #998264",
"X. c #8F8271",
"o. c #928574",
"O. c #742A81",
/* pixels */
"O.O.O.O.O.O.V m m v x x f d 4 w w w w 2 2 w w w w w x n B B b m M O.O.O.O.O.O.O.",
"O.O.O.O.O.O.V b j k p p p = ! ~ ~ ! Q w w ~ ! Q ! Q # 2 2 4 g l n V O.O.O.O.O.O.",
"O.O.O.O.V z g Z R E ) ) ) # ) ' ' ) ) w w ) ) ) ) Q # p H H e 8 : g z O.O.O.O.O.",
"O.O.O.O.j i 8 u ) .... .' = p K K K R w w K K s K K # E ! ~ ~ H 2 2 6 h O.O.O.O.",
"O.O.V C K Q u p ! a ! R K # a R a p s w 4 a s s s a < 2 2 a H Q i 2 i 4 ; N O.O.",
"O.V : R / / p 2 p R E R K = a a K a R w w a K K K s 2 u P R H H 8 i K G 4 * O.O.",
"O.j e E Q K 4 2 K Q R R R 2 a R K K R u w s K K K s 2 K K H K H r i K K a 3 h O.",
"V : E K a a 4 u R R R R K 2 a R K s s w w R K K K s 2 K H K H H r i K K K H % V ",
"2 s ! s p p u u R R R R R 2 a H s s R u w s K K K s 4 s s s s s u u s s s U r + ",
"= Q s p p p w u R K R R R 2 a a s s R w u R R K K s 2 s s s K s u s s s s s Q O ",
"= p p p p p u i K K a w R 4 a H s K R w p R K K R s 4 s w a s K u u s s s s s X ",
"O # = # = = = < 2 2 e ` 2 4 a a s s R u p R s R K s 4 2 [ 8 < < = > # # = # @ X ",
"O H Y ^ ^ ^ ( ( ( ( ( T } 4 p a s s K w p R s s s p 4 } Y ( ] T T Y T T T I L X ",
"+ Z G J P P L Y Y Y Y Y ^ J e p s a K i u R s R a u P Y Y U I L J J L J J F r X ",
"O & & - > < < 1 1 1 q P 1 2 p a a a K w p R K K R a < > P q 1 & > < > > > > @ X ",
"O = = = = < $ < 2 2 1 $ 4 w a H a K K i p E K K K a 4 2 + < 1 1 1 2 < < < < > X ",
"X u u p p p 4 4 s s p 8 8 r p p a p R u p R R K K a 4 a w a H H p r p p i i r X ",
"o r p p u p 4 r a a s s 8 8 a s a a a e p E K K K a 4 H a a a a i u i i i i r X ",
"o r u u p u r u s a p p 3 r p s a a H u p E a R K s 2 K p s s s u r p u i i r X ",
"X r p u p u r u a a s p p 8 p s a p a u i E K H s s w a K a a p i r u u r i r X ",
"X r p u i i r r a p p p p 4 p p p p p 8 i H a H s s 7 K p a p K i r u u u u r o ",
"X r u u i i r r a p p p p 8 p p u q i i S i i u s s r s s p s p r r u u r r r . ",
"X r u u i u r r s p y i p 4 p p = G ^ ^ ^ T G = s s r s s p p p r r u r u r 8 . ",
"X r u p u i r i p i i p u 8 i u = y P 5 5 L y = i s 7 K p p p p r 4 r r y r r . ",
"X r u u p i 8 u p p u p u 4 p p @ 8 J > , a 7 @ i i 4 s s p p p 4 4 u r r r r . ",
". r u u r i r i p u u 4 p 4 p u $ > 1 > , > > $ i i 4 s r i p p 4 4 r r r r 4   ",
". $ < < > < < 1 3 1 4 I 1 4 p p r > $ @ @ $ > r i i 8 4 P 8 2 2 < = > < > @ >   ",
". p L I I I Y Y T T T Y T < r p p p u 4 4 p i p i i < ( Y Y Y I P P L I L L p   ",
". t t p s F L L I L I I I T > r u u i 4 4 p i i r 1 ( I L L P F F F F F F y r   ",
". , 7 3 7 7 7 0 0 t i L t + r i u p p 4 4 i i i i r + 7 L t 7 q 7 7 3 7 3 , >   ",
". O + @ @ @ @ @ $ $ < < $ < i u r i i 3 4 u u u i r < # > @ $ @ @ @ @ @ + @ +   ",
". 4 r 8 8 8 < > r r 8 1 r < r u i r i 3 3 i r u r r > i < u p i 3 3 4 4 4 3 1   ",
". 4 r r r r 1 1 r i i i r > r r u u u 1 > u r u r r > s p s p s 3 1 8 8 3 4 3   ",
". < 1 1 3 4 < < 3 3 3 4 3 @ 1 3 1 , > @ @ 1 1 1 1 1 @ 3 4 8 3 3 > $ > > > > >   ",
". 8 t t t y t A t y i t y t t y A D D , > F F y y t y y t y y D t t r 0 t t 7   ",
". Y ( ] { { { { { { { { X.{ X.X.| X.X.A i X.X.X.X.X.X.( X.T { T { T X.T { T T   ",
". 0 t t t t A A t t D D t F F D F F F , , L F F D F D D D D D t y t t t t 0 ,   ",
"  0 t t t t A A D D A D p F D D F F I , , F F F F D D F D D D t D S t t t 0 0   ",
"  0 0 0 A A D A t D D t D D D D F F L , , F F F F F F F t D D t t A S t t 0 7   ",
"  X o o o o o o o o o o o o o o o o o o o o o o o o o o o o o o o o o o . o .   "
};
