/* XPM */
static char *result[] = {
/* columns rows colors chars-per-pixel */
"40 40 129 2 ",
"   c #2D2A41",
".  c #2D2A42",
"X  c #2F2C44",
"o  c #312E47",
"O  c #322F48",
"+  c #33304B",
"@  c #34324D",
"#  c #35334E",
"$  c #36344F",
"%  c #36354F",
"&  c #33314B",
"*  c #302D45",
"=  c #383551",
"-  c #403D5D",
";  c #434061",
":  c #444164",
">  c #4B4971",
",  c #51517E",
"<  c #555784",
"1  c #585C87",
"2  c #5A6089",
"3  c #4C4F73",
"4  c #3A3A57",
"5  c #504D74",
"6  c #54517A",
"7  c #575480",
"8  c #636297",
"9  c #6E70AF",
"0  c #757BB9",
"q  c #7A84BF",
"w  c #7D8AC3",
"e  c #656D9C",
"r  c #454768",
"t  c #585580",
"y  c #5B5987",
"u  c #6969A1",
"i  c #7678BB",
"p  c #7D84C7",
"a  c #828ECD",
"s  c #8695D1",
"d  c #6B75A6",
"f  c #484A6C",
"g  c #7D83C6",
"h  c #818CCB",
"j  c #8593D0",
"k  c #8594D0",
"l  c #2E2B42",
"z  c #34314D",
"x  c #35324E",
"c  c #7B80C4",
"v  c #7E85C7",
"b  c #808ACA",
"n  c #838FCD",
"m  c #403F61",
"M  c #4F4F7B",
"N  c #535382",
"B  c #403E61",
"V  c #797DC2",
"C  c #7A7EC3",
"Z  c #7B81C5",
"A  c #6B6CA9",
"S  c #7174B5",
"D  c #797CC2",
"F  c #7A7FC4",
"G  c #8089CA",
"H  c #34314C",
"J  c #4E4D78",
"K  c #6869A3",
"L  c #6F70AE",
"P  c #7071B0",
"I  c #7476B8",
"U  c #787BC0",
"Y  c #535381",
"T  c #322F49",
"R  c #47456A",
"E  c #5D5B8C",
"W  c #626194",
"Q  c #646398",
"!  c #6D6EAB",
"~  c #7779BD",
"^  c #7F87C9",
"/  c #8490CE",
"(  c #6A73A5",
")  c #47496C",
"_  c #5B5986",
"`  c #67679E",
"'  c #7375B5",
"]  c #2E2B43",
"[  c #7A7DC3",
"{  c #7C82C6",
"}  c #676CA1",
"|  c #46466A",
" . c #5A5783",
".. c #605F90",
"X. c #33304A",
"o. c #3C3957",
"O. c #63659C",
"+. c #444368",
"@. c #585581",
"#. c #393652",
"$. c #484569",
"%. c #65699E",
"&. c #454569",
"*. c #3A3754",
"=. c #4B486D",
"-. c #5A5885",
";. c #646397",
":. c #6D6EAA",
">. c #7274B4",
",. c #7678BC",
"<. c #6970A3",
"1. c #47486B",
"2. c #595682",
"3. c #5D5B8A",
"4. c #616092",
"5. c #6969A2",
"6. c #62639B",
"7. c #5F5D8E",
"8. c #6868A0",
"9. c #5E5C8C",
"0. c #7375B6",
"q. c #606197",
"w. c #434166",
"e. c #423F60",
"r. c #6868A1",
"t. c #575684",
"y. c #3F3D5E",
"u. c #4D4B72",
"i. c #3B3856",
/* pixels */
"                                                                                ",
"                                                                                ",
"                                                                                ",
"                                                                                ",
"                                                                                ",
"                                                                                ",
"  . X o o o O + @ # $ % % % & *                                                 ",
"  X = - ; ; : > , < 1 2 2 2 3 4                                                 ",
"  o - 5 6 6 7 8 9 0 q w w w e r                                                 ",
"  o ; 6 t t y u i p a s s s d f                                                 ",
"  o ; 6 t t y u i p a s s s d f                                                 ",
"  o ; 6 t t y u i g h j k s d f l o z x x x x x x x z o l                       ",
"  o ; 6 t t y u i c v b n k d f o m M N N N N N N N M B o                       ",
"  o ; 6 t t y u i V C Z b j d f z M A S S S S S S S A M z                       ",
"  o ; 6 t t y u i D D F G j d f H J K L L P I U D D S Y x                       ",
"  o ; 6 t t y u i D D F G j d f T R E W W Q ! ~ D D S Y x                       ",
"  o ; 6 t t y u i D D C ^ / ( ) o ; 6 t t _ ` ' ~ U S Y x ] * O + @ x x z o l   ",
"  o ; 6 t t y u i D D [ { ^ } | o ; 6 t t  ...` ! I S Y x X.o.: > , N N M B o   ",
"  o ; 6 t t y u i D D D [ C O.+.o ; 6 t t @. ._ Q P S Y x #.$.7 8 9 S S A M z   ",
"  o ; 6 t t y u i D D V c g %.&.o ; 6 t t t t t W L S Y x *.=.-.;.:.>.,.S Y x   ",
"  o ; 6 t t y u i D D C v h <.1.o ; 6 t t t t t W L S Y x *.=.2.3.4.5.>.S Y x   ",
"  o ; 6 t t y u i D D C ^ / ( ) o ; 6 t t t t t W L S Y x *.=.t t t W L S Y x   ",
"  o ; 6 t t y u i D D [ { ^ } | o ; 6 t t t t t W L S Y x *.=.t t t W L S Y x   ",
"  o ; 6 t t y u i D D D [ C O.+.o ; 6 t t t t t W L S Y x *.=.t t t W L S Y x   ",
"  o ; 6 t t y u i D D D D D 6.+.o ; 6 t t t t t 7.8.K J H *.=.t t t 7.8.K J H   ",
"  o ; 6 t t y u i D D D D D 6.+.o ; 6 t t t t t _ 7.E R T *.=.t t t _ 7.E R T   ",
"  o ; 6 t t _ ` ' ~ U D D D 6.+.o ; 6 t t t t t 2.-.7 : O *.=.t t t 2.-.7 : O   ",
"  o ; 6 t t  ...` ! I D D D 6.+.o ; 6 t t t t t 3.;.8 > + *.=.t t t 3.;.8 > +   ",
"  o ; 6 t t @. ._ Q P D D D 6.+.o ; 6 t t t t t 4.:.9 , @ *.=.t t t 4.:.9 , @   ",
"  o ; 6 t t t t t 7.8.P I U 6.+.o ; 6 t t t t t 7.8.K J H *.=.t t t 7.8.K J H   ",
"  o ; 6 t t t t t _ 7.Q ! ~ 6.+.o ; 6 t t t t t _ 7.E R T *.=.t t t _ 7.E R T   ",
"  o ; 6 t t t t t 2.-.9.u 0.q.w.o ; 6 t t t t t t t 6 e.o *.=.t t t t t 6 e.o   ",
"  o ; 6 t t t t t 3.;.u r.r.t.y.o ; 6 t t t t t t t 6 e.o *.=.t t t t t 6 e.o   ",
"  o ; 6 t t t t t 4.:.0.r.9.u.i.o ; 6 t t t t t t t 6 e.o *.=.t t t t t 6 e.o   ",
"  o ; 6 t t t t t 7.8.:.;.-.=.*.o ; 6 t t t t t t t 6 e.o *.=.t t t t t 6 e.o   ",
"  o ; 6 t t t t t _ 7.4.3.2.=.*.o ; 6 t t t t t t t 6 e.o *.=.t t t t t 6 e.o   ",
"  o - 5 6 6 6 6 6 6 6 6 6 6 $.#.o - 5 6 6 6 6 6 6 6 5 - o #.$.6 6 6 6 6 5 - o   ",
"  X = - e.e.e.e.e.e.e.e.e.e.o.X.X = - e.e.e.e.e.e.e.- = X X.o.e.e.e.e.e.- = X   ",
"  . X o o o o o o o o o o o * ] . X o o o o o o o o o X . ] * o o o o o o X .   ",
"                                                                                "
};
