/* XPM */
static char *result[] = {
/* columns rows colors chars-per-pixel */
"40 40 113 2 ",
"   c #742A81",
".  c #712A7F",
"X  c #672877",
"o  c #5D276F",
"O  c #5B276D",
"+  c #58266B",
"@  c #4E2065",
"#  c #441A5F",
"$  c #42195D",
"%  c #4A1D62",
"&  c #542368",
"*  c #5E276F",
"=  c #682977",
"-  c #722A7F",
";  c #6C297B",
":  c #622873",
">  c #732A80",
",  c #722A80",
"<  c #6F297D",
"1  c #602871",
"2  c #5B266D",
"3  c #512167",
"4  c #471C60",
"5  c #441A5E",
"6  c #43195D",
"7  c #431A5E",
"8  c #4C1E64",
"9  c #56236A",
"0  c #5C276E",
"q  c #5D276E",
"w  c #6B297A",
"e  c #632874",
"r  c #692978",
"t  c #702A7E",
"y  c #652875",
"u  c #5B246E",
"i  c #4B1E63",
"p  c #461B5F",
"a  c #481D61",
"s  c #4D1F64",
"d  c #602672",
"f  c #662876",
"g  c #612872",
"h  c #5F2770",
"j  c #642874",
"k  c #6E297C",
"l  c #6D297C",
"z  c #70297D",
"x  c #522267",
"c  c #491D61",
"v  c #56246A",
"b  c #602771",
"n  c #6A2879",
"m  c #622872",
"M  c #5F2871",
"N  c #6C297A",
"B  c #59236C",
"V  c #4C1D64",
"C  c #451A5F",
"Z  c #4F2065",
"A  c #59266B",
"S  c #602472",
"D  c #4F1E66",
"F  c #662577",
"G  c #531F69",
"H  c #692779",
"J  c #5A236D",
"K  c #612772",
"L  c #5A276D",
"P  c #59266C",
"I  c #5B266E",
"U  c #57256B",
"Y  c #522168",
"T  c #612573",
"R  c #70297E",
"E  c #542369",
"W  c #491C62",
"Q  c #5C2270",
"!  c #6F287E",
"~  c #532368",
"^  c #491D62",
"/  c #461B60",
"(  c #57216C",
")  c #682778",
"_  c #522068",
"`  c #5F2671",
"'  c #481C61",
"]  c #55236A",
"[  c #5C246F",
"{  c #632575",
"}  c #652576",
"|  c #4D1E65",
" . c #501E67",
".. c #511E68",
"X. c #471B61",
"o. c #5B226F",
"O. c #6F287D",
"+. c #632873",
"@. c #5B256E",
"#. c #512067",
"$. c #6D297B",
"%. c #652775",
"&. c #5A266C",
"*. c #552369",
"=. c #502166",
"-. c #642774",
";. c #6D287C",
":. c #552469",
">. c #502066",
",. c #55216A",
"<. c #5A216E",
"1. c #5B216F",
"2. c #471B60",
/* pixels */
"            . X o O O + @ # $ $ $ $ $ % & O O O O O * = - ; : * = -             ",
"        > , < X 1 * * 2 3 4 5 6 $ 7 5 8 9 o 0 O 0 q 1 = < w e 1 r -             ",
"        t w X = = = = y u 3 i p 7 a s 9 d f g 0 h j = X X X = r k >             ",
"        l j 1 = z - - < y 2 x c 5 s v b n < f o m w < X M j N - >               ",
"        < = j w , - < w X j B V C Z A 1 X w X j = < , w j = <                   ",
"        - < l t > < = e = N S D C Z A o 1 e = N < - > t l < -                   ",
"                  l j 1 r - F G 4 3 2 * * 1 r -                                 ",
"                  t w r k > H J 3 u y = = r k >                                 ",
"                  > , - >   ; K 2 y < - - - >                                   ",
"                      > t l X 1 * = -                                           ",
"                      , w j 1 o * = -                                           ",
"                      . X o L P I f .                                           ",
"                      . X o U x Y T R                                           ",
"                      . X o E i W Q !                                           ",
"                      . X o ~ ^ / ( ) < - > t l < -                             ",
"                      . X o ~ ^ C _ ` = < , w j = <                             ",
"              > - . . < y 2 x c 5 s v b n < X 1 j N - >                         ",
"            > k r X X y u 3 i p 7 ' s 9 d X = = = X r k >                       ",
"            - r 1 o o 2 3 4 5 6 $ 7 5 8 9 1 = z w e 1 r -                       ",
"  > t l ; ; n d 9 ~ ~ x i 5 $ $ $ $ $ 4 @ ] [ { S B ] [ { } } F H ; ; ; l t >   ",
"  , w j : : b 9 8 ^ ^ c p 6 $ $ $ $ $ 5 4 % |  .D V % |  .....G J K : : j w ,   ",
"  - r 1 * * I Y W X.X.X.X.X.X.X.X.X.X./ C C C C 5 6 $ $ $ 6 5 4 3 2 * * 1 r -   ",
"  > k r = = f T Q o.o.o.o.o.o.o.o.o.o.( _ Z Z Z i p $ $ $ p i 3 u y = = r k >   ",
"    > - - - . R ! O.O.O.O.O.O.O.O.O.O.) ` A A A x c $ $ $ c x 2 y < - - - >     ",
"                                      < = +.+.+.@.#.c p 6 V B j w ,             ",
"                                      - < $.$.$.%.@.x i 5 D S l t >             ",
"                                                l j 2 3 4 G F                   ",
"                                                t w y u 3 J H                   ",
"                                                > , < y 2 K ;                   ",
"                  - < l t >                     - < w j q +.$.                  ",
"                  < = j w ,                     < = m h 0 +.$.                  ",
"              > - w e 1 = < , >       > , - >   ; : O &.P K ;                   ",
"            > k r X = = X X w t       t w r k > ; : &.*.=.J H                   ",
"            - r 1 j N < X M j l       l j 1 r - ; : P =.4 G F                   ",
"; ; ; ; ; ; w j q 1 X w j q 1 X ; ; ; %.@.9 d n %.@.x i 5 D S l t >             ",
": : : : : : m h 0 o 1 m h 0 o 1 : : : @.#.8 9 b @.#.c p 6 V B j w ,             ",
"O O O O L P P &.O O O O &.P + + + + + x c 5 s v x c $ $ $ c x 2 -.;.O.O.! R . . ",
"O O O O U x =.:.&.O O &.*.=.@ @ @ @ @ i p 7 ' s i p $ $ $ p i >.,.<.1.1.Q T f X ",
"O O O O E i 4 =.P O O P =.4 # # # # # 5 6 $ 7 5 5 6 $ $ $ 6 5 C / 2.X.X.W Y I o ",
"O O O O ~ ^ C Z A O O + @ # $ $ $ $ $ $ $ $ $ $ $ $ $ $ $ $ $ $ $ $ $ $ C Z A O "
};
