/* XPM */
static char *result[] = {
/* columns rows colors chars-per-pixel */
"40 40 200 2 ",
"   c #010101",
".  c #0E0B09",
"X  c #09040B",
"o  c #0D0511",
"O  c #130716",
"+  c #151414",
"@  c #1B1512",
"#  c #1E1816",
"$  c #1D1C1C",
"%  c #241916",
"&  c #231D1C",
"*  c #2E1D19",
"=  c #261816",
"-  c #2B201D",
";  c #33221B",
":  c #3A231C",
">  c #1F1F20",
",  c #250E2C",
"<  c #241B27",
"1  c #2D1736",
"2  c #301D33",
"3  c #341A3A",
"4  c #1F2020",
"5  c #232323",
"6  c #2C2626",
"7  c #282827",
"8  c #27222A",
"9  c #282728",
"0  c #2C2B2B",
"q  c #272827",
"w  c #322A26",
"e  c #322C2B",
"r  c #3B2B26",
"t  c #39312C",
"y  c #37312B",
"u  c #2F2B31",
"i  c #322535",
"p  c #312D33",
"a  c #33233E",
"s  c #362F39",
"d  c #333333",
"f  c #393535",
"g  c #363538",
"h  c #393639",
"j  c #3C3B3C",
"k  c #3A3A37",
"l  c #41271F",
"z  c #45372D",
"x  c #44293F",
"c  c #433E3C",
"v  c #463934",
"b  c #52373E",
"n  c #3F403F",
"m  c #42413F",
"M  c #4B423C",
"N  c #524134",
"B  c #58493D",
"V  c #654E3E",
"C  c #3A1945",
"Z  c #371849",
"A  c #391650",
"S  c #3E1C53",
"D  c #392244",
"F  c #3B2943",
"G  c #3A2149",
"H  c #3E3D4C",
"J  c #3B3A42",
"K  c #441D4C",
"L  c #421D54",
"P  c #431A5D",
"I  c #4B1F5D",
"U  c #4D1C56",
"Y  c #501F5C",
"T  c #442644",
"R  c #422C44",
"E  c #43234C",
"W  c #492D4D",
"Q  c #453149",
"!  c #5B3B47",
"~  c #442351",
"^  c #4C225C",
"/  c #4A2859",
"(  c #542C54",
")  c #55265E",
"_  c #522C5E",
"`  c #5C2E5A",
"'  c #493653",
"]  c #593C5E",
"[  c #543756",
"{  c #623D4A",
"}  c #471B61",
"|  c #4B1E63",
" . c #531F69",
".. c #511F62",
"X. c #4F2065",
"o. c #522265",
"O. c #5A2365",
"+. c #552369",
"@. c #5B266D",
"#. c #5B2B66",
"$. c #593B63",
"%. c #5E2570",
"&. c #5F2871",
"*. c #61256D",
"=. c #642A6D",
"-. c #613269",
";. c #663D6D",
":. c #622673",
">. c #642874",
",. c #692A76",
"<. c #692779",
"1. c #6D297B",
"2. c #712A7F",
"3. c #723677",
"4. c #444243",
"5. c #4B4544",
"6. c #4B4947",
"7. c #44404E",
"8. c #4C4B4B",
"9. c #534A49",
"0. c #53524D",
"q. c #4B4954",
"w. c #454558",
"e. c #584656",
"r. c #595758",
"t. c #634347",
"y. c #63414F",
"u. c #6B5443",
"i. c #745C4A",
"p. c #74574B",
"a. c #694851",
"s. c #714E52",
"d. c #795A53",
"f. c #79624F",
"g. c #796154",
"h. c #5F4165",
"j. c #4F5065",
"k. c #644A67",
"l. c #704063",
"z. c #625F62",
"x. c #645867",
"c. c #6E5D71",
"v. c #695F79",
"b. c #735E78",
"n. c #636263",
"m. c #696568",
"M. c #716E6F",
"N. c #6F6A72",
"B. c #746976",
"V. c #767275",
"C. c #7A7778",
"Z. c #7D7A7C",
"A. c #7C7471",
"S. c #8A6A52",
"D. c #826657",
"F. c #8C725C",
"G. c #97775E",
"H. c #9A7459",
"J. c #845070",
"K. c #967964",
"L. c #847E7E",
"P. c #8F6765",
"I. c #A57E62",
"U. c #A07C70",
"Y. c #9D816B",
"T. c #9D8777",
"R. c #A28369",
"E. c #A9876B",
"W. c #B28B6F",
"Q. c #AD8C70",
"!. c #B18D72",
"~. c #B59174",
"^. c #BC9677",
"/. c #C49D7E",
"(. c #742A81",
"). c #734381",
"_. c #7B6A87",
"`. c #867386",
"'. c #898587",
"]. c #8A8689",
"[. c #918D8E",
"{. c #89889A",
"}. c #949192",
"|. c #9B989B",
" X c #8D85A8",
".X c #9DA5B8",
"XX c #A2A1A2",
"oX c #C39E81",
"OX c #C7A182",
"+X c #CCA483",
"@X c #D9AF8C",
"#X c #D2AA88",
"$X c #D9B08E",
"%X c #DEB491",
"&X c #E5BA96",
"*X c #EBBF99",
"=X c #E6BA95",
"-X c #EDC19B",
";X c #B2BFDB",
":X c #A1ABC4",
/* pixels */
"(.(.(.(.(.(.2.,.&.@.@.+.X.P S } P P P } +.@.@.@.@.@.I F ' #.&.&.<.2.2.(.(.(.(.(.",
"(.(.(.(.(.(.1.>.&.&.&.@.X.I } P P P } | +.@.@.@.@.&.+.' q.#.>.&.1.(.2.(.(.(.(.(.",
"(.(.(.(.1.<.<.<.<.,.,.,.%.X.X.} } | | +.*.,.>.@.&.>.#.b.Z.^ ,.<.2.(.(.(.(.(.(.(.",
"(.(.(.(.1.,.&.<.1.2.(.1.>.@.X.| P | +.%.<.2.<.@.>.,.O.`.Z.^ <.(.(.(.(.(.(.(.(.(.",
"(.(.(.(.1.,.,.<.(.2.2.,.<.>.@.| } | +.:.>.1.<.>.<.2.O.B.x.%.(.(.(.(.(.(.(.(.(.(.",
"(.(.(.(.(.1.1.2.2.2.<.>.<.<.:.| Z , 1 1 C C o.O.*.1.;.].e.(.(.(.(.(.(.(.(.(.(.(.",
"(.(.(.(.(.(.(.(.(.1.>.>.<.2.<. .X         X o O , U ] N.) (.(.(.(.(.(.(.(.(.(.(.",
"(.(.(.(.(.(.(.(.2.2.<.<.1.2.>.@.X               X K k.V.@.(.(.(.(.(.(.(.(.(.(.(.",
"(.(.(.(.(.(.(.(.(.(.(.(.(.(.1.@.y - z N N .       w.w.' &.(.(.(.(.(.(.(.(.(.(.(.",
"(.(.(.(.(.(.(.(.(.(.(.(.1.1.,.T Y.f.F.K.Y.-       w.j.j.H E ,.1.(.(.(.(.(.(.(.(.",
"(.(.(.(.(.(.(.(.(.(.(.(.<.>.*.T R.N z N /.N       n 7.H Q q.m.-.(.(.(.(.(.(.(.(.",
"(.(.(.(.(.(.(.(.(.(.(.1.,.&.@.) !.E.g.K.$Xi.    X r.r.0.r.}.XXk.(.(.(.(.(.(.(.(.",
"(.(.(.(.(.(.(.(.(.(.2.2.,.*.I d.=X-X&X&X$XG.t . 4 n.n.n.m.[.].3.(.(.(.(.(.(.(.(.",
"(.(.(.(.(.(.(.(.(.2.,.3.-.( U.*X$X&X-X-X$X^.V @ 0 n.r.n.M.'.V.,.(.(.(.(.(.(.(.(.",
"(.(.(.(.(.(.(.(.3.J.J.P.b v K.~.Q.@X&X&X!./.f.# k 8.8.r.C.`.N.>.(.(.(.(.(.(.(.(.",
"(.(.(.(.(.(.(.1.`.OX^.I.V 9 6 B /.%X$X/.~.%XG.t d n g d m.V.k.1.(.(.(.(.(.(.(.(.",
"(.(.(.(.(.(.(._..XY.H.H.V t r i.@X&X&X@X/./.G.M n 0.n n 6.m.[ (.2.2.(.(.(.(.(.(.",
"(.(.(.2.,.). X;X{.e.p.{ ( ! r R.#X-XQ././.R.M d k n k 6.q e.@.1.,.2.(.(.(.(.(.(.",
"(.(.(.l.k.{.:X.XT.e.( o.o.K 2 G./.#XS.G.^.R.M m 6.g d 0 $ R >.#.' =.2.(.(.2.(.(.",
"(.2.(.t.d.C.{.v.a.e.) o.| P ~ /.W.f.y 0 9.M 0 k m k d - $ i ' 9.4.9.#.,.2.2.2.(.",
"(.(.,.` s.D.T.e.^ ^ I I } } L y.! T < 8 8 7 $ 8 d q 5 & $ f c 6.6.M W >.>.<.(.(.",
"(.2.,.>.O.s.d.^ | } } } } } } } I S % + 5 J e + . & e z w i.f 4.r.Q o.=.&.>.(.(.",
"(.2.1.,.<.>.<.%.%. .@. . .%.@.%.o.3 6 w 0 f l * g 0 u.H.H.S.p.5.F &.,.>.<.1.(.(.",
"(.(.(.(.(.1.(.(.(.(.1.(.(.1.1.(.K 5 d 8.; % & & 0 9 N p.V b t.W @.1.(.(.(.(.(.(.",
"(.(.(.(.(.(.(.(.(.(.(.(.(.(.(.(.W d 9 6 ; % 4 - q 7 V.A.T U ) @.,.(.(.(.(.(.(.(.",
"(.(.(.(.(.(.(.(.(.(.(.(.(.(.(.(.$.9.; = @ @ % $ $ d }.N.P | :.1.(.(.(.(.(.(.(.(.",
"(.(.(.(.(.(.(.(.(.(.(.(.(.(.(.(.*.x r = $ # : * 5 g }.x.}  .<.(.(.(.(.(.(.(.(.(.",
"(.(.(.(.(.(.(.(.(.(.(.(.(.(.(.(.<.e.6.6 $ + % & & f Z.$.o.+.<.(.(.(.(.(.(.(.(.(.",
"(.(.(.(.(.(.(.(.(.(.(.(.(.(.(.(.-.z.C.6.4 4 & - - y 8._ @.:.1.(.(.(.(.(.(.(.(.(.",
"(.(.(.(.(.(.(.(.(.(.1.1.1.(.(.(.k.Z.C.j 6.n d 0 8.0 n p < o.1.(.(.(.(.(.(.(.(.(.",
"(.(.(.(.(.(.(.(.(.1.,.,.<.(.(.(.x.V.5.8 n g d d d 0 n n f i ) 2.(.(.(.(.(.(.(.(.",
"(.(.(.(.(.(.(.(.(.<.:.%.<.1.(.2.e.8.j 0 0 0 d 0 $ 0 0 0 - j a 1.(.(.(.(.(.(.(.(.",
"(.(.(.(.(.(.(.(.,.&.&.<.,.<.,.o.u g d q $ 4 5 + + 9 5 $ $ d E 1.(.(.(.(.(.(.(.(.",
"(.(.(.(.(.(.(.&.&.,.,.(.<.&.>.u g q $ 4 0 5 9 n J j < $ u D @.(.(.(.(.(.(.(.(.(.",
"1.,.1.1.(.,.(.&.&.&.<.(.>.@.&.G u q < r.].}.|.].B.[ Z s i P +.(.(.(.(.(.(.(.(.(.",
">.>.>.>.&.&.&.&.@.@.&.&.&.&.&.@.i 9 i ' '._.Z.k.X.I a u d F S &.<.(.(.(.(.(.(.(.",
"@.@.@.@.@.#.@.@.@.@.@.@.@.+.@.@.G > G I w.X.X.+.+.S J g d D X.+.:.1.(.(.(.<.(.(.",
"@.@.@.#.+.+.X.+.@.#.@.@.+.X.~ G D u D S } S P X.X.S D D Z S X.X. .%.%. .%.%.>.<.",
"@.@.@.&.+.X.P X.@.@.@.@.X.S 4.q.7.4.D A } S P P P P P } P P P P } } } } }  . .%.",
"@.@.@.@.+.X.P X.@.#.@.+.| A Z Z A A S P P } P P P P P S P P P P S } P P } | %.%."
};
