/* XPM */
static char *result[] = {
/* columns rows colors chars-per-pixel */
"40 40 190 2 ",
"   c #181425",
".  c #1C1529",
"X  c #1C192D",
"o  c #1D1827",
"O  c #1D1D32",
"+  c #261D2B",
"@  c #231933",
"#  c #2E1B3C",
"$  c #251936",
"%  c #1F2035",
"&  c #29212D",
"*  c #37282F",
"=  c #202136",
"-  c #23243B",
";  c #24283F",
":  c #3D2F33",
">  c #3F353D",
",  c #462F38",
"<  c #483637",
"1  c #4E3A39",
"2  c #543A3A",
"3  c #613E39",
"4  c #5B443E",
"5  c #72473E",
"6  c #2F1F42",
"7  c #341949",
"8  c #391D48",
"9  c #3B1C55",
"0  c #3E1E59",
"q  c #192745",
"w  c #2D2243",
"e  c #262B44",
"r  c #2A2B47",
"t  c #2C2849",
"y  c #35224B",
"u  c #34274C",
"i  c #342351",
"p  c #3A2554",
"a  c #3D2956",
"s  c #3F2958",
"d  c #3B2855",
"f  c #173E69",
"g  c #243960",
"h  c #401E4D",
"j  c #431E52",
"k  c #431A5D",
"l  c #4B1F5D",
"z  c #452846",
"x  c #402756",
"c  c #49205A",
"v  c #43295A",
"b  c #442458",
"n  c #572B5C",
"m  c #453C56",
"M  c #653C58",
"N  c #471B60",
"B  c #4A1D63",
"V  c #521F69",
"C  c #4E2164",
"Z  c #4C2A62",
"A  c #522265",
"S  c #552369",
"D  c #5B266D",
"F  c #5B296D",
"G  c #552963",
"H  c #5E3060",
"J  c #5D2470",
"K  c #5F2971",
"L  c #622A6C",
"P  c #622673",
"I  c #632874",
"U  c #692976",
"Y  c #6C297B",
"T  c #692779",
"R  c #722A7E",
"E  c #782E7E",
"W  c #6B3572",
"Q  c #77317A",
"!  c #7B327D",
"~  c #713173",
"^  c #683567",
"/  c #28457B",
"(  c #5C4441",
")  c #664C43",
"_  c #6E5145",
"`  c #765749",
"'  c #7D425C",
"]  c #74484F",
"[  c #59596A",
"{  c #764663",
"}  c #694A60",
"|  c #636071",
" . c #833A76",
".. c #815F4D",
"X. c #945D48",
"o. c #935953",
"O. c #915656",
"+. c #A75E5C",
"@. c #98624B",
"#. c #8B6551",
"$. c #8E6852",
"%. c #9B7256",
"&. c #9C7358",
"*. c #8E6952",
"=. c #AB694E",
"-. c #B66E4F",
";. c #A66155",
":. c #A46858",
">. c #B46B52",
",. c #B86F50",
"<. c #A87A5C",
"1. c #B97856",
"2. c #854767",
"3. c #944E64",
"4. c #91476D",
"5. c #875768",
"6. c #95566F",
"7. c #A05A77",
"8. c #98636A",
"9. c #9B756C",
"0. c #AB7568",
"q. c #B06C6D",
"w. c #BE815C",
"e. c #BB8963",
"r. c #B68463",
"t. c #B7897A",
"y. c #C7825C",
"u. c #C9845D",
"i. c #C28D65",
"p. c #C6836E",
"a. c #C79167",
"s. c #CD9569",
"d. c #C99066",
"f. c #D69C6C",
"g. c #DA9B6B",
"h. c #D3966C",
"j. c #C5967A",
"k. c #D99D71",
"l. c #DCA06F",
"z. c #CFA17B",
"x. c #DEA270",
"c. c #E4A672",
"v. c #742A81",
"b. c #7A3180",
"n. c #304C88",
"m. c #21588E",
"M. c #2A6896",
"N. c #096DAF",
"B. c #1773BE",
"V. c #1471B4",
"C. c #1668AD",
"Z. c #15528A",
"A. c #797B84",
"S. c #864A8F",
"D. c #917195",
"F. c #A7778B",
"G. c #6185AC",
"H. c #138DD8",
"J. c #3A90C4",
"K. c #109CEA",
"L. c #659DC8",
"P. c #6CB7E4",
"I. c #70C3F3",
"U. c #9C908E",
"Y. c #AD8596",
"T. c #AB93B3",
"R. c #BCADAA",
"E. c #C69988",
"W. c #C69790",
"Q. c #DEB092",
"!. c #D4A585",
"~. c #E2B797",
"^. c #C6B1B0",
"/. c #D9BCB9",
"(. c #ECC29E",
"). c #D4C3BE",
"_. c #82AECA",
"`. c #A1B3CA",
"'. c #BFC9DA",
"]. c #B2C9DE",
"[. c #C5CBD5",
"{. c #D8C9DA",
"}. c #E6D4D7",
"|. c #EBD8CC",
" X c #F7E3D3",
".X c #D8DFEA",
"XX c #CFEBFB",
"oX c #C5E0F1",
"OX c #F2F4F8",
"+X c white",
/* pixels */
"v.v.v.v.v.v.R U D D D D C 9 t e e e e e e e e e e e e r Z U K K U Y v.v.v.v.v.v.",
"v.v.v.v.v.v.Y I L D D D B p t e e e e e e e e e e e e r v I K K T v.v.v.v.v.v.v.",
"v.v.v.v.Y T T T T T P n j w t e e e e e e e e e e e e r d Z Z T Y v.v.v.v.v.v.v.",
"v.v.v.v.Y U K T R R T c # $ ; e e e e e e e e e e e e r e t u R v.v.v.v.v.v.v.v.",
"v.v.v.v.R T I Y v.P A 8 . X % ; e e e e e e e e e e e e e e e v.v.v.v.v.v.v.v.v.",
"v.v.v.v.v.Y Y Y v.8 8 $ . . O % - e e e e e e e e e e e e e e v.v.v.v.v.v.v.v.v.",
"v.v.v.v.v.v.v.v.v.. .         X = e e e e e e e e e e e e e e v.v.v.v.v.v.v.v.v.",
"v.v.v.v.v.v.v.v.v.            . O = - - ; e e e e e e e e % ; v.v.v.v.v.v.v.v.v.",
"v.v.v.v.v.b.v.v.v.              X X X O % - e e e e e e = X X v.v.v.v.v.v.v.v.v.",
"v.v.v.v.v.v.v.v.v..                 o X & = e e e e e e = @ X v.v.v.v.v.v.v.v.v.",
"v.v.v.v.v.v.v.v.v.                  : 4 ( > % % % % % = w 8 h v.v.v.v.v.v.v.v.v.",
"v.v.v.v.v.v.v.v.v.                  4 &.&.( X o X X X X h D P v.v.v.v.v.v.v.v.v.",
"v.v.v.v.v.v.v.v.v.                  ) w.e.` < : : : : > n U E v.v.v.v.v.v.v.v.v.",
"v.v.v.v.v.v.v.v.v.                  ) e.s.r.*.*.#.#.#.#.2.Q v.v.v.v.v.v.v.v.v.v.",
"v.v.v.v.v.v.v.v.v.                  ) e.x.l.f.k.k.f.k.h.q.! v.v.v.v.v.v.v.v.v.v.",
"v.v.v.v.v.v.v.v.v.        & < 1 *   ) e.l.e.<.e.l.h.r.&.6.! v.v.v.v.v.v.v.v.v.v.",
"v.v.v.v.v.v.v.v.R         < ..$.4   ) e.s.$.4 *.h.a.#.M M R v.v.v.v.v.v.v.v.v.v.",
"v.v.v.v.v.v.R Y Y . .     4 1.i._ & _ e.e._ & ` a.r.) & z I v.v.v.v.v.v.v.v.v.v.",
"v.v.v.v.v.v.R T L 8 7 $ . 2 =.y.@.2 *.a.s.&._ <.s.a.%._ ^ R v.v.v.v.v.v.v.v.v.v.",
"v.v.R Y Y Y T P S l j #   2 X.,.=.@.1.f.g.s.i.h.l.l.s.r.8.~ P P T Y Y Y Y v.v.v.",
"v.v.T U I I P S B B k 7 @ , 5 ;.=.,.u.g.c.c.c.c.c.c.c.k.8.L V S D K P P U T v.v.",
"v.R T K D K D V B N k 9 7 z 3 3 X.-.u.g.c.c.c.c.c.c.c.k.8.n k N C D K K K T Y v.",
"v.v.Y T I T P P J V D V V j # * 5 >.u.k.c.c.c.c.c.c.c.k.8.G B S D U U T T Y v.v.",
"v.v.R R R v.v.R v.R R R R J h z ..t.!.~.(.(.(.(.(.Q.j.0.{ G A D U Y R R R v.v.v.",
"v.v.v.v.v.v.v.v.v.v.v.v.v.Y J U D.R.).|. X X X X X/.F.{ H A D P T v.v.v.v.v.v.v.",
"v.v.v.v.v.v.v.v.v.v.R E E E  .S.T.'..XOX+X+X+X+X+X{.D.A C A I T v.v.v.v.v.v.v.v.",
"v.v.v.v.v.v.v.v.v.v.E  .4.6.7.F.T.'..XOX+X+X+X+X+X}.Y.' M 2.2.E v.v.v.v.v.v.v.v.",
"v.v.v.v.v.v.v.v.v.R ! 4.+.q.p.!.^.[..XOX+X+X+X+X+X}.W.;.;.;.;.v.v.v.v.v.v.v.v.v.",
"v.v.v.v.v.v.v.v.v.v.! 3.>.y.g.!.R.`.].oXXXXXXXXXXX[.E.,.,.,.,.E v.v.v.v.v.v.v.v.",
"v.v.v.v.v.v.v.v.R R Q 3.>.y.g.z.U.G.L.P.I.I.I.I.I._.U.-.,.,.,.E v.v.v.v.v.v.v.v.",
"v.v.v.v.v.v.v.v.R R U 3.>.y.f.j.| m.V.H.K.K.K.K.K.J.D.-.,.,.,.v.v.v.v.v.v.v.v.v.",
"v.v.v.v.v.v.v.v.R T W { O.:.r.9.| f Z.C.B.B.V.V.N.M.| o.o.o.o.v.v.v.v.v.v.v.v.v.",
"v.v.v.v.v.v.v.Y Y U U ^ } } ' } m q g / n.n.n./ f g ( M M M M v.v.v.v.v.v.v.v.v.",
"v.v.v.v.v.v.R T K I T F b s v a 6 o # p v v v y @ $ t i i d v v.v.v.v.v.v.v.v.v.",
"T Y Y Y T Y T P F I I F v v v a y # y p x p v p 6 w i i i p s Y Y v.v.v.v.v.v.v.",
"I I I I I I I K F D F G v a v a d p a d p p p a i i i i i i s I Y v.v.v.v.v.v.v.",
"F F D D F D F D D D F Z v x s s d d d d i i p d d i i i i i d J U Y v.T v.v.v.R ",
"D F D F S S C S D F F S Z b p p d i d p i i i p i i i i 9 0 N B V D J J V J I T ",
"D D D D S B N S D F F S C 0 i i i i i i i i i i i i i i 9 0 N N N N N N N V J J ",
"D F F D S B k C S D J D C 0 9 i i i i u i i i i i i i u 9 0 k k k k k 0 N V V K "
};
