/* XPM */
static char *result[] = {
/* columns rows colors chars-per-pixel */
"40 40 157 2 ",
"   c #181425",
".  c #1E1927",
"X  c #1A1729",
"o  c #1B182B",
"O  c #1E1E32",
"+  c #20172E",
"@  c #231C29",
"#  c #281C39",
"$  c #1F2035",
"%  c #29202B",
"&  c #202136",
"*  c #22253C",
"=  c #3E2F33",
"-  c #4C383A",
";  c #453436",
":  c #2F1F41",
">  c #3B1E56",
",  c #3F1F59",
"<  c #262B44",
"1  c #292A47",
"2  c #2C2B49",
"3  c #312144",
"4  c #322B4E",
"5  c #37244C",
"6  c #342351",
"7  c #3A2653",
"8  c #3D2956",
"9  c #3F2858",
"0  c #352950",
"q  c #143E66",
"w  c #2B3D60",
"e  c #431A5D",
"r  c #44255C",
"t  c #442A5B",
"y  c #482A5F",
"u  c #4D3F5A",
"i  c #533258",
"p  c #613D55",
"a  c #471B60",
"s  c #4B1D63",
"d  c #521F69",
"f  c #4E2264",
"g  c #4B2A61",
"h  c #512366",
"j  c #542C64",
"k  c #542369",
"l  c #5B266D",
"z  c #562B6A",
"x  c #5A2B66",
"c  c #5B316C",
"v  c #5D2470",
"b  c #593270",
"n  c #652D6E",
"m  c #693A6A",
"M  c #622674",
"N  c #632874",
"B  c #682977",
"V  c #692779",
"C  c #6C297B",
"Z  c #712A7F",
"A  c #673776",
"S  c #7C377D",
"D  c #713574",
"F  c #214476",
"G  c #6A4E44",
"H  c #715447",
"J  c #6F455D",
"K  c #71405C",
"L  c #504673",
"P  c #674160",
"I  c #734C62",
"U  c #695F6E",
"Y  c #835E51",
"T  c #8B5F5D",
"R  c #8C5454",
"E  c #8B6650",
"W  c #9F655C",
"Q  c #AD7F5D",
"!  c #A7735F",
"~  c #B3705D",
"^  c #8D4F66",
"/  c #8A5A63",
"(  c #8A5669",
")  c #915F65",
"_  c #9D636E",
"`  c #976D7D",
"'  c #AB7669",
"]  c #B17760",
"[  c #BA7B61",
"{  c #A86876",
"}  c #AB6879",
"|  c #C57F5A",
" . c #BE8B64",
".. c #BA8369",
"X. c #C78C6F",
"o. c #CA916C",
"O. c #D79568",
"+. c #D79D6D",
"@. c #C88C70",
"#. c #CB967F",
"$. c #D99A73",
"%. c #D09779",
"&. c #742A81",
"*. c #7C3880",
"=. c #2D4A84",
"-. c #324C8A",
";. c #394B86",
":. c #326792",
">. c #096DAD",
",. c #0F70B5",
"<. c #1673BD",
"1. c #2471B3",
"2. c #566789",
"3. c #813A85",
"4. c #823E8B",
"5. c #9D6B88",
"6. c #9E7F99",
"7. c #AF738A",
"8. c #64859D",
"9. c #4491BF",
"0. c #2197DB",
"q. c #109CEA",
"w. c #77BBE2",
"e. c #70C3F3",
"r. c #898386",
"t. c #9499A1",
"y. c #B584A6",
"u. c #A58EB1",
"i. c #AB91B5",
"p. c #B992BC",
"a. c #AB86A9",
"s. c #B8B4B6",
"d. c #DEA988",
"f. c #CCA099",
"g. c #DBB197",
"h. c #E0B39B",
"j. c #C4ADA5",
"k. c #ECC29E",
"l. c #E6C7B7",
"z. c #E4C6BA",
"x. c #EDD1BD",
"c. c #8FBDD9",
"v. c #E5CFC7",
"b. c #EAD1CB",
"n. c #EFDFD9",
"m. c #E5D1D4",
"M. c #F7E3D3",
"N. c #CDDFEA",
"B. c #CFEBFB",
"V. c #DAE9F2",
"C. c #E7E6E7",
"Z. c #EDE8EF",
"A. c #F0E5EA",
"S. c #EFE9F1",
"D. c #FAF6F4",
"F. c #FCF9F7",
"G. c #FFFFFF",
/* pixels */
"&.&.&.&.&.&.Z B l l l z 7 1 < < < < < < < < < < < < 2 t A &.v v B Z &.&.&.&.&.&.",
"&.&.&.&.&.&.C B l M l j 7 1 < < < < < < < < < 2 < < 2 t B B N b C Z &.&.&.&.&.&.",
"&.&.&.&.C V B B B B g y 0 1 < < < < < < < < < < < < 2 8 g g V V Z &.&.&.&.&.&.&.",
"&.&.&.&.C B v B Z Z 4 4 2 1 < < < < < < < < < < < < < 2 2 4 C &.&.&.&.&.&.&.&.&.",
"&.&.&.&.Z V B V Z Z * * * < < 1 < < < < < < < < < < < < < * C &.&.&.&.&.&.&.&.&.",
"&.&.&.&.&.C C C Z Z & & * < < < < 1 < 1 < < < < < < < * O O &.&.&.&.&.&.&.&.&.&.",
"&.&.&.&.&.&.&.&.&.C X X & < 1 < < < < < < < < < < < < $ o   &.&.&.&.&.&.&.&.&.&.",
"&.&.&.&.&.&.&.&.&.C X X o & * < < < < < < < < < < * $ O     &.&.&.&.&.&.&.&.&.&.",
"&.&.&.&.&.&.&.&.&.&.X X X o & * < < < < < < < < * $ O       &.&.&.&.&.&.&.&.&.&.",
"&.&.&.&.&.&.&.&.&.&.  X     o * < < < < < < < < $ o         &.&.&.&.&.&.&.&.&.&.",
"&.&.&.&.&.&.&.&.&.Z         X O $ $ $ $ $ $ $ $ $ X         &.&.&.&.&.&.&.&.&.&.",
"&.&.&.&.&.&.&.&.&.Z           X o o X o o X o o X X         &.&.&.&.&.&.&.&.&.&.",
"&.&.&.&.&.&.&.&.&.&.            X                           &.&.&.&.&.&.&.&.&.&.",
"&.&.&.&.&.&.&.&.&.&.                                        &.&.&.&.&.&.&.&.&.&.",
"&.&.&.&.&.&.&.&.&.&.                                        &.&.&.&.&.&.&.&.&.&.",
"&.&.&.&.&.&.&.&.&.&.                                        &.&.&.&.&.&.&.&.&.&.",
"&.&.&.&.&.&.&.Z Z Z                                         Z Z &.&.&.&.&.&.&.&.",
"&.&.&.&.&.&.Z Z B N @ @                               @ @ @ &.Z &.&.&.&.&.&.&.&.",
"&.&.&.&.&.&.Z B n l H G ; @                         . ; G G &.&.Z &.&.Z &.Z &.&.",
"&.&.Z C C C V v k h X.Q G %                         @ G Q X.B V B C Z C Z Z Z &.",
"&.&.C N M N l l s a @...Y - ; = = = = = = = = = = = - Y ..X.d d l M M M M C &.&.",
"&.Z B N M l l h s a ( ( T E E E E E E E E E E E E E E T T ^ e e k l l l M V Z &.",
"&.&.C B B B V M d l n D _ o.+.+.+.+.+.+.+.+.+.+.+.+.o.) x f f h l M B B B C &.&.",
"&.&.Z Z Z Z Z Z &.Z Z S 7.h.k.k.k.k.k.k.k.k.k.k.k.k.g.` j s h l B Z Z Z Z Z &.&.",
"&.&.&.&.&.&.&.&.&.&.&.4.y.b.M.M.M.M.M.M.M.M.M.M.M.M.v.a.g s l M C Z &.&.&.&.&.&.",
"&.&.&.&.&.&.&.&.&.&.&.4.p.Z.F.D.D.F.G.G.G.G.G.G.G.G.Z.u.j h M C Z &.&.&.&.&.&.&.",
"&.&.&.&.&.&.&.&.&.&.&.3.y.l.x.l.z.M.D.G.G.G.G.G.G.G.Z.i.b d M &.&.&.&.&.&.&.&.&.",
"&.&.&.&.&.&.&.&.&.&.&.3.7.d.d.%.f.z.D.G.G.G.G.G.G.G.Z.i.A l V &.&.&.&.&.&.&.&.&.",
"&.&.&.&.&.&.&.&.&.&.&.S } $.O.| ~ j.N.B.B.B.B.B.V.C.m.a.A M C Z &.&.&.&.&.&.&.&.",
"&.&.&.&.&.&.&.&.&.Z Z S } O.O.| ~ t.w.e.e.e.e.e.c.s.f.5.A M C &.&.&.&.&.&.&.&.&.",
"&.&.&.&.&.&.&.&.&.C B D { $.O. .! 8.0.q.q.q.q.q.9.r.~ ^ n N C &.&.&.&.&.&.&.&.&.",
"&.&.&.&.&.&.&.&.Z V l n ( ' ! W T 2.1.<.<.<.,.>.:.U R K x l C &.&.&.&.&.&.&.&.&.",
"&.&.&.&.&.&.&.Z B B j j P I I J J L -.-.-.=.F q w u p i r y C Z &.&.&.&.&.&.&.&.",
"&.&.&.&.&.Z Z B M N t y t 9 9 g g y y y t 7 3 + # 5 8 7 6 7 V Z &.&.&.&.&.&.&.&.",
"C V C C B C C M l N t t t 9 t t y y y t 8 7 5 : 3 5 7 7 6 6 M C Z Z &.&.&.&.&.&.",
"N N M B N N N l l l t t t 9 9 9 9 t t 9 7 7 7 5 7 7 6 6 6 6 l M C &.&.&.&.&.&.Z ",
"l l l l l l l l l l t r 9 8 8 8 8 8 8 8 6 6 7 7 8 7 6 6 > 6 h l M C Z Z Z Z Z Z ",
"l l l c z h h k l l g g t 8 0 7 0 6 7 6 6 6 6 6 6 6 6 6 > , a d d d M d v v B B ",
"l z l l k s s f l l l z r 6 6 6 6 6 6 6 6 6 6 6 6 6 6 > e e e e s s a a a d d l ",
"l l l l k a e d z l v k r 6 6 6 6 6 6 6 6 6 6 6 6 6 6 > , e e e e e e e e d M l "
};
