/* XPM */
static char *result[] = {
/* columns rows colors chars-per-pixel */
"40 40 180 2 ",
"   c #181425",
".  c #1D152A",
"X  c #1B1A2D",
"o  c #1F1E33",
"O  c #21162E",
"+  c #281F2B",
"@  c #221B29",
"#  c #261A36",
"$  c #2A193A",
"%  c #281A36",
"&  c #301E39",
"*  c #1F2035",
"=  c #2E242D",
"-  c #212135",
";  c #23253C",
":  c #3D2E33",
">  c #342E3B",
",  c #432C33",
"<  c #483637",
"1  c #4B3838",
"2  c #433336",
"3  c #543E3B",
"4  c #53333B",
"5  c #5B443E",
"6  c #74493E",
"7  c #2D1F41",
"8  c #341C43",
"9  c #3A1B4B",
"0  c #3B1C56",
"q  c #3E1C5A",
"w  c #1C2F55",
"e  c #262B44",
"r  c #2A2A47",
"t  c #2E294B",
"y  c #322145",
"u  c #3A244E",
"i  c #332A4E",
"p  c #37234A",
"a  c #2E304C",
"s  c #342350",
"d  c #3A2554",
"f  c #3D2956",
"g  c #3F2858",
"h  c #273D60",
"j  c #401E4D",
"k  c #411D55",
"l  c #431A5D",
"z  c #55394A",
"x  c #44245D",
"c  c #4B215B",
"v  c #43295B",
"b  c #492A5F",
"n  c #402857",
"m  c #592E5F",
"M  c #533F5C",
"N  c #462D42",
"B  c #683F58",
"V  c #62385B",
"C  c #471B60",
"Z  c #4B1D63",
"A  c #521F69",
"S  c #501E67",
"D  c #4C2362",
"F  c #4C2A62",
"G  c #522266",
"H  c #5B2A65",
"J  c #542369",
"K  c #5B266D",
"L  c #5D2470",
"P  c #5F2871",
"I  c #612B6B",
"U  c #6C3C64",
"Y  c #6B3367",
"T  c #73396B",
"R  c #7A3B69",
"E  c #622674",
"W  c #642874",
"Q  c #682977",
"!  c #692779",
"~  c #6C297B",
"^  c #712A7F",
"/  c #782E7E",
"(  c #763C70",
")  c #19406D",
"_  c #144A7F",
"`  c #334872",
"'  c #5D4743",
"]  c #674A48",
"[  c #7C4C42",
"{  c #7D5345",
"}  c #7B5B4A",
"|  c #66455B",
" . c #7F5658",
".. c #744C61",
"X. c #725F6B",
"o. c #7D4370",
"O. c #684570",
"+. c #833E7B",
"@. c #815F4D",
"#. c #955857",
"$. c #8B5450",
"%. c #A45D5A",
"&. c #8B6650",
"*. c #8E6852",
"=. c #956958",
"-. c #96604A",
";. c #A2634B",
":. c #B06B4E",
">. c #AB6259",
",. c #A36F54",
"<. c #B86F50",
"1. c #B26D5E",
"2. c #AA7758",
"3. c #B67656",
"4. c #92486B",
"5. c #894679",
"6. c #95546E",
"7. c #8C6F6C",
"8. c #9B6F67",
"9. c #8E7A77",
"0. c #B87F6D",
"q. c #AB706F",
"w. c #C37D58",
"e. c #B1815F",
"r. c #B48460",
"t. c #BC846A",
"y. c #BE8E7B",
"u. c #AC8B79",
"i. c #C18D65",
"p. c #C5836D",
"a. c #C79167",
"s. c #CE966A",
"d. c #D69C6D",
"f. c #D99B6B",
"g. c #D19467",
"h. c #C68A78",
"j. c #E4A672",
"k. c #742A81",
"l. c #7D3480",
"z. c #334C8B",
"x. c #2A4881",
"c. c #2B6896",
"v. c #0B6EB0",
"b. c #1673BD",
"n. c #1867A7",
"m. c #4F6A87",
"M. c #875793",
"N. c #9A639E",
"B. c #AD7792",
"V. c #6294BF",
"C. c #3A90C4",
"Z. c #109CEA",
"A. c #138AD3",
"S. c #6BB4E1",
"D. c #70C3F3",
"F. c #808D9E",
"G. c #A18B9B",
"H. c #B1B0B6",
"J. c #C08983",
"K. c #C79C87",
"L. c #D3A989",
"P. c #E1B395",
"I. c #DFBEBD",
"U. c #CCBBB9",
"Y. c #ECC29E",
"T. c #82AECA",
"R. c #BAB0C4",
"E. c #ADA4C4",
"W. c #C4BCC2",
"Q. c #ABC1D8",
"!. c #C9CCD0",
"~. c #DECBDE",
"^. c #E7D4D8",
"/. c #E8D6CA",
"(. c #F7E3D3",
"). c #C3DDEF",
"_. c #D0D8E5",
"`. c #CFEBFB",
"'. c #EFF2F6",
"]. c white",
/* pixels */
"k.k.k.k.k.k.^ Q K K K K v t e e e e e e e e e e i F E W ^ ~ W E Q k.k.k.k.k.k.k.",
"k.k.k.k.k.k.~ W E P P J x t e e e e e e e e e e i F K W ^ Q W K Q ^ k.k.k.k.k.k.",
"k.k.k.k.k.Q ! Q Q Q Q F f t e e e e e e e e e e r d c E W Q W Q ^ k.k.k.k.k.k.k.",
"k.k.k.k.~ W E Q ~ k.~ i t e e e e e e e e e e e ; # 9 H E W ~ / k.k.k.k.k.k.k.k.",
"k.k.k.k.~ Q Q Q k.k.~ e e e e e e e e e e e e e - . $ k G Q ^ ^ k.k.k.k.k.k.k.k.",
"k.k.k.k.k.~ ~ k.k.~ Q e e e e e e e e e e e e * o @ O 8 9 ^ ^ ^ k.k.k.k.k.k.k.k.",
"k.k.k.k.k.k.k.k.k.~ W e e e e e e r e e e e ; X       @ O k.k.k.k.k.k.k.k.k.k.k.",
"k.k.k.k.k.k.k.k.k.k.Q ; ; e e e e e e e ; * * X           k.k.k.k.k.k.k.k.k.k.k.",
"k.k.k.k.k.k.k.k.k.k.k.o o ; e e e e ; - X o . .           k.k.k.k.k.k.k.k.k.k.k.",
"k.k.k.k.k.k.k.k.k.k.k.. o ; e e e ; ; - X                 ^ k.k.k.k.k.k.k.k.k.k.",
"k.k.k.k.k.k.k.k.k.k.k.9 8 ; * # - - > ' 5 =               k.k.k.k.k.k.k.k.k.k.k.",
"k.k.k.k.k.k.k.k.k.k.^ E c # X . X X < =.*.2               k.k.k.k.k.k.k.k.k.k.k.",
"k.k.k.k.k.k.k.k.k.k.k.^ H N : : : : ] r.r.1               k.k.k.k.k.k.k.k.k.k.k.",
"k.k.k.k.k.k.k.k.k.k.k.^ ( $.&.&.*.&.2.d.r.1               k.k.k.k.k.k.k.k.k.k.k.",
"k.k.k.k.k.k.k.k.k.k.k.^ o.0.d.d.d.d.d.j.r.1               k.k.k.k.k.k.k.k.k.k.k.",
"k.k.k.k.k.k.k.k.k.k.k.^ ( 7.r.d.d.e.e.d.2.1 + < < +       k.k.k.k.k.k.k.k.k.k.k.",
"k.k.k.k.k.k.k.k.^ k.^ ^ Y z } i.a.} } r.e.1 : @.@.:       ^ k.k.k.k.k.k.k.k.k.k.",
"k.k.k.k.k.k.k.~ Q ! W W c & 3 r.e.5 5 e.e.3 3 e.e.<   O O ^ k.k.k.k.k.k.k.k.k.k.",
"k.k.k.k.k.k.k.Q E K K K H ] *.a.a.&.*.a.t.{ { 3.,.2 . & j ^ k.k.k.k.k.k.k.k.k.k.",
"k.k.^ ~ ~ ~ Q P J J G G U 8.a.f.d.a.a.j.g.3.;.<.-., O k A ! E ! Q ~ ~ Q ~ k.k.k.",
"k.k.Q W E E E J Z Z Z C O.t.j.j.j.j.j.j.f.i.:.;.[ , $ k A S S A K E E E W Q k.k.",
"k.^ Q E L P K G Z C C C T t.j.j.j.j.j.j.g.w.;.6 4 8 9 0 l l l l S K K P E Q ^ k.",
"k.k.~ Q ! W ! L L L K L +.p.j.j.j.j.j.j.f.i.-., $ 9 l l l Z S G K W Q Q Q ~ k.k.",
"k.k.k.k.k.~ k.k.! k.~ ~ +.q.h.P.Y.Y.Y.Y.P.s.8.N 8 l l l l l G K Q ~ k.^ k.k.k.k.",
"k.k.k.k.k.k.k.k.k.k.k.k.l.5.B.I.(.(.(.(./.U.G.X.l S C l l Z K W ! k.k.k.k.k.k.k.",
"k.k.k.k.k.k.k.k.k.k.k./ k.l.N.~.].].].].'.).E.l.Q I J Z l A E ~ ^ k.k.k.k.k.k.k.",
"k.k.k.k.k.k.k.k.k.k.k.4.4.4.B.^.].].].].'._.R.B.6.4.4.H Z A E k.k.k.k.k.k.k.k.k.",
"k.k.k.k.k.k.k.k.k.k.k.>.>.>.J.^.].].].].'._.!.K.p.3.#.Y A A ! k.k.k.k.k.k.k.k.k.",
"k.k.k.k.k.k.k.k.k.k.k.<.<.<.y.!.`.`.`.`.).Q.H.L.f.w.%.R K E ~ ^ k.k.k.k.k.k.k.k.",
"k.k.k.k.k.k.k.k./ ^ ~ <.<.:.u.T.D.D.D.D.S.V.F.d.f.w.%.( E W ~ k.k.k.k.k.k.k.k.k.",
"k.k.k.k.k.k.k.k.k.^ Q <.<.<.9.C.Z.Z.Z.Z.A.n.m.y.f.w.#.R K W ~ k.k.k.k.k.k.k.k.k.",
"k.k.k.k.k.k.k.k.^ Q E #.#.#.X.c.v.b.b.b.n._ ` 7.q.#.$.Y K E ~ k.k.k.k.k.k.k.k.k.",
"k.k.k.k.k.k.k.~ Q Q Q | B B M h ) x.z.z.` w a | ..| V H S K ! k.k.k.k.k.k.k.k.k.",
"k.k.k.k.k.k.k.Q P W Q F v v u # % f F v s # % u v v v D C A E k.k.k.k.k.k.k.k.k.",
"~ ~ ~ ~ ~ ~ ! W P P W v v v d y y f v v d y y f v g v l l A E ~ ^ k.k.k.k.k.k.k.",
"P E E W W P W P P K P v n f f d f g v g s s s f g f f k l Z K ! ! k.k.k.k.k.k.k.",
"K K K K K K J K K K P v v f f f d f f f s s d d f s 0 q C C A A E ~ ! ^ ! k.k.k.",
"K K P H J F G J K K K F x f d d d d d s s s s s d q q q q C C S A L L L L E W W ",
"K K K K J D C G J P K J D d s s s s s s s s s s s q l l C q C C C C C C C S L E ",
"K K K K J D C Z K K K J D s s s s s s s s i s i 0 q l q q C q l l l l l C S A K "
};
