/* XPM */
static char *result[] = {
/* columns rows colors chars-per-pixel */
"31 43 151 2 ",
"   c #181425",
".  c #191628",
"X  c #17182B",
"o  c #1C1A2D",
"O  c #1D1D32",
"+  c #211A28",
"@  c #221F31",
"#  c #1F2136",
"$  c #1E253C",
"%  c #2D222C",
"&  c #32262E",
"*  c #202137",
"=  c #22243B",
"-  c #24283F",
";  c #2A283A",
":  c #3A2B31",
">  c #342B37",
",  c #422C30",
"<  c #423235",
"1  c #47383B",
"2  c #4A363A",
"3  c #523738",
"4  c #573D3A",
"5  c #633F39",
"6  c #56403C",
"7  c #5A443E",
"8  c #61403B",
"9  c #6E493F",
"0  c #6E453C",
"q  c #76493E",
"w  c #193A5D",
"e  c #262B44",
"r  c #242E49",
"t  c #312E41",
"y  c #2A324A",
"u  c #23304C",
"i  c #313247",
"p  c #3F3645",
"a  c #233250",
"s  c #4B3C47",
"d  c #13426B",
"f  c #0E4874",
"g  c #634A41",
"h  c #6A4D44",
"j  c #6C4E4C",
"k  c #6F5246",
"l  c #7E5D4B",
"z  c #765648",
"x  c #7E5E51",
"c  c #606C77",
"v  c #8F5845",
"b  c #885648",
"n  c #965F4B",
"m  c #9A5F49",
"M  c #84624E",
"N  c #88644F",
"B  c #90654F",
"V  c #99644D",
"C  c #8B6650",
"Z  c #936C53",
"A  c #9E7458",
"S  c #9B7256",
"D  c #A7664D",
"F  c #AF6A4F",
"G  c #A9674C",
"H  c #B46D4F",
"J  c #A86C50",
"K  c #B66E50",
"L  c #A67A5B",
"P  c #A67457",
"I  c #BC7553",
"U  c #B27A59",
"Y  c #BC7856",
"T  c #897062",
"R  c #9D7062",
"E  c #88777B",
"W  c #B1815F",
"Q  c #B48360",
"!  c #BB8662",
"~  c #BD8963",
"^  c #BD8975",
"/  c #BF8E7A",
"(  c #CB865E",
")  c #C2855F",
"_  c #C38E65",
"`  c #C59066",
"'  c #CB9468",
"]  c #CE9266",
"[  c #D39A6C",
"{  c #D99A6A",
"}  c #CE9B7F",
"|  c #C09572",
" . c #DCA06F",
".. c #DEA87A",
"X. c #D9A679",
"o. c #E4A672",
"O. c #E4AB7A",
"+. c #0F5080",
"@. c #105A8E",
"#. c #155484",
"$. c #11669F",
"%. c #37698C",
"&. c #0C69A6",
"*. c #0578BD",
"=. c #2670A4",
"-. c #057DC4",
";. c #408BB4",
":. c #0582CB",
">. c #0587D3",
",. c #2691D0",
"<. c #26A5EC",
"1. c #699CC0",
"2. c #60A5C8",
"3. c #7CBCE3",
"4. c #809093",
"5. c #AC9797",
"6. c #9CA6A0",
"7. c #BDABAB",
"8. c #CF9F85",
"9. c #DEAC8A",
"0. c #DFB090",
"q. c #E7AF81",
"w. c #E9B68B",
"e. c #EABB93",
"r. c #C2ACA8",
"t. c #C2B3A9",
"y. c #D4BDB3",
"u. c #EDC29F",
"i. c #D5C1B9",
"p. c #EEC7A6",
"a. c #E5C4A7",
"s. c #E6CEBE",
"d. c #F2D4BB",
"f. c #A2C1CD",
"g. c #BFC8D7",
"h. c #86CDF5",
"j. c #C6CEDC",
"k. c #E7D2C4",
"l. c #F3D7C0",
"z. c #F4DCC7",
"x. c #F4DCC8",
"c. c #E5DDD3",
"v. c #F6E2D0",
"b. c #DADFE7",
"n. c #F9ECE0",
"m. c #EEEFF3",
"M. c #E0EFF8",
"N. c #E5F4FD",
"B. c #FFFEFE",
"V. c #FCF6F0",
"C. c None",
/* pixels */
"C.C.C.C.C.C.C.C.C.C.C.C.C.C.C.C.C.C.C.C.C.C.C.C.C.C.C.C.C.C.C.",
"C.C.C.C.C.C.C.C.e e e e e e e e e e e e e e e e e C.C.C.C.C.C.",
"C.C.C.C.C.C.C.e e e e e e e e e e e e e e e e e e e C.C.C.C.C.",
"C.C.C.C.C.C.C.= - e e e e e e e e e e e e e e e e e e C.C.C.C.",
"C.C.C.C.C.  o * - e e e e e e e e e e e e e e e e r e e e C.C.",
"C.C.C.C.    o O = e e e e e e e e e e e e e e e e e e e e C.C.",
"C.C.C.      . o O # = e e e e e e e e e e e e e e e e e e C.C.",
"C.              . o # - e e e e e e e e e e r e e e e e e C.C.",
"C.                  O * = = = - = e e e e e e e e e - - = C.C.",
"C.                  o o # o # o = = e e e e e e e - = O o C.C.",
"C.                            X O = e e e e e e e = + .   C.C.",
"C.                      o : 3 g s > = * * = = $ = * O   C.C.C.",
"C.                      + 7 C L z 1 o o o o o o o o o C.C.C.C.",
"C.                      & k Q { A g & & & & & & & & C.C.C.C.C.",
"C.                      % k W  .~ S l l l l l l l l C.C.C.C.C.",
"C.                      % k W o.{ [ ' ' ' ' ' ' ' ' C.C.C.C.C.",
"C.          + & : < : + % k W ..[ ~ Q ` [ o.[ ` Q W C.C.C.C.C.",
"C.          % 4 M M 7 & % k W  .Q C k Z ! o.~ Z k g C.C.C.C.C.",
"C.          : l ~ ` N < % k U { S 6 o 7 A o.L g o . C.C.C.C.C.",
"C.C.        : z U ) V 9 8 N _ { W N g Z ! o.~ Z k 8 C.C.C.C.C.",
"C.C.C.C.    : 0 J Y F V m U ] o.' ~ W ` [ o.{ ` W W C.C.C.C.C.",
"C.C.C.C.C.  & 5 v J F F I ( { o.o.o.o.o.o.o.o.o.o.o.C.C.C.C.C.",
"C.C.C.C.C.C.& 3 5 q v D I ( { o.o.o.o.o.o.o.o.o.o.o.C.C.C.C.C.",
"C.C.C.C.C.C.C.+ % , 0 m I ( { o.o.o.o.o.o.o.o.o.o.o.C.C.C.C.C.",
"C.C.C.C.C.C.C.C.. & j R ^ 8.9.e.e.e.e.e.e.e.w.q.O.o.C.C.C.C.C.",
"C.C.C.C.C.C.C.C.C.C.E 5.r.y.s.x.z.z.x.z.x.x.d.p.C.C.C.C.C.C.C.",
"C.C.C.C.C.C.C.C.C.C.C.g.j.b.m.B.B.B.B.B.B.B.B.C.C.C.C.C.C.C.C.",
"C.C.C.C.C.C.C.C.C.C.C.7.r.i.k.v.v.V.B.B.B.B.B.C.C.C.C.C.C.C.C.",
"C.C.C.C.C.C.C.C.C.C.C.^ / 8.0.u.z.n.B.B.B.B.B.C.C.C.C.C.C.C.C.",
"C.C.C.C.C.C.C.C.C.C.C.K I ( { O.a.c.N.N.N.N.M.C.C.C.C.C.C.C.C.",
"C.C.C.C.C.C.C.C.C.C.n F I ( { ..t.f.h.h.h.h.3.2.C.C.C.C.C.C.C.",
"C.C.C.C.C.C.C.C.C.s b D I ( { X.6.2.<.<.<.<.,.=.C.C.C.C.C.C.C.",
"C.C.C.C.C.C.C.C.C.p h b m F ~ | 1.;.*.:.-.*.&.#.a C.C.C.C.C.C.",
"C.C.C.C.C.C.C.C.C.t 1 3 4 h x T c %.$.#.f d d w u C.C.C.C.C.C.",
"C.C.C.C.C.C.e e e = @ o + @ ; i y y r $ * o o # e e e e C.C.C.",
"C.C.C.C.C.C.e e e e * o O O = e e e e = * o o = e e e e C.C.C.",
"C.C.C.C.C.C.e e e e = = @ = e e e e e e = = = = e e e e C.C.C.",
"C.C.C.C.C.C.C.e e e e e r e e e e e e e e e e e e e e C.C.C.C.",
"C.C.C.C.C.C.C.C.C.e e e e e e e e e e e e e e e e C.C.C.C.C.C.",
"C.C.C.C.C.C.C.C.C.e e e e e e e e e e e e e e e e C.C.C.C.C.C.",
"C.C.C.C.C.C.C.C.C.C.C.C.C.C.C.C.C.C.C.C.C.C.C.C.C.C.C.C.C.C.C.",
"C.C.C.C.C.C.C.C.C.C.C.C.C.C.C.C.C.C.C.C.C.C.C.C.C.C.C.C.C.C.C.",
"C.C.C.C.C.C.C.C.C.C.C.C.C.C.C.C.C.C.C.C.C.C.C.C.C.C.C.C.C.C.C."
};
