/* XPM */
static char *result[] = {
/* columns rows colors chars-per-pixel */
"40 41 158 2 ",
"   c #181425",
".  c #191628",
"X  c #1C192B",
"o  c #1E1E32",
"O  c #241D2A",
"+  c #251A34",
"@  c #1F2035",
"#  c #2E242D",
"$  c #33272F",
"%  c #212136",
"&  c #23263D",
"*  c #2F2A39",
"=  c #3D2F33",
"-  c #523E3B",
";  c #493738",
":  c #5D453F",
">  c #3A1E56",
",  c #3F1B5B",
"<  c #262B44",
"1  c #2C2B49",
"2  c #322145",
"3  c #322A4D",
"4  c #39244D",
"5  c #342351",
"6  c #3A2653",
"7  c #3E2956",
"8  c #3F2858",
"9  c #372A51",
"0  c #213D61",
"q  c #43195D",
"w  c #42255A",
"e  c #432A5B",
"r  c #492B5E",
"t  c #4C225E",
"y  c #473E5D",
"u  c #5E3A5E",
"i  c #683F58",
"p  c #471B60",
"a  c #4B1D63",
"s  c #521F69",
"d  c #4E2264",
"f  c #4B2A61",
"g  c #512366",
"h  c #542369",
"j  c #5B266D",
"k  c #5B296D",
"l  c #562D64",
"z  c #5C3166",
"x  c #5E366E",
"c  c #5D2470",
"v  c #5F2970",
"b  c #642A6F",
"n  c #603361",
"m  c #622674",
"M  c #632874",
"N  c #682977",
"B  c #692779",
"V  c #6C297B",
"C  c #712A7F",
"Z  c #653A75",
"A  c #6E3872",
"S  c #743972",
"D  c #703371",
"F  c #18406C",
"G  c #28467D",
"H  c #514040",
"J  c #6F5246",
"K  c #725447",
"L  c #745648",
"P  c #7B5C4C",
"I  c #6F435D",
"U  c #5D4265",
"Y  c #434778",
"T  c #774760",
"R  c #735062",
"E  c #5D6177",
"W  c #77606E",
"Q  c #805F4C",
"!  c #945856",
"~  c #86634F",
"^  c #8A6650",
"/  c #8E6952",
"(  c #9B615A",
")  c #9A7157",
"_  c #A37759",
"`  c #AD7E5D",
"'  c #BA765C",
"]  c #895767",
"[  c #985569",
"{  c #966269",
"}  c #907A75",
"|  c #A06B69",
" . c #AB7767",
".. c #AB6E73",
"X. c #B06E77",
"o. c #C07956",
"O. c #B1815F",
"+. c #B58460",
"@. c #BC8A63",
"#. c #BC836E",
"$. c #BD8C78",
"%. c #A78377",
"&. c #C28E65",
"*. c #C98E6F",
"=. c #C69167",
"-. c #CD956A",
";. c #D39065",
":. c #D69C6D",
">. c #DA9F6E",
",. c #C88C70",
"<. c #CC9173",
"1. c #D79B71",
"2. c #DFA270",
"3. c #E3A672",
"4. c #742A81",
"5. c #7B3B80",
"6. c #324C8A",
"7. c #21699C",
"8. c #0B6EB0",
"9. c #1673BD",
"0. c #426B9A",
"q. c #803D81",
"w. c #85438D",
"e. c #864692",
"r. c #A87586",
"t. c #B47D8F",
"y. c #788694",
"u. c #498CB6",
"i. c #109CEA",
"p. c #3095D0",
"a. c #70C3F3",
"s. c #AF889B",
"d. c #A98AA0",
"f. c #BC90AE",
"g. c #B595B5",
"h. c #88A7BB",
"j. c #AEB6BF",
"k. c #D4A897",
"l. c #DBA582",
"z. c #E8BE9D",
"x. c #E5B38B",
"c. c #ECC29E",
"v. c #E8CAB8",
"b. c #EFD3BF",
"n. c #83BFE3",
"m. c #C1A0C7",
"M. c #C7C1C0",
"N. c #E7CFC5",
"B. c #EBD7CE",
"V. c #EEDFDB",
"C. c #F3DED1",
"Z. c #F7E3D3",
"A. c #CFEBFB",
"S. c #D6EAF6",
"D. c #FCF8F6",
"F. c #FEFEFE",
"G. c #FAF5F3",
"H. c #ECE8E8",
/* pixels */
"4.4.4.4.4.4.C N j j k k d q q q q q q a k k k c k k k N 4.V v k N C 4.4.4.4.4.4.",
"4.4.4.4.4.4.4.N k j j h 6 < < < < < < < < < < < < < 8 v 4.V M v B C 4.4.4.4.4.4.",
"4.4.4.4.4.4.V N M k k g 6 < < < < < < < < < < < < < 8 k B V M v B C 4.4.4.4.4.4.",
"4.4.4.4.V B N N N N r e 3 < < < < < < < < < < < < < 9 f f N N B C 4.4.4.4.4.4.4.",
"4.4.4.4.V M M N V 4.3 3 1 < < < < < < < < < < < < < 1 1 3 M V 4.4.4.4.4.4.4.4.4.",
"4.4.4.4.V B M B 4.4.& < < < < < < < < < < < < < < < < < & N V 4.4.4.4.4.4.4.4.4.",
"4.4.4.4.4.V V 4.4.V @ @ @ < < < < < < < < < < < < < < o o V 4.4.4.4.4.4.4.4.4.4.",
"4.4.4.4.4.4.4.4.4.V . X @ < < < < < < < < < < < < < @ X . 4.4.4.4.4.4.4.4.4.4.4.",
"4.4.4.4.4.4.4.4.4.4.  . o & & < < < < < < < < < & % O     C C C 4.4.4.4.4.4.4.4.",
"4.4.4.4.4.4.4.4.4.4.  . . X @ < < < < < < < < < o o       C 4.C 4.4.4.4.4.4.4.4.",
"4.4.4.4.4.4.4.4.4.C   . X O % & < < < < < < < & % O O   O 4.4.4.4.4.4.4.4.4.4.4.",
"4.4.4.4.4.4.4.4.4.C   O ; J : * @ @ @ @ o o + * y J ; O   4.4.4.4.4.4.4.4.4.4.4.",
"4.4.4.4.4.4.4.4.4.4.  # L O.P = X X X X     X ; Q +.K $   C 4.4.4.4.4.4.4.4.4.4.",
"4.4.4.4.4.4.4.4.4.4.  $ ^ 3._ : = = = = = ; = H _ 2.^ $   C 4.4.4.4.4.4.4.4.4.4.",
"4.4.4.4.4.4.4.4.4.4.. $ ^ 2.&.) ^ ^ ^ ^ / ^ ^ ) &.2.^ $   4.4.4.4.4.4.4.4.4.4.4.",
"4.4.4.4.4.4.4.4.4.4.  $ ^ 2.2.>.>.:.:.>.:.:.:.>.2.2.^ $   4.4.4.4.4.4.4.4.4.4.4.",
"4.4.4.4.4.4.4.4.C C . $ ^ 2.-.` +.-.3.3.3.-.O.O.-.2.^ $   C C C 4.4.4.4.4.4.4.4.",
"4.4.4.4.4.4.4.4.C C . $ ^ 2.` K P O.3.3.3.O.P L O.2.~ $   C 4.4.4.4.4.4.4.4.4.4.",
"4.4.4.4.4.4.C V V N O = ^ 2.) ; - _ 3.3.3.` : ; ) 2./ = O 4.4.4.4.4.4.4.4.4.4.4.",
"4.4.4.4.4.4.C N m j L P O.3.+.~ ^ &.3.3.3.O.~ ^ O.3.O.~ L 4.4.4.4.4.4.4.4.4.4.4.",
"4.C C V B V N m h h @.&.:.3.:.&.=.>.3.3.3.>.-.=.:.3.:.&.&.m m B B V V B V C 4.4.",
"4.4.V M M M M h a a ,.-.1.3.3.3.3.3.3.3.3.3.3.3.3.3.1.-.,.s s s j c m M M B 4.4.",
"4.C N M j m j s a p ] { #.3.3.3.3.3.3.3.3.3.3.3.3.2.#.{ ] q q p h j j b M N C 4.",
"4.4.V N B B m m c j b S ..3.3.3.3.3.3.3.3.3.3.3.3.3.| n t q a s j M B N N V 4.4.",
"4.4.4.C C C C C V C V q.t.z.c.c.c.c.c.c.c.c.c.c.c.z.r.l , p s j M C C C C 4.4.4.",
"4.4.4.4.4.4.4.4.4.4.4.w.f.C.Z.Z.Z.Z.Z.Z.Z.Z.Z.Z.C.C.d.x , a j m B C 4.4.4.4.4.4.",
"4.4.4.4.4.4.4.4.4.4.4.e.m.D.F.F.F.F.F.F.F.F.D.G.D.G.g.Z q s c V C 4.4.4.4.4.4.4.",
"4.4.4.4.4.4.4.4.4.4.4.e.m.F.F.F.F.F.F.F.F.H.N.v.b.b.s.Z p s N 4.4.4.4.4.4.4.4.4.",
"4.4.4.4.4.4.4.4.4.4.4.e.m.F.F.F.F.F.F.F.F.V.k.-.l.x.r.S s h B 4.4.4.4.4.4.4.4.4.",
"4.4.4.4.4.4.4.4.4.4.4.w.g.V.H.S.A.A.A.A.A.M.$.' ;.3.X.S j m V 4.4.4.4.4.4.4.4.4.",
"4.4.4.4.4.4.4.4.4.4.V 5.r.k.j.n.a.a.a.a.a.y...o.;.3...S j M V 4.4.4.4.4.4.4.4.4.",
"4.4.4.4.4.4.4.4.4.C B V [ ' y.p.i.i.i.i.i.u.%.o.;.2...S j M V 4.4.4.4.4.4.4.4.4.",
"4.4.4.4.4.4.4.C C V k z T ! E 7.8.9.9.9.9.0.W (  . .] z g M V 4.4.4.4.4.4.4.4.4.",
"4.4.4.4.4.4.C C N N f l i i y 0 F G 6.6.6.Y U I R R U r w s N 4.4.4.4.4.4.4.4.4.",
"4.4.4.4.C 4.C N M M r f w w 2 + + 4 f f e e e f e e 7 6 5 s B 4.4.4.4.4.4.4.4.4.",
"V V V V V V V M k b e e e 8 5 2 2 6 e e 8 8 8 e e 8 6 4 5 s c V C 4.4.4.4.4.4.4.",
"M M M M M M M M j j e e e 8 7 6 6 8 e 8 6 6 8 8 e 6 5 5 5 a j M V C 4.4.4.4.4.4.",
"j k k j k h h j j j e e 8 7 7 7 9 8 7 6 5 5 5 6 6 5 5 > 5 p g j m V V C C C 4.4.",
"k k j j h h g h j j f f w 6 6 6 6 6 6 5 5 5 5 5 5 5 6 > > q a g h s m c c c B m ",
"j j j k h a q g h j k g w 5 5 5 5 5 5 5 5 5 5 5 5 5 > , q q q p p p p p p s j c ",
"k j j j h a q d k k j h w 4 5 5 5 5 5 5 5 2 5 5 5 5 > , q q q q q q q q q s h j "
};
