/* XPM */
static char *result[] = {
/* columns rows colors chars-per-pixel */
"40 40 130 2 ",
"   c #040303",
".  c #0A0606",
"X  c #0B0807",
"o  c #0D060A",
"O  c #0E0A09",
"+  c #140E0C",
"@  c #17100E",
"#  c #19110F",
"$  c #140715",
"%  c #140913",
"&  c #190C1A",
"*  c #151515",
"=  c #1C1411",
"-  c #191618",
";  c #231916",
":  c #271B18",
">  c #2B1E1B",
",  c #301E1F",
"<  c #31221E",
"1  c #2D1828",
"2  c #331F25",
"3  c #331B2B",
"4  c #2E1434",
"5  c #381736",
"6  c #351B32",
"7  c #3A1C35",
"8  c #33163B",
"9  c #371C39",
"0  c #3D1A3C",
"q  c #292329",
"w  c #362522",
"e  c #3A2625",
"r  c #3D2A26",
"t  c #37212C",
"y  c #3A232B",
"u  c #3F2929",
"i  c #3C2132",
"p  c #323131",
"a  c #411F3A",
"s  c #402C27",
"d  c #432D2A",
"f  c #46312B",
"g  c #4A332E",
"h  c #462D31",
"j  c #42213C",
"k  c #482838",
"l  c #4D3531",
"z  c #503633",
"x  c #543A34",
"c  c #593D37",
"v  c #53343A",
"b  c #57383A",
"n  c #5B3F38",
"m  c #5E413A",
"M  c #63453D",
"N  c #67483F",
"B  c #341544",
"V  c #3E1743",
"C  c #3F1D47",
"Z  c #39164B",
"A  c #3D1A4A",
"S  c #3D1755",
"D  c #3F1857",
"F  c #431D43",
"G  c #461B4A",
"H  c #481A4E",
"J  c #4C1C51",
"K  c #43195D",
"L  c #531E5B",
"P  c #4D2447",
"I  c #462649",
"U  c #4D254F",
"Y  c #472B49",
"T  c #4C2054",
"R  c #4E215E",
"E  c #522155",
"W  c #55215D",
"Q  c #562C5C",
"!  c #582F5E",
"~  c #503354",
"^  c #543856",
"/  c #553859",
"(  c #471C60",
")  c #4B1E63",
"_  c #521F69",
"`  c #4F2065",
"'  c #522266",
"]  c #5B2264",
"[  c #552369",
"{  c #5B266D",
"}  c #5E3663",
"|  c #5E2570",
" . c #5F2871",
".. c #63246D",
"X. c #632673",
"o. c #6A2675",
"O. c #642874",
"+. c #682977",
"@. c #6C2778",
"#. c #6C297B",
"$. c #712A7F",
"%. c #584F58",
"&. c #585657",
"*. c #674640",
"=. c #674840",
"-. c #6C4B42",
";. c #714F46",
":. c #735047",
">. c #765249",
",. c #7B554C",
"<. c #7F584E",
"1. c #5E4162",
"2. c #614764",
"3. c #654C67",
"4. c #69576A",
"5. c #6B596C",
"6. c #6D696D",
"7. c #746C73",
"8. c #80594F",
"9. c #845B51",
"0. c #80757F",
"q. c #742A81",
"w. c #8A8489",
"e. c #8F8490",
"r. c #9F9E9E",
"t. c #A4A2A3",
"y. c #AEACAD",
"u. c #CECDCD",
"i. c gray82",
"p. c #DADADA",
/* pixels */
"q.q.q.q.q.q.$.+.{ { { [ ` K D ( D K K ( [ { { { { {  .+.q.#.O. .+.$.q.q.q.q.q.q.",
"q.q.q.q.q.q.#.+. .|  .{ ' ( ( K ( K ( ) '  .{ { { {  .+.#.+.O. .@.q.q.q.q.q.q.q.",
"q.q.q.q.#.#.+.+.+.+.+.+.{ ' ) ( ( ( ) [  .+. .{  .O.+.+.+.+.+.+.$.q.q.q.q.q.q.q.",
"q.q.q.q.#.O. .+.#.q.q.#.O.{ ' ( ( ) [  .#.#.+. .O.+.#.+. .+.+.q.q.q.q.q.q.q.q.q.",
"q.q.q.q.q.+.O.#.q.q.#.#.+.X.{ ) ( ) [ O.+.#.+.O.#.#.q.#.O.+.#.q.q.q.q.q.q.q.q.q.",
"q.q.q.q.q.#.#.#.q.#.+.O.+.@.| _ ( ` [ |  .O.+.+.#.#.q.q.#.#.q.q.q.q.q.q.q.q.q.q.",
"q.q.q.q.q.q.q.q.q.#.O.O.+.q.X._ ( ` |  . . .+.q.q.q.q.q.q.q.q.q.q.q.q.q.q.q.q.q.",
"q.q.q.q.q.q.q.q.q.q.+.+.#.q.+.{ ` | O.+.+.+.#.q.q.q.q.q.q.q.q.q.q.q.q.q.q.q.q.q.",
"q.q.q.q.@.! 1...$.$.q.$.q.q.#.' j a ..$.$.q.q.q.q.q.q.q.q.q.q.q.q.q.q.q.q.q.q.q.",
"q.q.q.$.Q y.p.~ $.q.q.q.$.#.W f 9.c W q.q.q.q.q.q.q.q.q.q.q.q.q.q.q.q.q.q.q.q.q.",
"q.q.@.4 q y.w.W q.q.q.$.#.T h 9.9.N H q.q.q.q.q.q.q.q.q.q.q.q.q.q.q.q.q.q.q.q.q.",
"..4.w.&.* & ] q.q.q.q.$.] k 8.9.9.8.k @.q.q.q.q.q.q.q.q.q.q.q.q.q.q.q.q.q.q.q.q.",
"H u.u.%.$ G q.q.q.q.q.$.j ,.9.9.9.9.;.a ..@.$.q.q.q.q.q.q.q.q.q.q.q.q.q.q.q.q.q.",
"o.^ / ..o.$.q.q.q.q.q...v 9.9.9.9.9.8.-.v y 3 F @.q.q.q.q.q.q.q.$.P Y ..q.q.q.q.",
"q.q.q.q.q.q.q.q.q.q.q.] n ,.9.9.9.9.9.9.,.>.;.=.l F X.q.q.q.q.q._ r.i.2.#.q.q.q.",
"q.q.q.q.q.q.q.q.q.q.q.E c ;.,.9.9.9.9.9.9.9.8.8.8.M P q.q.q.q.q.@.4.y.7.V X.X.q.",
"q.q.q.q.q.q.q.q.$.$.@.I x N N ,.9.9.9.9.9.9.9.9.9.8.b ..$.q.q.q.q.o.8 p - 0.e.U ",
"q.q.q.q.q.q.q.@.X.F d # s M N ;.,.8.9.9.9.8.9.8.>.:.b W $.q.q.q.q.q.J   - t.i.6.",
"q.q.q.q.q.q.$.+.F *.>.s = m M M -.;.,.,.,.,.>.-.N M g ] q.q.q.q.q.q.o.L L } 3.} ",
"q.q.$.#.#.#.@.' g 9.9.M X < m M M M N -.-.N N M M M > 4 { o.+.X.o.#.#.#.#.q.q.q.",
"q.q.+.+.O.O. .8 ;.8.9.9.c . X e n M M M M M M M m ; X e 6 K _ _ {  .O. .X.+.q.q.",
"q.q.+. .{ { { 6 -.,.9.9.8.m : O # < d g x x z s = @ r >.-.7 H K ' {  . .X.+.q.q.",
"q.$.#.+.#.+.X.7 *.>.,.9.9.9.<.c > O   . + + . O > M ,.,.:.h B ' { X.#.X.+.#.q.q.",
"q.q.q.q.q.q.#.5 M *.:.,.9.9.9.9.9.8.;.M n M -.,.9.9.<.:.=.g 8 | +.#.$.q.q.q.q.q.",
"q.q.q.q.@.E j O z M N >.,.8.9.9.9.9.9.9.9.9.9.9.9.<.>.-.M e % I X.q.q.q.q.q.q.q.",
"q.q.q.$.G g N ; = M M N >.8.8.9.9.9.9.9.9.9.9.8.<.>.-.M m = : g a $.q.q.q.q.q.q.",
"q.q.q.W u M ;.m   < m M N ;.>.,.9.8.<.<.9.8.<.,.:.N M M w : -.=.f H $.q.q.q.q.q.",
"q.q.q.7 g M ;.8.r   @ m M N N ;.:.:.:.:.;.;.-.=.N M M w + =.,.;.c 3 X.q.q.q.q.q.",
"q.q.@.3 l M ;.,.9.z #   > x M M N M M M N M N M n e # = N 9.8.;.c w ] q.q.q.q.q.",
"q.$...2 g n -.,.9.9.<.g @     ; e f g g f r < @ . # d ,.9.9.8.;.m < L $.q.q.q.q.",
"q.q...2 f x M ;.,.8.9.9.>.m r @         . O # e M ,.9.9.9.8.,.M c e ' q.q.q.q.q.",
"q.q.@.3 d g l M :.,.<.8.8.8.8.8.,.,.>.>.<.8.8.9.9.8.9.9.,.;.N c z t ] q.q.q.q.q.",
"q.q.q.a e r g z m =.;.>.<.<.<.9.8.9.9.8.9.9.9.9.8.<.,.>.=.m m z m 7 X.q.q.q.q.q.",
"q.q.q.] w u r g g m m N ;.>.>.,.,.<.8.<.8.<.<.,.>.:.-.M m z l x f ] q.q.q.q.q.q.",
"#.@.@.@.i e r s r g g x m m M -.-.-.-.-.-.-.=.M M n c l l l x x F $.q.q.q.q.q.q.",
"O.+.X.X.] t < p r f f f g z x m m m M M M c m x l l g g l c m i ..q.q.q.q.q.q.q.",
"{ { { { { R 4 < f r r u r f f g g z z z z g g g f g z m m f 6 [ O.#.q.@.q.@.q.q.",
"{ { { { [ ` ` C 1 w r u g g f f f g g g g g g g z m m z 3 B ( ` _ { | | | | O.+.",
"{ { { { [ R K ` R C t t r f g x x x x x x c c x z h i B S K ( ( ( ( ( ( ( _ | | ",
"{ { { { [ ` K ` { { { R B 4 6 y e r r s r u p t 4 B D D D ( D K K D ( K K ) [ | "
};
