/* XPM */
static char *result[] = {
/* columns rows colors chars-per-pixel */
"40 40 86 1 ",
"  c #543927",
". c #553B29",
"X c #593E2C",
"o c #4D293C",
"O c #543634",
"+ c #5D3E35",
"@ c #5D343D",
"# c #603C3D",
"$ c #5A402E",
"% c #5E4432",
"& c #5E4D3E",
"* c #614634",
"= c #624836",
"- c #67503E",
"; c #68503E",
": c #43195D",
"> c #5E3C41",
", c #5B2E56",
"< c #593051",
"1 c #613B43",
"2 c #662E55",
"3 c #682A5C",
"4 c #643050",
"5 c #65345F",
"6 c #471B61",
"7 c #4A1D62",
"8 c #4F2065",
"9 c #522267",
"0 c #542369",
"q c #5B276D",
"w c #5C2270",
"e c #673560",
"r c #612573",
"t c #632874",
"y c #692A76",
"u c #6C297B",
"i c #712A7F",
"p c #5B4F45",
"a c #5C5146",
"s c #5E5449",
"d c #614840",
"f c #65434F",
"g c #68474A",
"h c #654D4A",
"j c #6B4C4F",
"k c #655344",
"l c #6B5646",
"z c #6F5847",
"x c #63564C",
"c c #68574D",
"v c #63594E",
"b c #6B5B4C",
"n c #725C4B",
"m c #664550",
"M c #655D53",
"N c #6B5E52",
"B c #676056",
"V c #696156",
"C c #6B645B",
"Z c #6E685F",
"A c #716457",
"S c #74665B",
"D c #74685C",
"F c #796C5F",
"G c #6F6A61",
"H c #796662",
"J c #726D64",
"K c #7A6C60",
"L c #757066",
"P c #767169",
"I c #79756C",
"U c #7D796E",
"Y c #7F7B70",
"T c #81776A",
"R c #857A6D",
"E c #847E75",
"W c #887D72",
"Q c #858176",
"! c #878479",
"~ c #89867B",
"^ c #8B897E",
"/ c #742A81",
"( c #8E8B81",
") c #918D84",
"_ c #939087",
"` c #95938B",
/* pixels */
"//////iyqqq086:::::70qqqqqwy/utqyii/////",
"//////y5mbzbzbllkl;p<<<,cnnzbbnm5u//////",
"////iugSE~~~!!!QQYJDDDDFE~~~!^(QHg//////",
"////utlT(!~!!!!QYE!~^^^~!!!!!!^(Tz//////",
"////iynT(~~!!!!!~~!!!!~~!!~~!!!(Tzi/////",
"////iuzR(!~!~~~~~!~~~~~~~~~~~~~)Rz//////",
"//////nW`~~~~~E~~~~~~~~~~~~~~~~)Wn//////",
"//////nW`(^~~~(!~~~~~~~~~~~~~^~_Wn//////",
"//////nR_)((((((~!!!(E(!~~^^^(^_Rni/////",
"//////-F~_)(((~(~(!(!(E(^^((_()!D;//////",
"//////=bP((~(EEEE!EEEEEQ!~~((!EDc*//////",
"//////XkJEPLLJJGGGCGGGGGDJJPPUPZkX//////",
"//////XbLIPLJGCGGGMGMNGCCGGGJJJJbX//////",
"//////%AIPLGGGGCGMMMMMMCCGCGJGJPN*//////",
"//////=AIJJGCGCGGGCMGMMCSGCCCCZJN*//////",
"//////=AIJGGGCGCGNCGNGGGMGGCGZCLN*//////",
"//////=AIPHCCCCGCGCNCZZHCCCCGCGJV*i/////",
"//////*NPGCCCGGGCMMMCCCCCCGCCGCPN*i/////",
"//////*NJCCCCGGCZMMCCNCZGCHGCZGJN*///i//",
"//iuuu=NJCCCCCCGZCNCZZCCCGGCZZCPN%uuiii/",
"//yrtt&NJCCCCCCCCCCMCCCCCGGCCZCJV*tytyi/",
"//yrqw%NJCCCCCCCZMMMMMMCCCCCZCZJN%qqryi/",
"//uytt>CJBCCBCCCCMjMMMMNCGGCCZZJN%yyyu//",
"//////%mJCCCCCCCCMMMMMMMCCCGCZGJM%//////",
"//////%NJCBCCCCCCBBCBBCBBCBCCCCHN%//////",
"//////%NJCCBBCCCCMMMCCMMBBCBBCGBg1//////",
"//////%bJBBBCBCCCxsMMMMBBBBCGGmp@3//////",
"/////i%MJBCCBCCBCxsmBBMBBBBCMMaO>3//////",
"//////+bGBBBCBBBCBMBBBBMBBBMGGMMh+//////",
"//////%bJCCBBBCCBBBxMsMMMBMBMGGJN%//////",
"//////%bJCBCBCBBCxsMsMvvMBBGBCMJv%//////",
"//////2>pBBBBBBBBxsMMMMMBBBBBBBGM%//////",
"//////4@&vsBBBBBBBBCCCBBBBBBBBBGM$e/////",
"//////&cGZZCBBBBBMaaBBMMMBBBBBBGv$//////",
"uuuuuu$bLZBBBBBBBaavavMBBBMMBMMZM$//////",
"tqtttq$bGZZBBBBBBaaaaaaBMMMBBBBGv&//////",
"qqqqqq$xGCZBBBMMMMMMBMMMMMMMMBBGv$uu////",
"qqqqq8$vZCCCBBBMMMMMMMMMMBBBMMBZv$0qwwyy",
"qqqq98$sZCBVVBBBvMMvMMvMMvBMBBBZb$::79qq",
"qqqq98oO$$ $$ $   $  $  $$$ $  $$o::680q"
};
