/* XPM */
static char *result[] = {
/* columns rows colors chars-per-pixel */
"40 40 127 2 ",
"   c #49436D",
".  c #4B456F",
"X  c #514C78",
"o  c #575281",
"O  c #595483",
"+  c #514B78",
"@  c #47416A",
"#  c #504A76",
"$  c #56517F",
"%  c #585382",
"&  c #514C79",
"*  c #4B4670",
"=  c #4A446E",
"-  c #3B3659",
";  c #3E395D",
":  c #474169",
">  c #544F7C",
",  c #575280",
"<  c #544F7D",
"1  c #504A77",
"2  c #302B48",
"3  c #332E4D",
"4  c #49446D",
"5  c #55507E",
"6  c #585281",
"7  c #2A2640",
"8  c #2D2945",
"9  c #3A3557",
"0  c #464069",
"q  c #4D4772",
"w  c #524D7A",
"e  c #4B4570",
"r  c #4E4874",
"t  c #554F7D",
"y  c #534D7A",
"u  c #4C4670",
"i  c #524C79",
"p  c #4E4975",
"a  c #2C2843",
"s  c #35304F",
"d  c #3D385C",
"f  c #3F3A5F",
"g  c #403B60",
"h  c #454066",
"j  c #4A466E",
"k  c #47426A",
"l  c #433D63",
"z  c #2B2741",
"x  c #2F2B47",
"c  c #342F4E",
"v  c #34304F",
"b  c #363251",
"n  c #383454",
"m  c #393455",
"M  c #373353",
"N  c #353150",
"B  c #2D2944",
"V  c #2C2844",
"C  c #2B2742",
"Z  c #3F3A5D",
"A  c #3E395C",
"S  c #383355",
"D  c #332F4E",
"F  c #2E2A46",
"G  c #312C4A",
"H  c #363152",
"J  c #3C385A",
"K  c #504B76",
"L  c #4F4A75",
"P  c #443F66",
"I  c #3C365A",
"U  c #322D4B",
"Y  c #2D2844",
"T  c #373252",
"R  c #413B61",
"E  c #4C4771",
"W  c #585381",
"Q  c #4D4873",
"!  c #423D62",
"~  c #49436C",
"^  c #56507E",
"/  c #464168",
"(  c #4E4974",
")  c #595382",
"_  c #4A456E",
"`  c #383354",
"'  c #2F2A47",
"]  c #413C61",
"[  c #534E7B",
"{  c #565180",
"}  c #4B466F",
"|  c #3F3A5E",
" . c #4F4975",
".. c #544E7B",
"X. c #2E2945",
"o. c #3C375A",
"O. c #4A456F",
"+. c #55507D",
"@. c #4A446F",
"#. c #4E4873",
"$. c #514B77",
"%. c #575180",
"&. c #444066",
"*. c #4C4671",
"=. c #4F4A76",
"-. c #524D79",
";. c #332F4D",
":. c #433E65",
">. c #312D4A",
",. c #363252",
"<. c #3A3657",
"1. c #474269",
"2. c #454067",
"3. c #453F67",
"4. c #48426C",
"5. c #443E65",
"6. c #3D385B",
"7. c #393456",
"8. c #3A3558",
"9. c #302C49",
"0. c #2B2641",
"q. c #2E2946",
"w. c #2C2743",
"e. c #34304E",
"r. c #2D2845",
"t. c #4A446D",
"y. c #3B3658",
/* pixels */
"  . X o O O O O O O O O O O O O O O O O O O O O O O O O O O O O O O O O o + .   ",
"@   # $ % O O O O O O O O O O O O O O O O O O O O O O O O O O O O O O O o & * = ",
"- ; : # > , O O O O O O O O O O O O O O O O O O O O O O O O O O O O O O % < + 1 ",
"2 3 ; 4 # 5 O O O O O O O O O O O O O O O O O O O O O O O O O O O O O O O 6 $ $ ",
"7 8 9 0 q w $ $ $ $ $ $ o O O O O O O % , $ o O O O O O O O O O o $ $ $ $ $ $ $ ",
"7 8 9 0 e r 1 1 1 1 1 + t % O O O O O $ y + t % O O O O O O O % < + 1 1 1 1 1 1 ",
"7 8 9 0   = = = = = = u i 6 O O O O O < p u i 6 O O O O O O O o & * = = = = = = ",
"7 a s d f f f f f f f g h 4 j j j j j k l g h 4 j j j j j j j 4 h g f f f f f f ",
"7 z x 3 c c c c c c c v b n m m m m m M N v b n m m m m m m m n b v c c c c c c ",
"B B B B B B B B B B B B B B B B B V a C z 7 z a a B B B B B B B B B B B B B B B ",
"Z Z Z Z Z Z Z Z Z Z Z Z Z Z Z Z A - S D F C G H 9 J Z Z Z Z Z Z Z Z Z Z Z Z Z Z ",
"K K K K K K K K K K K K K K K K L = P I U Y T R k E K K K K K K K K K K K K K K ",
"O O O O O O O O O O O O O O O O W w Q ! v 8 - ~ # 5 O O O O O O O O O O O O O O ",
"O O O O O O O O O O O O O O O O % ^ y / b F ; ( > , O O O O O O O O O O O O O O ",
"O O O O O O O O O O O O O O O O O ) % _ ` ' ] [ % O O O O O O O O O O O O O O O ",
"O % { < 5 6 O O O o 5 < { ) o 5 < { ) } n F | K > > < { ) o 5 < { ) O O O O O O ",
"O W [  .X ^ O O O ^ X  ...W ^ X  ...W } n X.o.O.r r  ...W ^ X  ...W O O O O O O ",
"$ +.# @.#...% % % [ Q . $.%.[ Q . $.%._ ` 8 9 0     . $.%.[ Q . $.%.% % % % % % ",
"&.h : ~ *.=.-.-.-.=.*.= #.X =.*.= #.X / b 8 9 0     = #.X =.*.= #.X -.-.-.-.-.-.",
";.N ; @ = e *.*.*.e =   O.*.e =   O.*.! v 8 9 0       O.*.e =   O.*.*.*.*.*.*.*.",
"7 Y T R :.:.:.:.:.:.:.:.:.:.:.:.:.:.:.I U Y T R :.:.:.:.:.:.:.:.:.:.:.:.:.:.:.:.",
"7 C G H ` ` ` ` ` ` ` ` ` ` ` ` ` ` ` D F C G H ` ` ` ` ` ` ` ` ` ` ` ` ` ` ` ` ",
"7 7 z a a a a a a a a a a a a a a a a C z 7 z a a a a a a a a a a a a a a a a a ",
"7 C >.M M N v ,.n m m m m m M N v ,.n m m m m m m m m m m M N v ,.n m m m m m m ",
"7 8 <.1.k l g 2.4 j j j j j k l g 2.4 j j j j j j j j j j k l g 2.4 j j j j j j ",
"7 ' ] [ [ Q . $.%.% % % % % [ Q . $.%.% % % % % % % % % % [ Q . $.%.% % % % % % ",
"7 F ; ( =.*.= #.X -.-.-.-.-.=.*.= #.X -.-.-.-.-.-.-.-.-.-.=.*.= #.X -.-.-.-.-.-.",
"7 8 - ~ e =   O.*.*.*.*.*.*.e =   O.*.*.*.*.*.*.*.*.*.*.*.e =   O.*.*.*.*.*.*.*.",
"7 Y T R :.:.:.:.:.3.@ 4.0 5.3.@       @ 3.5.0 4.    4.0 5.:.:.:.:.:.3.@ 4.0 5.:.",
"7 C G H ` ` ` ` ` 6.5.@ g 7.6.5.      5.6.7.g @     @ g 7.` ` ` ` ` 6.5.@ g 7.` ",
"7 7 z a a a a a a s g 0 8.x s g       g s x 8.0     0 8.x a a a a a s g 0 8.x a ",
"7 7 7 7 7 7 7 7 7 9.7.d s a 9.7.f f f 7.9.a s d f f d s a 7 7 7 7 7 9.7.d s a 7 ",
"7 7 7 7 7 7 7 7 7 B G 3 x z B G c c c G B z x 3 c c 3 x z 7 7 7 7 7 B G 3 x z 7 ",
"a a a a a a a a a a a a a a a B B V a C 0.7 C B B B B V a a a a a a a a a a a a ",
"` ` ` ` ` ` ` ` ` ` ` ` ` ` 9 J A - S D q.w.e.J Z Z A - S ` ` ` ` ` ` ` ` ` ` ` ",
":.:.:.:.:.:.:.:.:.:.:.:.:.:.k E L = P - G r.6.E K K L = P :.:.:.:.:.:.:.:.:.:.:.",
":.:.:.:.:.:.:.:.:.:.:.:.:.:.k E L t.P - G r.6.E K K L t.P :.:.:.:.:.:.:.:.:.:.:.",
"` ` ` ` ` ` ` ` ` ` ` ` ` ` 9 J A y.S D q.w.e.J Z Z A y.S ` ` ` ` ` ` ` ` ` ` ` ",
"a a a a a a a a a a a a a a a B B a a C 0.7 C B B B B a a a a a a a a a a a a a ",
"7 7 7 7 7 7 7 7 7 7 7 7 7 7 7 7 7 7 7 7 7 7 7 7 7 7 7 7 7 7 7 7 7 7 7 7 7 7 7 7 "
};
