/* XPM */
static char *result[] = {
/* columns rows colors chars-per-pixel */
"40 40 94 2 ",
"   c #4F2A14",
".  c #502B15",
"X  c #522E1A",
"o  c #54321D",
"O  c #56292D",
"+  c #563621",
"@  c #563A27",
"#  c #593925",
"$  c #573B2A",
"%  c #5B3D2A",
"&  c #592B36",
"*  c #563231",
"=  c #5B3137",
"-  c #5D3930",
";  c #5B343B",
":  c #5F393B",
">  c #5D412E",
",  c #5B4433",
"<  c #5E4836",
"1  c #574638",
"2  c #5B4639",
"3  c #5C4A3C",
"4  c #604633",
"5  c #634935",
"6  c #614D3D",
"7  c #67513F",
"8  c #471E4B",
"9  c #491F4D",
"0  c #431A5E",
"q  c #4D2443",
"w  c #502343",
"e  c #58274E",
"r  c #5F3641",
"t  c #5E324C",
"y  c #4D2151",
"u  c #552355",
"i  c #52255B",
"p  c #5C275B",
"a  c #5D285B",
"s  c #663F4A",
"d  c #6A3A58",
"f  c #471B61",
"g  c #491C62",
"h  c #4F2065",
"j  c #522167",
"k  c #5B2664",
"l  c #542369",
"z  c #5B276D",
"x  c #5C2270",
"c  c #602769",
"v  c #6A296E",
"b  c #612573",
"n  c #632874",
"m  c #692A77",
"M  c #6C297B",
"N  c #702F75",
"B  c #712A7F",
"V  c #5E4E41",
"C  c #5F5145",
"Z  c #604F41",
"A  c #69404E",
"S  c #645345",
"D  c #695341",
"F  c #63564B",
"G  c #65594D",
"H  c #6A5B4D",
"J  c #655C53",
"K  c #695E54",
"L  c #6B6156",
"P  c #6B635A",
"I  c #716356",
"U  c #70675C",
"Y  c #78635E",
"T  c #73695D",
"R  c #796B5E",
"E  c #6F6960",
"W  c #736B62",
"Q  c #7B6E61",
"!  c #777062",
"~  c #7C7265",
"^  c #7C766C",
"/  c #7E796E",
"(  c #7F7970",
")  c #81766A",
"_  c #827D73",
"`  c #848176",
"'  c #868279",
"]  c #89857B",
"[  c #8B897E",
"{  c #742A81",
"}  c #8E8B81",
"|  c #918E84",
" . c #939086",
".. c #949189",
/* pixels */
"{ { { { { { B m x x z z h 0 0 0 0 0 0 g i z z z z z z m B M n c m B { { { { { { ",
"{ { { { { B M r % : , , 4 4 4 4 < 4 4 , > > > > > > > > % % # # r B { { { { { { ",
"{ { { { B - % K W W ^ ^ / _ [ ` _ ` _ _ ` ` ` ` ` ] ~ P L G H G 6 X { { { { { { ",
"{ { { { M % % I ^ ^ ^ ( / ' | ' ] ] ] ] ] ] ] [ ]  .) U P L K L 6 . { { { { { { ",
"{ { { { B % % I ^ ^ ^ ( ( ' | } ] [ [ [ [ [ [ [ ]  ./ P L K L J Z . { { { { { { ",
"{ { { { B # % I ^ ^ ^ ^ ^ _ ..} [ [ [  .[ [ [ [ [  ./ P P L J L 6 . { { { { { { ",
"{ { { { { % % I ^ ^ ^ ^ ^ ' | } [ [ [ [ [ [  .[ }  .( U P L L L 6 . { { { { { { ",
"{ { { { { % % I ^ ^ ( ^ ( ' ..|  .[  .[  .[ [ [ } ..( U U P L J Z . { { { { { { ",
"{ { { { { % % ) ) ~ ~ / _ ] ............ . . ... ...( E E E K K Z . { { { { { { ",
"{ { { { { % - I Y ) / ) _ } ....[ ..[ .. . . ...| | } ^ W E K J 6 X { { { { { { ",
"{ { { { { > % H ! / / ' } | } } [ [  .[ [ [ [ [ } [ } } _ U K G 6 . { { { { { { ",
"{ { { { { % % H ! / '  .| } } } [ ..[ [  .[ [  .} } } } } _ P J 5 X { { { { { { ",
"{ { { { { % % I ^ ` ..} } } } | [ [ [ [ [  .[ [ | [ | | |  ._ U 6 X B { { { { { ",
"{ { { { { % # I ]  .| } | } } } [ ..[ ..| |  . .| | | | | } | _ H X { { { { { { ",
"{ { { { { # # ) ......| | | | | ..[ .... . . . .| |  .|  ...| ..) . { { { { { { ",
"{ { { { { . . ) } _ _ } _ } ' } [ _ [ [ ] _ ' ' ' _ ` ` _ _ ` ] R . { { { { { { ",
"{ { { { B . . K E J P J J P L L ) I I K P L L P L K J J P P J E H . { { { { { { ",
"{ { { { B . . G E J J J J J J L D H K K J J K J J J J J J C J E H   { { { { { { ",
"{ { { { { .   7 C C V V V V C 6 Z Z Z Z C 3 V V V V V V V V V C 6   { { { { { { ",
"{ { B M M O O ; ; * + $ > $ o @ $ - @ @ % $ $ $ @ + @ @ @ o * ; ; O M M M B B { ",
"{ { M n n a a u y q   > 2 @ X > % - > , > $ $ > $ X @ , $   q i u p n n m M { { ",
"{ B m b z z z j f y . 1 C > o 2 3 3 2 2 3 1 2 2 1 X $ V 1   8 0 h z x z z m M { ",
"{ B M m m m n k k e . C G 3 o 2 2 2 2 2 2 2 2 2 1 + 2 F F . q i k n m m m M { { ",
"{ { { B { N N d A : X L P G 6 > $ % @ % $ @ @ @ @ 2 C J F . * ; t v { { { { { { ",
"{ { { { { s s Q ! H o S L H C C 3 6 3 3 3 3 3 1 2 C C J S X , 6 : & { { { { { { ",
"{ { { { { 5 4 ) [ ^ 5 < 6 S C 6 V V C V V 3 V V V 3 2 1 % < S S <   { { { { { { ",
"{ { { { { 4 4 ) [ / H 7 > , 6 3 3 2 1 1 1 1 1 1 1 1 @ $ 6 S S S < X { { { { { { ",
"{ { { { { 4 - ) ] / L L > > J G F F F G G C C C C F $ $ H S H H <   { { { { { { ",
"{ { { { { > > ) [ / L I , 4 U K L K K I L J J C F L > @ H H H H 6   { { { { { { ",
"{ { { { { > > ) [ / I I > - P K K L K K L L J J J L > > H H ! ! I X { { { { { { ",
"{ { { { B > > ~ [ ` / U > 4 Y G L P U K L L L J J P > > L ! / ] Q + { { { { { { ",
"{ { { { { % % ) [ ` ` ) 5 > P J K K K K J L J J L E > > T / ` ] Q + { { { { { { ",
"{ { { { { % % ) [ [ ' ` T 7 5 < 2 4 2 , 2 5 2 4 2 Z Z H ^ ` ` ] ^ @ { { { { { { ",
"{ { { { B > % )  .[ ] ` ` R D D Z V D D D D D S D D Y _ ( ' ` ] W @ { { { { { { ",
"M m B M m # # /  .| } } } [ ] ] ' } ( } _ _ } ' _ ] ] [ ] [ ' } Q o { { { { { { ",
"n n n n n o o R ] ] ` ] ] ` ] ] } ( } ' } _ _ ' ] _ ] _ ' ' ' ' W   { { { { { { ",
"z z z z z   . H E E P P K P K P J P J P J J J J K K J J P J J E F   M M B M { { ",
"z z z z k   . S E P J J K J J J J J J J J J J J J J J J J J J E S   x x x b n m ",
"z z z z l     S J F F J F F J F J F F F F F C J F J C F J F F J Z   f f f j x z ",
"z z z z j . .   . . . . X . X . X           . . .     .         . . 0 0 f h z z "
};
