/* XPM */
static char *result[] = {
/* columns rows colors chars-per-pixel */
"42 41 114 2 ",
"   c #100B0D",
".  c #160B19",
"X  c #1A0E1C",
"o  c #1A1216",
"O  c #1E151A",
"+  c #21171C",
"@  c #24191E",
"#  c #291B1F",
"$  c #231224",
"%  c #281727",
"&  c #261B21",
"*  c #2A1D23",
"=  c #27122F",
"-  c #2A142C",
";  c #2C1A2B",
":  c #321F25",
">  c #321C2E",
",  c #250F31",
"<  c #261130",
"1  c #2D1333",
"2  c #2E1932",
"3  c #2F1838",
"4  c #321636",
"5  c #331C34",
"6  c #33153C",
"7  c #35193A",
"8  c #3A1C3D",
"9  c #2E2126",
"0  c #2F2328",
"q  c #322023",
"w  c #33242C",
"e  c #362A2F",
"r  c #39282F",
"t  c #362332",
"y  c #3A2534",
"u  c #372B31",
"i  c #3C2B33",
"p  c #3D233C",
"a  c #3E2839",
"s  c #412E37",
"d  c #41253D",
"f  c #422D3A",
"g  c #413037",
"h  c #45313B",
"j  c #49353E",
"k  c #331640",
"l  c #3A1644",
"z  c #351942",
"x  c #3D1B44",
"c  c #36154A",
"v  c #38164D",
"b  c #3C1A4C",
"n  c #3C1754",
"m  c #3E1856",
"M  c #3F2241",
"N  c #411D45",
"B  c #431C4B",
"V  c #481E4D",
"C  c #441C53",
"Z  c #4B1E53",
"A  c #43195D",
"S  c #4A1D5D",
"D  c #521E5B",
"F  c #432443",
"G  c #492747",
"H  c #452A42",
"J  c #482F42",
"K  c #452149",
"L  c #4A244D",
"P  c #472848",
"I  c #4E2B4C",
"U  c #463441",
"Y  c #4C3542",
"T  c #4E3942",
"R  c #523B46",
"E  c #52324D",
"W  c #563D4A",
"Q  c #593E4D",
"!  c #4E2452",
"~  c #4C215A",
"^  c #512455",
"/  c #542B55",
"(  c #54235B",
")  c #58255E",
"_  c #5A295E",
"`  c #553152",
"'  c #5C3D52",
"]  c #471C60",
"[  c #4B1E63",
"{  c #501E67",
"}  c #521F68",
"|  c #4E2065",
" . c #532265",
".. c #5C2465",
"X. c #5C2862",
"o. c #552369",
"O. c #5B266D",
"+. c #5F2770",
"@. c #5F2871",
"#. c #61256C",
"$. c #64286C",
"%. c #642672",
"&. c #692775",
"*. c #642874",
"=. c #682977",
"-. c #6D2779",
";. c #6D297B",
":. c #71297E",
">. c #5B424D",
",. c #5F4451",
"<. c #614653",
"1. c #654956",
"2. c #742A81",
"3. c None",
/* pixels */
"2.2.2.2.2.2.:.=.+.O.O.o.| ] m ] A A A [ o.O.O.~ M i i i a 1 , B $.:.2.2.2.2.2.2.3.3.",
"2.2.2.2.2.2.;.=.@.@.+.O.| ] A A A A A [ o.+.O.~ H i i i i 1 , C $.:.2.2.2.2.2.2.3.3.",
"2.2.2.2.2.;.=.=.=.=.=.=.O.o.[ ] A [ [ o.@.=.@.~ M u i i t 2 - L #.&.:.:.2.2.2.2.3.3.",
"2.2.2.2.;.*.@.=.;.2.:.;.*.O.| [ A { o.@.-.;.=.C t 0 w i w y y F V #.:.:.2.2.2.2.3.3.",
"2.2.2.2.;.=.*.=.;.&.;.-.-.@.+.[ ] [ O.@.=.-.=.x > r i r r h s f d ^ #.&.:.2.2.2.3.3.",
"2.2.2.2.2.;.2.;.%.( O.$.*.-.+.{ ] | o.+.@.*.#.x r s g r g T h f f d ! X.&.:.2.2.3.3.",
"2.2.2.2.2.2.2.;. .F ( ..+.-.*.} ] | O.O.@.@...M i h h f h R T h h s d ^ #.&.:.2.3.3.",
"2.2.2.2.2.2.2.=.Z t H ( } O.@.o.] | *.=.=.=.C a h j j j s W >.T h g f d L #.:.2.3.3.",
"2.2.2.2.2.2.2.-.D q U P P I .. .Z V &.:.:.-.N y j j j >.s j 1.>.T f f f f ( $.2.3.3.",
"2.2.2.2.:.:.2.:...> T u e i K L 8 4 ..:.2.%.7 s R j j ,.j g ,.1.W h f h f d ^ &.3.3.",
"2.2.2.2.-.:.:.:.*.x e 0 q e s > > 4 #.:.2.V - h Q R j 1.>.g W 1.R y > h R j d D 3.3.",
"2.2.2.%.X.$.-.:.;.( p a 8 t : : : 5 } :.-.8 : h >.W j 1.>.j j >.E I M f T J V D 3.3.",
"2.2.&.) G L #.-.:.$.( ! V 5 * : : 5 V &.$.> : j ,.W j Q W R s T / _ ( F Y I ( #.3.3.",
"2.2.#.N 5 d ! #.&.:.&.$. .2 & : : w 8 D ^ y y j W j j E E T y f ) &.#.( G ^ %.;.3.3.",
"2.-.V 5 : y d L ..&.&.&.( 2 + & & 9 > 5 d f h j j j d ^ _ I d : ..:.-.#.( #.:.:.3.3.",
"2.} 8 q w i f d L X.....Z = O O & * * # y h s j j s d } &.) F - #.2.2.&.&.&.2.2.3.3.",
"2.N ; r e s j i y a N N l $ . X + * # * e e 9 h j w x &.2.;.V - O.2.2.2.2.2.2.2.3.3.",
"2.4 w j h T >.j w u p p y ; O O & * * * 9 9 @ i R i b ;.2.:.#.V &.2.2.2.2.2.2.2.3.3.",
"&.- u W R R >.W h u i h f 0 # + # * # 9 9 9 O e R J z =.:.2.-.} ;.2.2.2.2.2.2.2.3.3.",
"#.* i >.R T >.,.R s i R Y w & & @ # @ 9 # 9 O 0 T H z +.*.&.&.#.*.;.;.;.;.2.2.2.3.3.",
"V % j <.R j >.1.<.R s R s * 9 9 @ 9 @ 9 @ 9 O 9 h y 1 [ { { { { +.@.*.@.*.;.2.2.3.3.",
"6 % R <.>.j W 1.1.Q h h w * w * O # 9 9 @ 9 O O w ; , m A A ] ] | O.+.+.@.-.:.2.3.3.",
"% & W 1.>.j T 1.1.1.R w # w t > 9 & 9 & 9 9 o O & O 1 n A ] [ { O.*.=.=.=.;.2.2.3.3.",
"o # W 1.,.j j 1.1.1.1.# & f y 4 7 & & 9 @ 9 O O O O = c m ] } O.=.;.:.2.:.2.2.2.3.3.",
"o & W 1.<.j j 1.1.1.1.r * j f N D 8 & * * * # @ O & 9 3 n [ O.*.;.2.2.2.2.2.2.2.3.3.",
"o * Q 1.1.R j 1.<.<.' d 9 j f V &.Z ; ; * & & @ @ & & ; z S +.-.:.2.2.2.2.2.2.2.3.3.",
"o t Q 1.1.R j ,.<.W I 8 ; h H ^ :.#.V N 5 & * & @ @ 9 9 p x O.2.2.2.2.2.2.2.2.2.3.3.",
"O s ,.<.1.>.j R Q / ..D 5 y F #.:.-.#.) V % * * O O 9 & w M ~ -.:.2.2.2.2.2.2.2.3.3.",
"$ f ,.<.<.Q j T E _ *.%.V N Z %.2.2.-.&.#.% # : O O 9 * 0 a K #.:.:.2.2.2.2.2.2.3.3.",
"- j ,.<.Q W T h I %.;.;.) Z #.:.2.2.2.:.&.- & w @ O 9 0 * w y ( ;.2.2.2.2.2.2.2.3.3.",
"1 J ,.Q E Y J d ! -.=.=.&.-.:.:.2.2.2.2.#.; & r 9 + w q 9 * t K =.2.2.2.2.2.2.2.3.3.",
"1 j W E _ $.! 8 ) -.*.#.&.:.2.2.2.2.2.:.O.; * r w & * e s # w d =.2.2.2.2.2.2.2.3.3.",
"N f E ^ @.;. .N ..-.=.=.=.*.;.2.2.2.2.2.o.% & u t ; & u T O 0 a #.2.2.2.2.2.2.2.3.3.",
"} p G $.2.2.=.O.O.=.;.;.=.@.@.;.2.2.2.2.O.; & t t 2 ; u >.. 9 u ..;.2.2.2.2.2.2.3.3.",
"#.M D $.;.;.=.@.O.@.=.-.*.O.@.=.2.=.2.@.o.M 3 w t 5 2 u R $ * t ! $.2.2.2.2.2.2.3.3.",
"%.B ( $.*.@.@.@.O.+.@.*.@.@.@.@.@.@.@.O.| m k w w 5 4 y U 1 2 0 p ) =.;.;.2.2.2.3.3.",
"O.Z o.O.O.O.O.O.O.O.O.O.o.O.o.o.O.o.O.| | A c 5 t 4 3 t M v 7 0 t L ) o.&.;.2.2.3.3.",
"O.o.O.O.O. .| o.O.O.O.O.o.| | | | | | | A m n z 7 3 k t b m n 3 > t 8 x S *.*.*.3.3.",
"O.O.O.O.o.| m | O.O.O.O.| ] | A A A A A A A m M z c v z m ] m k ; ; * 3 l | O.+.3.3.",
"O.O.O.O.o.| A | o.O.O.O.| A ] m A A A A A A ~ m v m m v ] m A v < $ & & 6 S O.O.3.3.",
"3.3.3.3.3.3.3.3.3.3.3.3.3.3.3.3.3.3.3.3.3.3.3.3.3.3.3.3.3.3.3.3.  O & & O 3.3.3.3.3."
};
